SplineFontDB: 3.2
FontName: Paribartan1
FullName: Paribartan1
FamilyName: Paribartan
Weight: Regular
Copyright: Copyright 2024 The Paribartan Project Authors (github.com/mitradranirban/paribartan)
Version: 0.001
ItalicAngle: 0
UnderlinePosition: 0
UnderlineWidth: 0
Ascent: 800
Descent: 200
InvalidEm: 1
UFOAscent: 800
UFODescent: -250
LayerCount: 2
Layer: 0 0 "Back" 1
Layer: 1 0 "Fore" 0
StyleMap: 0x0000
FSType: 0
OS2Version: 0
OS2_WeightWidthSlopeOnly: 0
OS2_UseTypoMetrics: 0
CreationTime: 1733728903
ModificationTime: 1734456895
PfmFamily: 17
TTFWeight: 400
TTFWidth: 5
LineGap: 0
VLineGap: 0
OS2TypoAscent: 1200
OS2TypoAOffset: 0
OS2TypoDescent: -400
OS2TypoDOffset: 0
OS2TypoLinegap: 0
OS2WinAscent: 1160
OS2WinAOffset: 0
OS2WinDescent: 348
OS2WinDOffset: 0
HheadAscent: 1200
HheadAOffset: 0
HheadDescent: -400
HheadDOffset: 0
OS2CapHeight: 750
OS2XHeight: 500
OS2Vendor: 'anir'
MarkAttachClasses: 1
DEI: 91125
LangName: 1033 "" "" "" "" "" "" "" "" "Dr Anirban Mitra" "Dr Anirban Mitra" "Variable Color Bengali Font" "https://fonts.atipra.in" "https://github.com/mitradranirban" "This Font Software is licensed under the SIL Open Font License, Version 1.1. This license is available with a FAQ at: https://openfontlicense.org+ACIA" " https://openfontlicense.org"
PickledDataWithLists: "(dp0
Vxyz.fontra.lineMetricsHorizontalLayout.zones
p1
(dp2
Vascender
p3
I16
sVbaseline
p4
I-16
sVcapHeight
p5
I16
sVdescender
p6
I-16
sVxHeight
p7
I16
ss."
Encoding: UnicodeBmp
Compacted: 1
UnicodeInterp: none
NameList: AGL For New Fonts
DisplaySize: -128
AntiAlias: 1
FitToEm: 1
WidthSeparation: 150
WinInfo: 360 10 4
BeginPrivate: 0
EndPrivate
Grid
-1000 -402 m 0
 2000 -402 l 1024
-1000 510.5 m 0
 2000 510.5 l 1024
  Named: "XHGHT"
-982 752 m 0
 2018 752 l 1024
  Named: "CAPS"
-1000 1202 m 0
 2000 1202 l 1024
EndSplineSet
BeginChars: 65538 453

StartChar: exclam
Encoding: 33 33 0
Width: 252
VWidth: 0
Flags: HW
HStem: 8 142<50 202>
VStem: 50 152<8 150 268 782>
LayerCount: 2
Fore
SplineSet
50 8 m 1
 50 150 l 1
 202 150 l 1
 202 8 l 1
 50 8 l 1
50 268 m 1
 50 782 l 1
 202 782 l 1
 202 268 l 1
 50 268 l 1
EndSplineSet
EndChar

StartChar: quotedbl
Encoding: 34 34 1
Width: 452
VWidth: 0
Flags: HW
HStem: 542 257<50 202 250 402>
VStem: 50 152<542 799> 250 152<542 799>
LayerCount: 2
Fore
SplineSet
50 542 m 1
 50 799 l 1
 202 799 l 1
 202 542 l 1
 50 542 l 1
250 542 m 1
 250 799 l 1
 402 799 l 1
 402 542 l 1
 250 542 l 1
EndSplineSet
EndChar

StartChar: numbersign
Encoding: 35 35 2
Width: 644
VWidth: 0
Flags: HW
HStem: 226 152<55 64.8453 243.718 364.845 543.718 599> 476 152<55 109.044 287.917 409.044 587.917 599>
LayerCount: 2
Fore
SplineSet
409.043945312 476 m 1
 261.043945312 476 l 1
 243.717773438 378 l 1
 391.717773438 378 l 1
 409.043945312 476 l 1
149 702 m 1
 301 702 l 1
 287.916992188 628 l 1
 435.916992188 628 l 1
 449 702 l 1
 601 702 l 1
 587.916992188 628 l 1
 599 628 l 1
 599 476 l 1
 561.043945312 476 l 1
 543.717773438 378 l 1
 599 378 l 1
 599 226 l 1
 516.845703125 226 l 1
 505 159 l 1
 353 159 l 1
 364.845703125 226 l 1
 216.845703125 226 l 1
 205 159 l 1
 53 159 l 1
 64.845703125 226 l 1
 55 226 l 1
 55 378 l 1
 91.7177734375 378 l 1
 109.043945312 476 l 1
 55 476 l 1
 55 628 l 1
 135.916992188 628 l 1
 149 702 l 1
EndSplineSet
EndChar

StartChar: dollar
Encoding: 36 36 3
Width: 512
VWidth: 0
Flags: HW
VStem: 253 210.5<165.062 311.804> 253 79<-172 9.65447 452.672 595.787 784.489 1040>
LayerCount: 2
Fore
SplineSet
253 595.787109375 m 1
 246.98046875 589.745117188 241.647460938 582.815429688 237 575 c 0
 220.333007812 547.666992188 218.833007812 517.666992188 232.5 485 c 0
 237.901367188 472.088867188 244.734375 461.313476562 253 452.671875 c 1
 253 595.787109375 l 1
60 67 m 2
 135 192 l 1
 140.333007812 188 147.666992188 183 157 177 c 0
 182.333007812 162.333007812 209.333007812 158.333007812 238 165 c 0
 243.245117188 166.219726562 248.245117188 167.741210938 253 169.563476562 c 1
 253 319.608398438 l 1
 246.412109375 321.99609375 239.412109375 323.79296875 232 325 c 0
 199.333007812 343 171 363 147 385 c 0
 123 407 104 431.666992188 90 459 c 0
 76 486.333007812 70 516.333007812 72 549 c 0
 74 581.666992188 85.3330078125 615 106 649 c 0
 140.186523438 705.163085938 189.186523438 744.8359375 253 768.017578125 c 1
 253 1040 l 1
 332 1040 l 1
 332 784.489257812 l 1
 379.180664062 785.873046875 421.180664062 770.04296875 458 737 c 0
 460 735 463.5 732.5 468.5 729.5 c 0
 473.5 726.5 477 724 479 722 c 2
 404 597 l 1
 396 603.666992188 388.666992188 608.666992188 382 612 c 0
 365.936523438 620.876953125 349.26953125 625.533203125 332 625.966796875 c 1
 332 410.544921875 l 1
 351.361328125 398.936523438 368.361328125 387.254882812 383 375.5 c 0
 405 357.833007812 424.166992188 337.333007812 440.5 314 c 0
 456.833007812 290.666992188 464.5 264.333007812 463.5 235 c 0
 462.5 205.666992188 452 174 432 140 c 0
 408.666992188 100.666992188 375.5 68.1669921875 332.5 42.5 c 0
 332.333007812 42.400390625 332.166992188 42.30078125 332 42.2021484375 c 2
 332 -172 l 1
 253 -172 l 1
 253 9.654296875 l 1
 235.934570312 5.681640625 218.767578125 3.6298828125 201.5 3.5 c 0
 157.166992188 3.1669921875 117 19.3330078125 81 52 c 0
 79 54 75.5 56.5 70.5 59.5 c 0
 65.5 62.5 62 65 60 67 c 2
EndSplineSet
EndChar

StartChar: percent
Encoding: 37 37 4
Width: 691
VWidth: 0
Flags: HW
HStem: 92 75<498.188 521.812> 274 75<498.188 521.812> 493 75<193.188 216.812> 675 75<193.188 216.812>
VStem: 75 76<578.334 664.111> 259 76<578.933 663.698> 380 76<177.334 263.111> 564 76<177.933 262.698>
LayerCount: 2
Fore
SplineSet
535 828 m 1
 641 767 l 1
 156 -73 l 1
 50 -12 l 1
 535 828 l 1
510 274 m 0
 506 274 502 273 498 272 c 1
 498 273 l 1
 473 268 456 246 456 220 c 0
 456 194 473 173 498 168 c 1
 498 169 l 1
 502 168 506 167 510 167 c 0
 514 167 518 168 522 169 c 1
 522 168 l 1
 547 173 564 194 564 220 c 0
 564 246 547 268 522 273 c 1
 522 272 l 1
 518 273 514 274 510 274 c 0
509 92 m 0
 508 92 508 92 507 92 c 0
 505 92 502 92 500 92 c 0
 433 97 380 152 380 220 c 0
 380 288 433 344 500 349 c 0
 502 349 505 349 507 349 c 0
 508 349 508 349 509 349 c 0
 510 349 510 349 511 349 c 0
 583 349 640 292 640 220 c 0
 640 149 583 92 511 92 c 0
 510 92 510 92 509 92 c 0
205 675 m 4
 201 675 197 674 193 673 c 5
 193 674 l 5
 168 669 151 647 151 621 c 4
 151 595 168 574 193 569 c 5
 193 570 l 5
 197 569 201 568 205 568 c 4
 209 568 213 569 217 570 c 5
 217 569 l 5
 242 574 259 595 259 621 c 4
 259 647 242 669 217 674 c 5
 217 673 l 5
 213 674 209 675 205 675 c 4
204 493 m 4
 203 493 203 493 202 493 c 4
 200 493 197 493 195 493 c 4
 128 498 75 553 75 621 c 4
 75 689 128 745 195 750 c 4
 197 750 200 750 202 750 c 4
 203 750 203 750 204 750 c 4
 205 750 205 750 206 750 c 4
 278 750 335 693 335 621 c 4
 335 550 278 493 206 493 c 4
 205 493 205 493 204 493 c 4
EndSplineSet
EndChar

StartChar: ampersand
Encoding: 38 38 5
Width: 649
VWidth: 0
Flags: HW
HStem: 13 151<250.364 321.357> 508 20G<297.268 319.279>
VStem: 56.8926 151<206.066 281.468>
LayerCount: 2
Fore
SplineSet
321.578125 167.893554688 m 1
 208.534179688 282.051757812 l 1
 208.110351562 278.1015625 207.892578125 274.081054688 207.892578125 270 c 0
 207.892578125 211 254.892578125 164 314.892578125 164 c 0
 315.63671875 164 317.953125 165.373046875 321.578125 167.893554688 c 1
388.892578125 820 m 1
 385.892578125 701 l 1
 360.892578125 699 242.892578125 634 223.892578125 615 c 0
 200.892578125 592 190.892578125 561 192.892578125 531 c 1
 215.551757812 508.340820312 l 1
 246.095703125 521.012695312 279.643554688 528 314.892578125 528 c 0
 323.666015625 528 332.338867188 527.560546875 340.892578125 526.704101562 c 1
 340.892578125 383 l 1
 452.024414062 271.868164062 l 1
 509.897460938 319.09375 564.953125 364.163085938 568.892578125 365.131835938 c 1
 568.892578125 212.295898438 l 2
 567.041015625 212.110351562 554.50390625 202.668945312 535.904296875 187.98828125 c 1
 599.892578125 124 l 1
 481.892578125 6 l 1
 405.688476562 82.955078125 l 1
 358.41015625 44.77734375 318.403320312 13 314.892578125 13 c 0
 171.892578125 13 56.892578125 128 56.892578125 270 c 0
 56.892578125 317.479492188 69.5703125 361.873046875 91.7412109375 399.995117188 c 1
 75.892578125 416 l 1
 20.81640625 515.021484375 62.6962890625 618.463867188 116.892578125 722 c 0
 143.875 773.546875 356.1484375 839.728515625 388.892578125 820 c 1
EndSplineSet
EndChar

StartChar: quotesingle
Encoding: 39 39 6
Width: 252
VWidth: 0
Flags: HW
HStem: 542 257<50 202>
VStem: 50 152<542 799>
LayerCount: 2
Fore
SplineSet
50 542 m 1
 50 799 l 1
 202 799 l 1
 202 542 l 1
 50 542 l 1
EndSplineSet
EndChar

StartChar: parenleft
Encoding: 40 40 7
Width: 555
VWidth: 0
Flags: HW
HStem: -4 25<373.819 460.389> 754 29<364.924 455.227>
VStem: 50 104<262.783 514.708>
LayerCount: 2
Fore
SplineSet
432 754 m 1
 304 754 154 589 154 388 c 0
 154 186 304 21 432 21 c 1
 505 3 l 1
 481 -2 457 -4 432 -4 c 0
 221 -4 50 172 50 390 c 0
 50 607 221 783 432 783 c 0
 457 783 481 781 505 776 c 1
 432 754 l 1
EndSplineSet
EndChar

StartChar: parenright
Encoding: 41 41 8
Width: 555
VWidth: 0
Flags: HW
HStem: -4 25<94.6111 181.181> 754 29<99.7727 190.076>
VStem: 401 104<262.783 514.708>
LayerCount: 2
Fore
SplineSet
123 754 m 1
 50 776 l 1
 74 781 98 783 123 783 c 0
 334 783 505 607 505 390 c 0
 505 172 334 -4 123 -4 c 0
 98 -4 74 -2 50 3 c 1
 123 21 l 1
 251 21 401 186 401 388 c 0
 401 589 251 754 123 754 c 1
EndSplineSet
EndChar

StartChar: asterisk
Encoding: 42 42 9
Width: 644
VWidth: 0
Flags: HW
HStem: 354 152<50 139 505 594>
VStem: 246 152<159 247 613 702>
LayerCount: 2
Fore
SplineSet
594 506 m 1
 594 354 l 1
 505 354 l 1
 568 291 l 1
 461 184 l 1
 398 247 l 1
 398 159 l 1
 246 159 l 1
 246 247 l 1
 183 184 l 1
 76 291 l 1
 139 354 l 1
 50 354 l 1
 50 506 l 1
 139 506 l 1
 76 569 l 1
 183 676 l 1
 246 613 l 1
 246 702 l 1
 398 702 l 1
 398 613 l 1
 461 676 l 1
 568 569 l 1
 505 506 l 1
 594 506 l 1
EndSplineSet
EndChar

StartChar: plus
Encoding: 43 43 10
Width: 644
VWidth: 0
Flags: HW
HStem: 354 152<50 594>
VStem: 246 152<159 702>
LayerCount: 2
Fore
SplineSet
246 702 m 1
 398 702 l 1
 398 506 l 1
 594 506 l 1
 594 354 l 1
 398 354 l 1
 398 159 l 1
 246 159 l 1
 246 354 l 1
 50 354 l 1
 50 506 l 1
 246 506 l 1
 246 702 l 1
EndSplineSet
EndChar

StartChar: comma
Encoding: 44 44 11
Width: 252
VWidth: 0
Flags: HW
HStem: -124 274<92.7671 145.182>
VStem: 50 152<8 150>
LayerCount: 2
Fore
SplineSet
50 8 m 1
 50 150 l 1
 202 150 l 1
 202 8 l 1
 142 -124 l 1
 84 -120 l 1
 92.767578125 8 l 1
 50 8 l 1
EndSplineSet
EndChar

StartChar: hyphen
Encoding: 45 45 12
Width: 644
VWidth: 0
Flags: HW
HStem: 354 152<50 594>
LayerCount: 2
Fore
SplineSet
594 506 m 1
 594 354 l 1
 50 354 l 1
 50 506 l 1
 594 506 l 1
EndSplineSet
EndChar

StartChar: period
Encoding: 46 46 13
Width: 252
VWidth: 0
Flags: HW
HStem: 8 142<50 202>
VStem: 50 152<8 150>
LayerCount: 2
Fore
SplineSet
50 8 m 1
 50 150 l 1
 202 150 l 1
 202 8 l 1
 50 8 l 1
EndSplineSet
EndChar

StartChar: slash
Encoding: 47 47 14
Width: 691
VWidth: 0
Flags: HW
LayerCount: 2
Fore
SplineSet
535 828 m 1
 641 767 l 1
 156 -73 l 1
 50 -12 l 1
 535 828 l 1
EndSplineSet
EndChar

StartChar: zero
Encoding: 48 48 15
Width: 864
VWidth: 0
Flags: HW
HStem: -4 157<356.32 508.56> 622 161<356.32 508.56>
VStem: 126.5 122<281.459 495.999> 615.5 122<278.943 498.503>
LayerCount: 2
Fore
SplineSet
615.5 388 m 0
 615.5 517 534.5 622 432.5 622 c 0
 330.5 622 248.5 517 248.5 388 c 0
 248.5 258 330.5 153 432.5 153 c 0
 534.5 153 615.5 258 615.5 388 c 0
737.5 390 m 0
 737.5 172 601.5 -4 432.5 -4 c 0
 263.5 -4 126.5 172 126.5 390 c 0
 126.5 607 263.5 783 432.5 783 c 0
 601.5 783 737.5 607 737.5 390 c 0
EndSplineSet
EndChar

StartChar: one
Encoding: 49 49 16
Width: 436
VWidth: 0
Flags: HW
HStem: 8 21G<234 386> 764 20G<234 386>
VStem: 234 152<8 784>
LayerCount: 2
Fore
SplineSet
158 497 m 1
 50 604 l 1
 232 786 l 1
 234.018554688 784 l 1
 386 784 l 1
 386 8 l 1
 234 8 l 1
 234 573 l 1
 158 497 l 1
EndSplineSet
EndChar

StartChar: two
Encoding: 50 50 17
Width: 555
VWidth: 0
Flags: HW
HStem: 10 226<58.0748 244.22> 596 128.801<58.0915 234.536>
VStem: 359 153<334.465 487.36>
LayerCount: 2
Fore
SplineSet
130 596 m 0
 104.4453125 596 79.9033203125 592.599609375 57 586.325195312 c 1
 57 719.06640625 l 1
 80.62890625 722.829101562 105.034179688 724.80078125 130 724.80078125 c 0
 341 724.80078125 512 584 512 410.400390625 c 0
 512 280.616210938 417.301757812 177.858398438 281.891601562 133.775390625 c 1
 557 136.400390625 l 1
 557 14.80078125 l 1
 54 10 l 1
 57 245.682617188 l 1
 79.9033203125 239.401367188 104.4453125 236 130 236 c 0
 257 236 359 304.80078125 359 408.80078125 c 0
 359 512 257 596 130 596 c 0
EndSplineSet
EndChar

StartChar: three
Encoding: 51 51 18
Width: 435
VWidth: 0
Flags: HW
HStem: 3.87988 122.31<50 177.642> 298.149 122.641<101.207 198.605> 592.75 122.311<56 180.704>
VStem: 234 151<169.615 264.202 454.41 549.831>
LayerCount: 2
Fore
SplineSet
50 4.9296875 m 1
 50 128.7265625 l 1
 58.326171875 127.068359375 67.0361328125 126.189453125 76 126.189453125 c 0
 164.59765625 126.189453125 234 164.260742188 234 212.049804688 c 0
 234 257.192382812 193.44921875 293.25 139.595703125 298.15234375 c 0
 135.422851562 297.991210938 131.223632812 297.91015625 127 297.91015625 c 0
 122.829101562 297.91015625 118.681640625 297.990234375 114.55859375 298.149414062 c 0
 109.943359375 297.72265625 105.41796875 297.061523438 101 296.1796875 c 1
 101 298.959960938 l 1
 101 419.979492188 l 1
 101 422.756835938 l 1
 105.41796875 421.876953125 109.943359375 421.216796875 114.557617188 420.790039062 c 0
 118.681640625 420.94921875 122.829101562 421.030273438 127 421.030273438 c 0
 131.224609375 421.030273438 135.423828125 420.948242188 139.59765625 420.787109375 c 0
 193.450195312 425.686523438 234 461.690429688 234 506.080078125 c 0
 234 554.6796875 167.233398438 592.75 82 592.75 c 0
 73.0361328125 592.75 64.326171875 591.87109375 56 590.209960938 c 1
 56 714.009765625 l 1
 64.5537109375 714.704101562 73.2265625 715.060546875 82 715.060546875 c 0
 249.94140625 715.060546875 385 621.91015625 385 506.080078125 c 0
 385 448.852539062 356.532226562 397.0390625 310.310546875 359.418945312 c 1
 356.532226562 321.696289062 385 269.680664062 385 212.049804688 c 0
 385 97.0302734375 247.267578125 3.8798828125 76 3.8798828125 c 0
 67.2265625 3.8798828125 58.5537109375 4.2353515625 50 4.9296875 c 1
EndSplineSet
EndChar

StartChar: four
Encoding: 52 52 19
Width: 752
VWidth: 0
Flags: HW
HStem: 201.015 150<287.765 385.765> 764 20G<368.718 522.766>
VStem: 385.765 137.001<351.015 531.015> 393.764 129.002<10 202.015>
LayerCount: 2
Fore
SplineSet
385.764648438 351.014648438 m 1
 385.764648438 531.014648438 l 1
 287.764648438 354.014648438 l 1
 385.764648438 351.014648438 l 1
393.763671875 10 m 1
 393.763671875 202.014648438 l 1
 392.764648438 201.014648438 l 1
 57.7646484375 201.014648438 l 1
 379.764648438 784 l 1
 522.765625 784 l 1
 522.765625 10 l 1
 393.763671875 10 l 1
EndSplineSet
EndChar

StartChar: five
Encoding: 53 53 20
Width: 384
VWidth: 0
Flags: HW
HStem: 13 151<50 140.529> 632 152<202 367>
VStem: 50 152<481.593 632> 183 151<206.066 335.061>
LayerCount: 2
Fore
SplineSet
50 14 m 1
 50 167 l 1
 58 165 67 164 76 164 c 0
 136 164 183 211 183 270 c 0
 183 330 136 377 76 377 c 0
 67 377 58 376 50 374 c 1
 50 407 l 1
 50 527 l 1
 50 783 l 1
 51 783 l 1
 51 784 l 1
 368 784 l 1
 367 632 l 1
 202 632 l 1
 202 495 l 1
 281 451 334 367 334 270 c 0
 334 128 219 13 76 13 c 0
 67 13 59 13 50 14 c 1
EndSplineSet
EndChar

StartChar: six
Encoding: 54 54 21
Width: 729
VWidth: 0
Flags: HW
HStem: 622 161<337.002 549.858>
VStem: 50 224<261.187 334.857> 492 167<205.982 333.016>
LayerCount: 2
Fore
SplineSet
382.955078125 376.982421875 m 0
 374.642578125 377.12890625 366.393554688 375.848632812 359 374 c 1
 359 374.828125 l 1
 309.8984375 364.9453125 274 322.4375 274 270 c 0
 274 234.543945312 290.973632812 203.420898438 317.541992188 184.228515625 c 0
 327.942382812 178.08203125 338.862304688 172.750976562 350.22265625 168.317382812 c 0
 353.096679688 167.485351562 356.024414062 166.767578125 359 166.169921875 c 1
 359 167 l 1
 366.393554688 165.151367188 374.642578125 164.157226562 382.955078125 164.017578125 c 0
 391.23046875 164.163085938 399.280273438 165.234375 407 167.131835938 c 1
 407 166.169921875 l 1
 456.1015625 176.0390625 492 218.436523438 492 270 c 0
 492 322.4375 456.1015625 364.9453125 407 374.828125 c 1
 407 373.864257812 l 1
 399.280273438 375.765625 391.23046875 376.836914062 382.955078125 376.982421875 c 0
432 622 m 0
 317.669921875 622 223.6015625 536.90625 205.969726562 425.8125 c 1
 249.354492188 473.500976562 310.4609375 504.749023438 379.12890625 509.397460938 c 0
 384.006835938 509.727539062 388.66015625 509.930664062 393.451171875 509.9765625 c 0
 394.631835938 509.98828125 395.815429688 510 397 510 c 0
 397.301757812 510 397.603515625 509.999023438 397.905273438 509.998046875 c 0
 398.92578125 510 399.956054688 510 401 510 c 0
 524.041992188 510 626.35546875 424.859375 652.516601562 310 c 0
 656.759765625 291.370117188 659 271.958007812 659 252 c 0
 659 224.854492188 654.797851562 198.6953125 647 174.138671875 c 0
 627.598632812 113.034179688 585.939453125 61.8447265625 531.387695312 30.041015625 c 0
 499.198242188 7.6923828125 465.973632812 -4 432 -4 c 0
 429.5859375 -4 427.176757812 -3.9765625 424.772460938 -3.9306640625 c 0
 416.946289062 -4.638671875 409.017578125 -5 401 -5 c 0
 399.956054688 -5 398.92578125 -4.998046875 397.90625 -4.998046875 c 0
 397.604492188 -4.998046875 397.301757812 -5 397 -5 c 0
 395.815429688 -5 394.631835938 -4.9921875 393.451171875 -4.9765625 c 0
 388.662109375 -4.9130859375 384.004882812 -4.794921875 379.133789062 -4.3974609375 c 0
 325.603515625 -0.0244140625 276.633789062 19.9453125 237.079101562 50.984375 c 1
 125.05859375 119.575195312 50 245.5703125 50 390 c 0
 50 607 221 783 432 783 c 0
 456.965820312 783 527.37109375 780.536132812 551 775.83203125 c 1
 551 609.90625 l 1
 528.096679688 617.749023438 457.5546875 622 432 622 c 0
EndSplineSet
EndChar

StartChar: seven
Encoding: 55 55 22
Width: 610
VWidth: 0
Flags: HW
HStem: 620 152<50 389>
LayerCount: 2
Fore
SplineSet
213 10 m 1
 51 10 l 1
 389 620 l 1
 50 620 l 1
 50 772 l 1
 560 772 l 1
 560 620 l 1
 213 10 l 1
EndSplineSet
EndChar

StartChar: eight
Encoding: 56 56 23
Width: 616
VWidth: 0
Flags: HW
HStem: 376.983 92.0348<286.347 333.638>
VStem: 50 151<207.14 334.826 510.772 638.449> 419 151<205.844 334.826 510.772 639.753>
LayerCount: 2
Fore
SplineSet
309.037109375 13.201171875 m 0
 308.771484375 13.201171875 308.505859375 13.2001953125 308.240234375 13.2001953125 c 0
 307.197265625 13.2001953125 306.15625 13.2060546875 305.116210938 13.220703125 c 0
 300.90234375 13.2607421875 296.8046875 13.380859375 292.518554688 13.7294921875 c 0
 174.077148438 21.744140625 81.2001953125 119.6484375 81.2001953125 239.359375 c 0
 81.2001953125 289.814453125 97.4677734375 336.307617188 125.0703125 373.905273438 c 1
 97.4677734375 411.375976562 81.2001953125 457.659179688 81.2001953125 507.759765625 c 0
 81.2001953125 628.3125 174.075195312 726.250976562 292.513671875 734.26953125 c 0
 296.801757812 734.619140625 300.901367188 734.73828125 305.116210938 734.779296875 c 0
 306.15625 734.793945312 307.197265625 734.799804688 308.240234375 734.799804688 c 0
 308.505859375 734.799804688 308.771484375 734.798828125 309.036132812 734.797851562 c 0
 309.934570312 734.799804688 310.840820312 734.799804688 311.759765625 734.799804688 c 0
 437.599609375 734.799804688 538.799804688 633.599609375 538.799804688 507.759765625 c 0
 538.799804688 457.659179688 522.532226562 411.375976562 494.9296875 373.905273438 c 1
 522.532226562 336.307617188 538.799804688 289.814453125 538.799804688 239.359375 c 0
 538.799804688 114.400390625 437.599609375 13.2001953125 311.759765625 13.2001953125 c 0
 310.840820312 13.2001953125 309.934570312 13.201171875 309.037109375 13.201171875 c 0
309.959960938 601.904296875 m 0
 302.64453125 601.78125 295.38671875 600.907226562 288.879882812 599.279296875 c 1
 288.879882812 600.008789062 l 1
 245.669921875 591.3125 214.080078125 553.904296875 214.080078125 507.759765625 c 0
 214.080078125 462.384765625 245.669921875 425.075195312 288.879882812 416.389648438 c 1
 288.879882812 417.120117188 l 1
 295.38671875 415.493164062 302.64453125 414.618164062 309.959960938 414.49609375 c 0
 317.2421875 414.624023438 324.327148438 415.565429688 331.120117188 417.236328125 c 1
 331.120117188 416.389648438 l 1
 374.330078125 425.075195312 405.919921875 462.384765625 405.919921875 507.759765625 c 0
 405.919921875 553.904296875 374.330078125 591.3125 331.120117188 600.008789062 c 1
 331.120117188 599.16015625 l 1
 324.327148438 600.833984375 317.2421875 601.776367188 309.959960938 601.904296875 c 0
309.959960938 333.504882812 m 0
 302.64453125 333.381835938 295.38671875 332.505859375 288.879882812 330.879882812 c 1
 288.879882812 331.609375 l 1
 245.669921875 322.912109375 214.080078125 285.504882812 214.080078125 239.359375 c 0
 214.080078125 193.984375 245.669921875 156.673828125 288.879882812 147.990234375 c 1
 288.879882812 148.720703125 l 1
 295.38671875 147.09375 302.64453125 146.21875 309.959960938 146.094726562 c 0
 317.243164062 146.223632812 324.327148438 147.166015625 331.120117188 148.8359375 c 1
 331.120117188 147.990234375 l 1
 374.330078125 156.673828125 405.919921875 193.984375 405.919921875 239.359375 c 0
 405.919921875 285.504882812 374.330078125 322.912109375 331.120117188 331.609375 c 1
 331.120117188 330.760742188 l 1
 324.327148438 332.434570312 317.243164062 333.375976562 309.959960938 333.504882812 c 0
EndSplineSet
EndChar

StartChar: nine
Encoding: 57 57 24
Width: 729
VWidth: 0
Flags: HW
HStem: -5 161<159.125 372.237> 763 20G<303.991 308.522 311.849 312.592>
VStem: 50 167<444.984 572.018> 435 224<279.5 518.141>
LayerCount: 2
Fore
SplineSet
326.044921875 401.017578125 m 0
 334.357421875 400.87109375 342.606445312 402.151367188 350 404 c 1
 350 403.171875 l 1
 399.1015625 413.0546875 435 455.5625 435 508 c 0
 435 543.456054688 418.026367188 574.579101562 391.458007812 593.771484375 c 0
 381.057617188 599.91796875 370.137695312 605.249023438 358.77734375 609.682617188 c 0
 355.903320312 610.514648438 352.975585938 611.232421875 350 611.830078125 c 1
 350 611 l 1
 342.606445312 612.848632812 334.357421875 613.842773438 326.044921875 613.982421875 c 0
 317.76953125 613.836914062 309.719726562 612.765625 302 610.868164062 c 1
 302 611.830078125 l 1
 252.8984375 601.9609375 217 559.563476562 217 508 c 0
 217 455.5625 252.8984375 413.0546875 302 403.171875 c 1
 302 404.135742188 l 1
 309.719726562 402.234375 317.76953125 401.163085938 326.044921875 401.017578125 c 0
277 156 m 0
 391.330078125 156 485.3984375 241.09375 503.030273438 352.1875 c 1
 459.645507812 304.499023438 398.5390625 273.250976562 329.87109375 268.602539062 c 0
 324.993164062 268.272460938 320.33984375 268.069335938 315.548828125 268.0234375 c 0
 314.368164062 268.01171875 313.184570312 268 312 268 c 0
 311.698242188 268 311.396484375 268.000976562 311.094726562 268.001953125 c 0
 310.07421875 268 309.043945312 268 308 268 c 0
 184.958007812 268 82.64453125 353.140625 56.4833984375 468 c 0
 52.240234375 486.629882812 50 506.041992188 50 526 c 0
 50 553.145507812 54.2021484375 579.3046875 62 603.861328125 c 0
 81.4013671875 664.965820312 123.060546875 716.155273438 177.612304688 747.958984375 c 0
 209.801757812 770.307617188 243.026367188 782 277 782 c 0
 279.4140625 782 281.823242188 781.9765625 284.227539062 781.930664062 c 0
 292.053710938 782.638671875 299.982421875 783 308 783 c 0
 309.043945312 783 310.07421875 782.998046875 311.09375 782.998046875 c 0
 311.395507812 782.998046875 311.698242188 783 312 783 c 0
 313.184570312 783 314.368164062 782.9921875 315.548828125 782.9765625 c 0
 320.337890625 782.913085938 324.995117188 782.794921875 329.866210938 782.397460938 c 0
 383.396484375 778.024414062 432.366210938 758.0546875 471.920898438 727.015625 c 1
 583.94140625 658.424804688 659 532.4296875 659 388 c 0
 659 171 488 -5 277 -5 c 0
 252.034179688 -5 181.62890625 -2.5361328125 158 2.16796875 c 1
 158 168.09375 l 1
 180.903320312 160.250976562 251.4453125 156 277 156 c 0
EndSplineSet
EndChar

StartChar: colon
Encoding: 58 58 25
Width: 252
VWidth: 0
Flags: HW
HStem: 8 142<50 202> 408 142<50 202>
VStem: 50 152<8 150 408 550>
LayerCount: 2
Fore
SplineSet
50 8 m 1
 50 150 l 1
 202 150 l 1
 202 8 l 1
 50 8 l 1
50 408 m 1
 50 550 l 1
 202 550 l 1
 202 408 l 1
 50 408 l 1
EndSplineSet
EndChar

StartChar: semicolon
Encoding: 59 59 26
Width: 252
VWidth: 0
Flags: HW
HStem: 408 142<50 202>
VStem: 50 152<8 150 408 550>
LayerCount: 2
Fore
SplineSet
50 408 m 1
 50 550 l 1
 202 550 l 1
 202 408 l 1
 50 408 l 1
50 8 m 1
 50 150 l 1
 202 150 l 1
 202 8 l 1
 142 -124 l 1
 84 -120 l 1
 92.767578125 8 l 1
 50 8 l 1
EndSplineSet
EndChar

StartChar: less
Encoding: 60 60 27
Width: 644
VWidth: 0
Flags: HW
LayerCount: 2
Fore
SplineSet
594 556 m 1
 594 404 l 1
 379.895507812 347.71875 l 1
 594 306 l 1
 594 154 l 1
 50 260 l 1
 50 261 l 1
 50 412 l 1
 50 413 l 1
 594 556 l 1
EndSplineSet
EndChar

StartChar: equal
Encoding: 61 61 28
Width: 644
VWidth: 0
Flags: HW
HStem: 154 152<50 594> 404 152<50 594>
LayerCount: 2
Fore
SplineSet
594 556 m 1
 594 404 l 1
 50 404 l 1
 50 556 l 1
 594 556 l 1
594 306 m 1
 594 154 l 1
 50 154 l 1
 50 306 l 1
 594 306 l 1
EndSplineSet
EndChar

StartChar: greater
Encoding: 62 62 29
Width: 644
VWidth: 0
Flags: HW
LayerCount: 2
Fore
SplineSet
50 556 m 1
 594 413 l 1
 594 412 l 1
 594 261 l 1
 594 260 l 1
 50 154 l 1
 50 306 l 1
 264 348 l 1
 50 404 l 1
 50 556 l 1
EndSplineSet
EndChar

StartChar: question
Encoding: 63 63 30
Width: 384
VWidth: 0
Flags: HW
HStem: 8 142<50 202> 240 238<50 144.438> 688 151<50 140.529>
VStem: 50 152<8 150 240 369.991> 183 151<518.983 645.934>
LayerCount: 2
Fore
SplineSet
50 838 m 1
 59 839 67 839 76 839 c 0
 219 839 334 724 334 582 c 0
 334 484.831054688 280.901367188 400.58984375 202 356.573242188 c 1
 202 240 l 1
 50 240 l 1
 50 325 l 1
 50 450 l 1
 50 478 l 1
 58 476 67 475 76 475 c 0
 136 475 183 522 183 582 c 0
 183 641 136 688 76 688 c 0
 67 688 58 687 50 685 c 1
 50 838 l 1
50 8 m 1
 50 150 l 1
 202 150 l 1
 202 8 l 1
 50 8 l 1
EndSplineSet
EndChar

StartChar: at
Encoding: 64 64 31
Width: 864
VWidth: 0
Flags: HW
HStem: 249 75<431.227 473> 431 71<431.227 485>
VStem: 343 76<335.505 419.715> 485 83.0107<325.318 431> 485 76<328.62 431>
LayerCount: 2
Fore
SplineSet
561 246 m 1025xe8
524 176 m 1025xe0
487 238 m 1
 473 249 l 1
 401 249 343 306 343 378 c 0
 343 449 401 502 473 502 c 0
 477 502 481 502 485 502 c 2
 561 502 l 1
 568.010742188 328.353515625 l 2
 572.831054688 297.021484375 653.69921875 229.975585938 662 336 c 0
 661.986328125 337.467773438 657.7578125 350.56640625 658 352 c 0
 670 423 649 497 595 551 c 0
 505 641 359 638 268 547 c 0
 176 455 174 309 264 219 c 0
 334 149 438 135 524 176 c 0
 548 187 637 64 637 64 c 1
 485 -36 283 -22 153 108 c 0
 4 257 7 503 161 657 c 0
 314 810 560 814 709 665 c 0
 823 551 850 372 787 230 c 1
 679.654296875 167.57421875 584.088867188 209.5390625 487 238 c 1
485 430 m 1
 481 431 477 431 473 431 c 0
 443 431 419 408 419 378 c 0
 419 348 443 324 473 324 c 0
 477 324 481 325 485 326 c 1
 485 430 l 1
EndSplineSet
EndChar

StartChar: A
Encoding: 65 65 32
Width: 752
VWidth: 0
Flags: HW
HStem: 237 140<297.449 406.827>
LayerCount: 2
Fore
SplineSet
406.827148438 377 m 1
 357.200195312 545.223632812 l 1
 297.448242188 377 l 1
 406.827148438 377 l 1
550 10 m 1
 461 238.13671875 l 1
 461 237 l 1
 261.038085938 237 l 1
 202 10 l 1
 50 10 l 1
 266 779 l 1
 418 779 l 1
 702 10 l 1
 550 10 l 1
EndSplineSet
EndChar

StartChar: B
Encoding: 66 66 33
Width: 512
VWidth: 0
Flags: HW
HStem: 14 129<202.375 290.409> 356 105<202.375 290.409> 674 116<202.375 290.409>
VStem: 50 152<143.026 355.974 461.026 673.974 789.664 790> 333 151<186.465 313.767 502.806 620.788>
LayerCount: 2
Fore
SplineSet
202 464 m 1
 210 462 218 461 226 461 c 0
 286 461 333 508 333 567 c 0
 333 627 286 674 226 674 c 0
 218 674 210 673 202 671 c 1
 202 464 l 1
202 146 m 1
 210 144 218 143 226 143 c 0
 286 143 333 190 333 249 c 0
 333 309 286 356 226 356 c 0
 218 356 210 355 202 353 c 1
 202 146 l 1
202 790 m 1
 202 789.6640625 l 1
 207.96484375 790 213.740234375 790 220 790 c 0
 363 790 478 675 478 532 c 0
 478 481.500976562 420 439 395 406 c 1
 424 371 484 324.768554688 484 270 c 0
 484 128 369 13 226 13 c 0
 218 13 210 13 202 14 c 2
 50 14 l 1
 50 790 l 1
 202 790 l 1
EndSplineSet
EndChar

StartChar: C
Encoding: 67 67 34
Width: 555
VWidth: 0
Flags: HW
HStem: -4 157<337.027 503.909> 622 161<337.027 503.909>
VStem: 50 153<291.299 486.2>
LayerCount: 2
Fore
SplineSet
432 622 m 0
 305 622 203 517 203 388 c 0
 203 258 305 153 432 153 c 0
 457.5546875 153 482.096679688 157.250976562 505 165.102539062 c 1
 505 3.169921875 l 1
 481.37109375 -1.5361328125 456.965820312 -4 432 -4 c 0
 221 -4 50 172 50 390 c 0
 50 607 221 783 432 783 c 0
 456.965820312 783 481.37109375 780.536132812 505 775.83203125 c 1
 505 609.90625 l 1
 482.096679688 617.749023438 457.5546875 622 432 622 c 0
EndSplineSet
EndChar

StartChar: D
Encoding: 68 68 35
Width: 630
VWidth: 0
Flags: HW
HStem: -3.9789 157.014<202 287.489> 621.965 161.035<202 293.477>
VStem: 50 152<-4 -3.9789 153.035 621.965> 427 153<292.064 485.736>
LayerCount: 2
Fore
SplineSet
202 153.03515625 m 1
 327.134765625 155.211914062 427 259.368164062 427 388 c 0
 427 515.642578125 327.134765625 619.788085938 202 621.96484375 c 1
 202 153.03515625 l 1
50 778 m 1
 99.62109375 770.911132812 148.3828125 783 198 783 c 0
 409 783 580 607 580 390 c 0
 580 173.37890625 411.157226562 -1.771484375 202 -3.978515625 c 2
 50 -4 l 1
 50 778 l 1
EndSplineSet
EndChar

StartChar: E
Encoding: 69 69 36
Width: 668
VWidth: 0
Flags: HW
HStem: 7 152<202 617> 343 152<202 509> 636 152<202 617>
VStem: 50 568<7 159 636 788> 50 152<159 343 495 636>
LayerCount: 2
Fore
SplineSet
509 495 m 1
 510 343 l 1
 202 343 l 1
 202 159 l 1
 617 159 l 1
 618 7 l 1
 51 7 l 1
 50.9931640625 8 l 1
 50 8 l 1
 50 784 l 1
 50.0263671875 784 l 1
 50 788 l 1
 617 788 l 1
 618 636 l 1
 202 636 l 1
 202 495 l 1
 509 495 l 1
EndSplineSet
EndChar

StartChar: F
Encoding: 70 70 37
Width: 668
VWidth: 0
Flags: HW
HStem: 8 21G<50 202> 343 152<202 509> 636 152<202 617>
VStem: 50 152<8 343 495 636>
LayerCount: 2
Fore
SplineSet
509 495 m 1
 510 343 l 1
 202 343 l 1
 202 8 l 1
 50 8 l 1
 50 784 l 1
 50.0263671875 784 l 1
 50 788 l 1
 617 788 l 1
 618 636 l 1
 202 636 l 1
 202 495 l 1
 509 495 l 1
EndSplineSet
EndChar

StartChar: G
Encoding: 71 71 38
Width: 651
VWidth: 0
Flags: HW
HStem: -4 157<337.532 449> 622 161<337.027 503.909>
VStem: 50 153<291.299 486.2> 449 152<-4 -3.6178 153 323>
LayerCount: 2
Fore
SplineSet
432 622 m 0
 305 622 203 517 203 388 c 0
 203 258 305 153 432 153 c 0
 437.719726562 153 443.388671875 153.212890625 449 153.631835938 c 1
 449 323 l 1
 601 323 l 1
 601 -4 l 1
 449 -4 l 1
 449 -3.6181640625 l 1
 443.364257812 -3.8720703125 437.696289062 -4 432 -4 c 0
 221 -4 50 172 50 390 c 0
 50 607 221 783 432 783 c 0
 456.965820312 783 481.37109375 780.536132812 505 775.83203125 c 1
 505 609.90625 l 1
 482.096679688 617.749023438 457.5546875 622 432 622 c 0
EndSplineSet
EndChar

StartChar: H
Encoding: 72 72 39
Width: 652
VWidth: 0
Flags: HW
HStem: 8 21G<50 202 450 602> 343 152<202 450> 764 20G<50 202 450 602>
VStem: 50 152<8 343 495 784> 450 152<8 343 495 784>
LayerCount: 2
Fore
SplineSet
450 784 m 1
 602 784 l 1
 602 8 l 1
 450 8 l 1
 450 343 l 1
 202 343 l 1
 202 8 l 1
 50 8 l 1
 50 784 l 1
 202 784 l 1
 202 495 l 1
 450 495 l 1
 450 784 l 1
EndSplineSet
EndChar

StartChar: I
Encoding: 73 73 40
Width: 252
VWidth: 0
Flags: HW
HStem: 8 21G<50 202> 764 20G<50 202>
VStem: 50 152<8 784>
LayerCount: 2
Fore
SplineSet
50 784 m 1
 202 784 l 1
 202 8 l 1
 50 8 l 1
 50 784 l 1
EndSplineSet
EndChar

StartChar: J
Encoding: 74 74 41
Width: 419
VWidth: 0
Flags: HW
HStem: 7 151<55.4451 185.159> 751 20G<202 369>
VStem: 202 164<178.881 771>
LayerCount: 2
Fore
SplineSet
50 16 m 1
 50 184 l 1
 69 168 94 158 121 158 c 0
 154 158 182 172 202 195 c 1
 202 771 l 1
 369 771 l 1
 366 194 l 1
 335 85 239 7 121 7 c 0
 96 7 73 10 50 16 c 1
EndSplineSet
EndChar

StartChar: K
Encoding: 75 75 42
Width: 703
VWidth: 0
Flags: HW
HStem: 8 20G<50 202 511 686.026> 764 20G<50 202>
VStem: 50 152<8 228.505 442.895 784>
LayerCount: 2
Fore
SplineSet
50 784 m 1
 202 784 l 1
 202 442.89453125 l 1
 447 780 l 1
 633 778 l 1
 372 397 l 1
 703 7 l 1
 511 8 l 1
 259.208007812 311.887695312 l 1
 202 228.504882812 l 1
 202 8 l 1
 50 8 l 1
 50 784 l 1
EndSplineSet
EndChar

StartChar: L
Encoding: 76 76 43
Width: 718
VWidth: 0
Flags: HW
HStem: 7 152<202 667> 764 20G<50 202>
VStem: 50 152<159 784>
LayerCount: 2
Fore
SplineSet
50 784 m 1
 202 784 l 1
 202 159 l 1
 667 159 l 1
 668 7 l 1
 51 7 l 1
 50.9931640625 8 l 1
 50 8 l 1
 50 784 l 1
EndSplineSet
EndChar

StartChar: M
Encoding: 77 77 44
Width: 1052
VWidth: 0
Flags: HW
HStem: 8 21G<50 202 850 1002>
VStem: 50 152<8 486.16> 850 152<8 486.16>
LayerCount: 2
Fore
SplineSet
50 778 m 1
 202 778 l 1
 526 155.919921875 l 1
 850 778 l 1
 1002 778 l 1
 1002 8 l 1
 850 8 l 1
 850 486.16015625 l 1
 602 10 l 1
 450 10 l 1
 202 486.16015625 l 1
 202 8 l 1
 50 8 l 1
 50 778 l 1
EndSplineSet
EndChar

StartChar: N
Encoding: 78 78 45
Width: 852
VWidth: 0
Flags: HW
HStem: 8 21G<50 202 632.937 802> 764 20G<50 219.116 650 802>
VStem: 50 152<8 533.101> 650 152<260.522 784>
LayerCount: 2
Fore
SplineSet
50 784 m 1
 202 784 l 1
 650 260.521484375 l 1
 650 784 l 1
 802 784 l 1
 802 8 l 1
 650 8 l 1
 202 533.1015625 l 1
 202 8 l 1
 50 8 l 1
 50 784 l 1
EndSplineSet
EndChar

StartChar: O
Encoding: 79 79 46
Width: 864
VWidth: 0
Flags: HW
HStem: -4 157<337.027 526.973> 622 161<337.027 526.973>
VStem: 50 153<288.712 488.774> 661 153<288.712 488.774>
LayerCount: 2
Fore
SplineSet
661 388 m 0
 661 517 559 622 432 622 c 0
 305 622 203 517 203 388 c 0
 203 258 305 153 432 153 c 0
 559 153 661 258 661 388 c 0
814 390 m 0
 814 172 643 -4 432 -4 c 0
 221 -4 50 172 50 390 c 0
 50 607 221 783 432 783 c 0
 643 783 814 607 814 390 c 0
EndSplineSet
EndChar

StartChar: P
Encoding: 80 80 47
Width: 534
VWidth: 0
Flags: HW
HStem: 275 151<202 290.529> 639 150<202.375 290.409>
VStem: 50 152<13 276 426.026 638.974> 333 151<468.471 596.934>
LayerCount: 2
Fore
SplineSet
202 636 m 1
 202 429 l 1
 210 427 218 426 226 426 c 0
 286 426 333 473 333 533 c 0
 333 592 286 639 226 639 c 0
 218 639 210 638 202 636 c 1
202 13 m 1
 50 13 l 1
 50 789 l 1
 202 789 l 2
 210 790 218 790 226 790 c 0
 369 790 484 675 484 533 c 0
 484 390 369 275 226 275 c 0
 218 275 210 275 202 276 c 1
 202 13 l 1
EndSplineSet
EndChar

StartChar: Q
Encoding: 81 81 48
Width: 864
VWidth: 0
Flags: HW
HStem: -4 157<337.027 513.045> 622 161<337.027 526.973>
VStem: 50 153<291.299 486.2> 661 153<290.102 486.2>
LayerCount: 2
Fore
SplineSet
814 390 m 0
 814 272.352539062 764.198242188 166.9375 685.18359375 94.81640625 c 1
 822 -42 l 1
 684 -181 l 1
 500.666015625 2.333984375 l 1
 478.390625 -1.8271484375 455.442382812 -4 432 -4 c 0
 221 -4 50 172 50 390 c 0
 50 607 221 783 432 783 c 0
 643 783 814 607 814 390 c 0
661 388 m 0
 661 517 559 622 432 622 c 0
 305 622 203 517 203 388 c 0
 203 258 305 153 432 153 c 0
 559 153 661 258 661 388 c 0
EndSplineSet
EndChar

StartChar: R
Encoding: 82 82 49
Width: 512
VWidth: 0
Flags: HW
HStem: 7 21G<359.703 512> 639 150<202.375 290.409>
VStem: 50 152<13 276 426.026 638.974> 333 151<470.25 596.934>
LayerCount: 2
Fore
SplineSet
202 13 m 1
 50 13 l 1
 50 789 l 1
 202 789 l 2
 210 790 218 790 226 790 c 0
 369 790 484 675 484 533 c 0
 484 420.658203125 413.024414062 325.596679688 313.254882812 290 c 1
 512 7 l 1
 372 7 l 1
 206.913085938 275.502929688 l 2
 205.275390625 275.6328125 203.637695312 275.794921875 202 276 c 1
 202 13 l 1
202 636 m 1
 202 429 l 1
 210 427 218 426 226 426 c 0
 286 426 333 473 333 533 c 0
 333 592 286 639 226 639 c 0
 218 639 210 638 202 636 c 1
EndSplineSet
EndChar

StartChar: S
Encoding: 83 83 50
Width: 512
VWidth: 0
Flags: HW
LayerCount: 2
Fore
SplineSet
55 67 m 1
 130 192 l 1
 136 187 142 182 152 177 c 0
 203 147 267 164 297 212 c 0
 329 268 279 316 227 325 c 1
 101 393 17 508 101 649 c 0
 171 765 328 804 453 737 c 0
 459 731 467 728 474 722 c 1
 399 597 l 1
 393 602 387 607 377 612 c 0
 326 640 262 624 232 575 c 0
 199 520 232 439 296 428 c 1
 413 365 512 280 427 140 c 0
 358 23 201 -16 76 52 c 0
 70 58 62 61 55 67 c 1
EndSplineSet
EndChar

StartChar: T
Encoding: 84 84 51
Width: 676
VWidth: 0
Flags: HW
HStem: 8 21G<265 417> 624 152<53 265 417 629>
VStem: 265 152<8 624>
LayerCount: 2
Fore
SplineSet
53 624 m 1
 53 776 l 1
 629 776 l 1
 629 624 l 1
 417 624 l 1
 417 8 l 1
 265 8 l 1
 265 624 l 1
 53 624 l 1
EndSplineSet
EndChar

StartChar: U
Encoding: 85 85 52
Width: 669
VWidth: 0
Flags: HW
HStem: 751 20G<50 217 452 619>
VStem: 53 164<182.77 771> 452 164<182.95 771>
LayerCount: 2
Fore
SplineSet
616 194 m 1
 547.931640625 -45.4130859375 122.236328125 -49.4453125 53 194 c 1
 50 771 l 1
 217 771 l 1
 217 195 l 1
 255.237304688 151.02734375 414.430664062 149.916992188 452 195 c 1
 452 771 l 1
 619 771 l 1
 616 194 l 1
EndSplineSet
EndChar

StartChar: V
Encoding: 86 86 53
Width: 652
VWidth: 0
Flags: HW
LayerCount: 2
Fore
SplineSet
50 779 m 1
 202 779 l 1
 326 302.219726562 l 1
 450 779 l 1
 602 779 l 1
 402 10 l 1
 250 10 l 1
 50 779 l 1
EndSplineSet
EndChar

StartChar: W
Encoding: 87 87 54
Width: 1000
VWidth: 0
Flags: HW
LayerCount: 2
Fore
SplineSet
50 779 m 1
 202 779 l 1
 326 302.219726562 l 1
 450 779 l 1
 451 779 l 1
 602 779 l 1
 603 779 l 1
 727 302 l 1
 851 779 l 1
 1003 779 l 1
 803 10 l 1
 651 10 l 1
 526.5 488.702148438 l 1
 402 10 l 1
 250 10 l 1
 50 779 l 1
EndSplineSet
EndChar

StartChar: X
Encoding: 88 88 55
Width: 724
VWidth: 0
Flags: HW
HStem: 9 20G<62.6104 229 487.368 674>
LayerCount: 2
Fore
SplineSet
50 780 m 1
 236 778 l 1
 365.55078125 550.842773438 l 1
 498 779 l 1
 673 778 l 1
 452.728515625 397.982421875 l 1
 674 10 l 1
 499 8 l 1
 362.609375 242.506835938 l 1
 229 12 l 1
 51 9 l 1
 274.5 394 l 1
 50 780 l 1
EndSplineSet
EndChar

StartChar: Y
Encoding: 89 89 56
Width: 512
VWidth: 0
Flags: HW
VStem: 193 152<11 460>
LayerCount: 2
Fore
SplineSet
193 461 m 1
 193.365234375 461 l 1
 -6 775 l 1
 146 775 l 1
 270 604 l 1
 394 775 l 1
 546 775 l 1
 346 460 l 1
 345 460 l 1
 345 11 l 1
 193 11 l 1
 193 461 l 1
EndSplineSet
EndChar

StartChar: Z
Encoding: 90 90 57
Width: 783
VWidth: 0
Flags: HW
HStem: 20 152<301 733> 620 152<50 480>
LayerCount: 2
Fore
SplineSet
50 20 m 1
 50 172 l 1
 480 620 l 1
 50 620 l 1
 50 772 l 1
 733 772 l 1
 733 620 l 1
 301 172 l 1
 733 172 l 1
 733 20 l 1
 50 20 l 1
EndSplineSet
EndChar

StartChar: bracketleft
Encoding: 91 91 58
Width: 362
VWidth: 0
Flags: HW
HStem: -70 85<144 311> 699 85<144 311>
VStem: 50 262<-70 15 699 784> 50 94<15 699>
LayerCount: 2
Fore
SplineSet
51 -70 m 1
 50 -70 l 1
 50 -69 l 1
 50 783 l 1
 50 784 l 1
 51 784 l 1
 312 784 l 1
 311 699 l 1
 144 699 l 1
 144 15 l 1
 311 15 l 1
 312 -70 l 1
 51 -70 l 1
EndSplineSet
EndChar

StartChar: backslash
Encoding: 92 92 59
Width: 691
VWidth: 0
Flags: HW
LayerCount: 2
Fore
SplineSet
156 828 m 1
 641 -12 l 1
 535 -73 l 1
 50 767 l 1
 156 828 l 1
EndSplineSet
EndChar

StartChar: bracketright
Encoding: 93 93 60
Width: 362
VWidth: 0
Flags: HW
HStem: -71 85<51 218> 699 85<51 218>
VStem: 50 262<-71 14 699 784> 218 94<14 699>
LayerCount: 2
Fore
SplineSet
311 -71 m 1
 50 -71 l 1
 51 14 l 1
 218 14 l 1
 218 699 l 1
 51 699 l 1
 50 784 l 1
 311 784 l 1
 312 784 l 1
 312 783 l 1
 312 -70 l 1
 312 -71 l 1
 311 -71 l 1
EndSplineSet
EndChar

StartChar: asciicircum
Encoding: 94 94 61
Width: 644
VWidth: 0
Flags: HW
LayerCount: 2
Fore
SplineSet
121 293 m 1
 264 627 l 1
 265 627 l 1
 416 627 l 1
 417 627 l 1
 523 293 l 1
 371 293 l 1
 329 507 l 1
 273 293 l 1
 121 293 l 1
EndSplineSet
EndChar

StartChar: underscore
Encoding: 95 95 62
Width: 544
VWidth: 0
Flags: HW
HStem: 54 152<0 544>
LayerCount: 2
Fore
SplineSet
544 206 m 1
 544 54 l 1
 0 54 l 1
 0 206 l 1
 544 206 l 1
EndSplineSet
EndChar

StartChar: grave
Encoding: 96 96 63
Width: 252
VWidth: 0
Flags: HW
HStem: 526 289
VStem: -19 290
LayerCount: 2
Fore
SplineSet
163 526 m 1
 -19 708 l 1
 89 815 l 1
 271 633 l 1
 163 526 l 1
EndSplineSet
EndChar

StartChar: a
Encoding: 97 97 64
Width: 512
VWidth: 0
Flags: HW
HStem: 18 151<243.471 332> 382 143<243.351 331.625>
VStem: 50 151<211.471 339.671> 332 152<11 19 169.012 381.988>
LayerCount: 2
Fore
SplineSet
332 379 m 1
 324 381 316 382 308 382 c 0
 248 382 201 335 201 276 c 0
 201 216 248 169 308 169 c 0
 316 169 324 170 332 172 c 1
 332 379 l 1
332 11 m 1
 332 19 l 1
 324 18 316 18 308 18 c 0
 165 18 50 133 50 276 c 0
 50 418 165 525 308 525 c 0
 316 525 324 525 332 524 c 2
 484 524 l 1
 484 11 l 1
 332 11 l 1
EndSplineSet
EndChar

StartChar: b
Encoding: 98 98 65
Width: 512
VWidth: 0
Flags: HW
HStem: 14 150<202.375 290.649> 377 151<202 290.529>
VStem: 50 152<164.012 376.988 527 790> 333 151<206.066 334.529>
LayerCount: 2
Fore
SplineSet
202 167 m 1
 210 165 218 164 226 164 c 0
 286 164 333 211 333 270 c 0
 333 330 286 377 226 377 c 0
 218 377 210 376 202 374 c 1
 202 167 l 1
202 790 m 1
 202 527 l 1
 210 528 218 528 226 528 c 0
 369 528 484 413 484 270 c 0
 484 128 369 13 226 13 c 0
 218 13 210 13 202 14 c 2
 50 14 l 1
 50 790 l 1
 202 790 l 1
EndSplineSet
EndChar

StartChar: c
Encoding: 99 99 66
Width: 384
VWidth: 0
Flags: HW
HStem: 13 151<243.471 334> 377 151<243.471 334>
VStem: 50 151<206.066 334.529>
LayerCount: 2
Fore
SplineSet
334 14.2958984375 m 1
 325.446289062 13.4384765625 316.7734375 13 308 13 c 0
 165 13 50 128 50 270 c 0
 50 413 165 528 308 528 c 0
 316.7734375 528 325.446289062 527.560546875 334 526.704101562 c 1
 334 373.864257812 l 1
 325.673828125 375.915039062 316.963867188 377 308 377 c 0
 248 377 201 330 201 270 c 0
 201 211 248 164 308 164 c 0
 316.963867188 164 325.673828125 165.084960938 334 167.131835938 c 1
 334 14.2958984375 l 1
EndSplineSet
EndChar

StartChar: d
Encoding: 100 100 67
Width: 512
VWidth: 0
Flags: HW
HStem: 13 151<242.454 332> 377 151<243.471 332>
VStem: 50 151<206.066 334.529> 332 152<14 14.1035 164.011 376.989 526.896 790>
LayerCount: 2
Fore
SplineSet
332 166.66015625 m 1
 332 374.336914062 l 1
 324.282226562 376.081054688 316.249023438 377 308 377 c 0
 248 377 201 330 201 270 c 0
 201 211 248 164 308 164 c 0
 316.249023438 164 324.282226562 164.918945312 332 166.66015625 c 1
332 790 m 1
 484 790 l 1
 484 14 l 1
 332 14 l 1
 332 14.103515625 l 1
 324.095703125 13.373046875 316.08984375 13 308 13 c 0
 165 13 50 128 50 270 c 0
 50 413 165 528 308 528 c 0
 316.08984375 528 324.095703125 527.626953125 332 526.896484375 c 1
 332 790 l 1
EndSplineSet
EndChar

StartChar: e
Encoding: 101 101 68
Width: 617
VWidth: 0
Flags: HW
HStem: 13 151<243.073 556.239> 215.32 128.941<230.301 387.264> 377 151<242.682 372.767>
VStem: 50 517<218.188 340.811>
LayerCount: 2
Fore
SplineSet
210.680664062 306.67578125 m 1
 406.883789062 304.1015625 l 1
 382.395507812 330.966796875 347.046875 385.099609375 307.8046875 385.099609375 c 0
 269.188476562 385.099609375 234.879882812 332.025390625 210.680664062 306.67578125 c 1
566 270 m 0
 566 251.328125 567 233 567 218 c 1
 215.985351562 215.3203125 l 1
 234.489257812 184.45703125 268.416015625 164 308 164 c 0
 322.516601562 164 544 167 557 172 c 1
 557 16 l 1
 544 14 321.946289062 13 308 13 c 0
 165 13 50 128 50 270 c 0
 50 413 165 528 308 528 c 0
 450 528 566 413 566 270 c 0
EndSplineSet
EndChar

StartChar: f
Encoding: 102 102 69
Width: 512
VWidth: 0
Flags: HW
HStem: 7 21G<145 312> 369 152<50 146.882 312 409> 620 151<328.841 458.555>
VStem: 145 167<7 369 521 599.119>
LayerCount: 2
Fore
SplineSet
464 762 m 1
 464 594 l 1
 445 610 420 620 393 620 c 0
 360 620 332 606 312 583 c 1
 312 521 l 1
 409 521 l 1
 409 369 l 1
 312 369 l 1
 312 7 l 1
 145 7 l 1
 146.881835938 369 l 1
 50 369 l 1
 50 521 l 1
 147.672851562 521 l 1
 148 584 l 1
 179 693 275 771 393 771 c 0
 418 771 441 768 464 762 c 1
EndSplineSet
EndChar

StartChar: g
Encoding: 103 103 70
Width: 620
VWidth: 0
Flags: HW
HStem: -195 151<129.297 399.488> 508 20G<307.408 308.151 311.478 383.333>
VStem: 50 151<207.15 333.449> 419 151<-23.1189 35.9655 205.937 334.857>
LayerCount: 2
Fore
SplineSet
308.90625 13.001953125 m 0
 308.603515625 13.001953125 308.301757812 13 308 13 c 0
 306.815429688 13 305.631835938 13.0078125 304.451171875 13.0234375 c 0
 303.723632812 13.0302734375 302.28515625 13.03515625 300.349609375 13.041015625 c 0
 289.5390625 13.0732421875 263.241210938 13.1513671875 259 14 c 0
 125 23 50 133.96484375 50 270 c 0
 50 406.991210938 155.5390625 518.286132812 290.12890625 527.397460938 c 0
 295.001953125 527.794921875 299.66015625 527.930664062 304.451171875 527.9765625 c 0
 305.631835938 527.9921875 306.815429688 528 308 528 c 0
 308.301757812 528 308.603515625 527.999023438 308.905273438 527.998046875 c 0
 309.92578125 528 310.956054688 528 312 528 c 0
 454.666015625 528 569.463867188 413.536132812 569.998046875 271 c 2
 569.999023438 270.868164062 l 2
 570 270.579101562 570 270.290039062 570 270 c 0
 570 267.823242188 569.97265625 265.65234375 569.918945312 263.48828125 c 2
 567 -8 l 1
 536 -117 443 -195 325 -195 c 0
 300 -195 143 -192 120 -186 c 1
 120 -18 l 1
 139 -34 298 -44 325 -44 c 0
 358 -44 399 -30 419 -7 c 1
 419 35.9658203125 l 1
 386.44140625 21.21484375 350.220703125 13 312 13 c 0
 310.956054688 13 309.92578125 13.001953125 308.90625 13.001953125 c 0
309.955078125 376.982421875 m 0
 301.641601562 376.842773438 293.393554688 375.848632812 286 374 c 1
 286 374.828125 l 1
 236.8984375 364.9453125 201 322.4375 201 270 c 0
 201 218.436523438 236.8984375 176.0390625 286 166.169921875 c 1
 286 167 l 1
 293.393554688 165.151367188 301.641601562 164.157226562 309.955078125 164.017578125 c 0
 318.23046875 164.163085938 326.280273438 165.234375 334 167.131835938 c 1
 334 166.169921875 l 1
 383.1015625 176.0390625 419 218.436523438 419 270 c 0
 419 322.4375 383.1015625 364.9453125 334 374.828125 c 1
 334 373.864257812 l 1
 326.280273438 375.765625 318.23046875 376.836914062 309.955078125 376.982421875 c 0
EndSplineSet
EndChar

StartChar: h
Encoding: 104 104 71
Width: 597
VWidth: 0
Flags: HW
HStem: 383 151<233.435 363.159>
VStem: 50 169<16 365.866 522 778> 380 167<16 362.119>
LayerCount: 2
Fore
SplineSet
50 778 m 1
 219 778 l 1
 219 522 l 1
 245 530 271 534 299 534 c 0
 417 534 513 456 544 347 c 1
 547 16 l 1
 380 16 l 1
 380 346 l 1
 360 369 332 383 299 383 c 0
 267 383 239 370 219 348 c 1
 219 16 l 1
 50 16 l 1
 50 778 l 1
EndSplineSet
EndChar

StartChar: i
Encoding: 105 105 72
Width: 252
VWidth: 0
Flags: HW
HStem: 8 21G<50 202> 502 20G<50 202> 640 142<50 202>
VStem: 50 152<8 522 640 782>
LayerCount: 2
Fore
SplineSet
50 782 m 1
 202 782 l 1
 202 640 l 1
 50 640 l 1
 50 782 l 1
50 522 m 1
 202 522 l 1
 202 8 l 1
 50 8 l 1
 50 522 l 1
EndSplineSet
EndChar

StartChar: j
Encoding: 106 106 73
Width: 419
VWidth: 0
Flags: HW
HStem: -194 151<55.4451 185.159> 507 20G<202 369> 640 142<214 366>
VStem: 202 164<-22.1189 527> 214 152<640 782>
LayerCount: 2
Fore
SplineSet
214 782 m 1
 366 782 l 1
 366 640 l 1
 214 640 l 1
 214 782 l 1
50 -185 m 1
 50 -17 l 1
 69 -33 94 -43 121 -43 c 0
 154 -43 182 -29 202 -6 c 1
 202 527 l 1
 369 527 l 1
 366 -7 l 1
 335 -116 239 -194 121 -194 c 0
 96 -194 73 -191 50 -185 c 1
EndSplineSet
EndChar

StartChar: k
Encoding: 107 107 74
Width: 753
VWidth: 0
Flags: HW
HStem: 8 20G<61 202 463 630.185> 764 20G<61 202>
VStem: 61 141<8 164 327 784>
LayerCount: 2
Fore
SplineSet
61 762 m 1
 202 762 l 1
 202 327 l 1
 447 524 l 1
 640 522 l 1
 379 294 l 1
 649 7 l 1
 463 8 l 1
 259 236 l 1
 202 164 l 1
 202 8 l 1
 61 8 l 1
 61 762 l 1
EndSplineSet
EndChar

StartChar: l
Encoding: 108 108 75
Width: 419
VWidth: 0
Flags: HW
HStem: 7 151<233.008 363.885> 751 20G<50 217>
VStem: 53 164<176.215 771>
LayerCount: 2
Fore
SplineSet
369 16 m 1
 346.333007812 10 322.666992188 7 298 7 c 0
 240 7 188.666992188 24.3330078125 144 59 c 0
 99.3330078125 93.6669921875 69 138.666992188 53 194 c 1
 50 771 l 1
 217 771 l 1
 217 195 l 1
 238.333007812 170.333007812 265.333007812 158 298 158 c 0
 324.666992188 158 348.333007812 166.666992188 369 184 c 1
 369 16 l 1
EndSplineSet
EndChar

StartChar: m
Encoding: 109 109 76
Width: 924
VWidth: 0
Flags: HW
HStem: 383 151<232.824 364.747 559.824 690.715>
VStem: 50 169<16 366.608 522 532> 380 166<16 365.109> 707 167<16 362.119>
LayerCount: 2
Fore
SplineSet
50 532 m 1
 219 532 l 1
 219 522 l 1
 245 530 271 534 299 534 c 0
 360.004882812 534 415.129882812 513.15234375 458.432617188 477.951171875 c 1
 546 522 l 1
 572 530 598 534 626 534 c 0
 744 534 840 456 871 347 c 1
 874 16 l 1
 707 16 l 1
 707 346 l 1
 687 369 659 383 626 383 c 0
 594 383 566 370 546 348 c 1
 546 126.333007812 l 1
 547 16 l 1
 546 16 l 1
 380 16 l 1
 377 16 l 1
 380 333.25 l 1
 380 346 l 1
 360 369 332 383 299 383 c 0
 267 383 239 370 219 348 c 1
 219 16 l 1
 50 16 l 1
 50 532 l 1
EndSplineSet
EndChar

StartChar: n
Encoding: 110 110 77
Width: 597
VWidth: 0
Flags: HW
HStem: 383 151<232.824 363.715>
VStem: 50 169<16 366.608 522 532> 380 167<16 362.119>
LayerCount: 2
Fore
SplineSet
50 532 m 1
 219 532 l 1
 219 522 l 1
 245 530 271 534 299 534 c 0
 417 534 513 456 544 347 c 1
 547 16 l 1
 380 16 l 1
 380 346 l 1
 360 369 332 383 299 383 c 0
 267 383 239 370 219 348 c 1
 219 16 l 1
 50 16 l 1
 50 532 l 1
EndSplineSet
EndChar

StartChar: o
Encoding: 111 111 78
Width: 616
VWidth: 0
Flags: HW
HStem: 13 21G<307.408 308.151 311.478 383.5> 508 20G<307.408 308.151 311.478 383.5>
VStem: 50 151<207.14 333.449> 419 151<205.844 334.753>
LayerCount: 2
Fore
SplineSet
309.955078125 376.982421875 m 0
 301.641601562 376.842773438 293.393554688 375.848632812 286 374 c 1
 286 374.828125 l 1
 236.8984375 364.9453125 201 322.4375 201 270 c 0
 201 218.436523438 236.8984375 176.0390625 286 166.169921875 c 1
 286 167 l 1
 293.393554688 165.151367188 301.641601562 164.157226562 309.955078125 164.017578125 c 0
 318.23046875 164.163085938 326.280273438 165.234375 334 167.131835938 c 1
 334 166.169921875 l 1
 383.1015625 176.0390625 419 218.436523438 419 270 c 0
 419 322.4375 383.1015625 364.9453125 334 374.828125 c 1
 334 373.864257812 l 1
 326.280273438 375.765625 318.23046875 376.836914062 309.955078125 376.982421875 c 0
308.90625 13.001953125 m 0
 308.603515625 13.001953125 308.301757812 13 308 13 c 0
 306.815429688 13 305.631835938 13.0078125 304.451171875 13.0234375 c 0
 299.662109375 13.0693359375 295.004882812 13.205078125 290.133789062 13.6025390625 c 0
 155.541992188 22.708984375 50 133.96484375 50 270 c 0
 50 406.991210938 155.5390625 518.286132812 290.12890625 527.397460938 c 0
 295.001953125 527.794921875 299.66015625 527.930664062 304.451171875 527.9765625 c 0
 305.631835938 527.9921875 306.815429688 528 308 528 c 0
 308.301757812 528 308.603515625 527.999023438 308.905273438 527.998046875 c 0
 309.92578125 528 310.956054688 528 312 528 c 0
 455 528 570 413 570 270 c 0
 570 128 455 13 312 13 c 0
 310.956054688 13 309.92578125 13.001953125 308.90625 13.001953125 c 0
EndSplineSet
EndChar

StartChar: p
Encoding: 112 112 79
Width: 512
VWidth: 0
Flags: HW
HStem: -192 21G<50 202> 5 151<202 290.529> 369 150<202.375 290.409>
VStem: 50 152<-192 6 156.026 368.974> 333 151<198.471 326.934>
LayerCount: 2
Fore
SplineSet
202 366 m 1
 202 159 l 1
 210 157 218 156 226 156 c 0
 286 156 333 203 333 263 c 0
 333 322 286 369 226 369 c 0
 218 369 210 368 202 366 c 1
202 -192 m 1
 50 -192 l 1
 50 519 l 1
 202 519 l 2
 210 520 218 520 226 520 c 0
 369 520 484 405 484 263 c 0
 484 120 369 5 226 5 c 0
 218 5 210 5 202 6 c 1
 202 -192 l 1
EndSplineSet
EndChar

StartChar: q
Encoding: 113 113 80
Width: 512
VWidth: 0
Flags: HW
HStem: -192 21G<332 484> 5 151<243.471 332> 369 151<243.591 331.625>
VStem: 50 151<198.471 326.934> 332 152<-192 6 156.026 368.974>
LayerCount: 2
Fore
SplineSet
332 366 m 1
 324 368 316 369 308 369 c 0
 248 369 201 322 201 263 c 0
 201 203 248 156 308 156 c 0
 316 156 324 157 332 159 c 1
 332 366 l 1
332 -192 m 1
 332 6 l 1
 324 5 316 5 308 5 c 0
 165 5 50 120 50 263 c 0
 50 405 165 520 308 520 c 0
 316 520 324 520 332 519 c 2
 484 519 l 1
 484 -192 l 1
 332 -192 l 1
EndSplineSet
EndChar

StartChar: r
Encoding: 114 114 81
Width: 587
VWidth: 0
Flags: HW
HStem: 383 151<232.824 364.013>
VStem: 50 169<16 366.608 522 532>
LayerCount: 2
Fore
SplineSet
50 532 m 1
 219 532 l 1
 219 522 l 1
 245 530 271 534 299 534 c 0
 409.2734375 534 500 453 537 355 c 1
 372 355 l 1
 372 354.31640625 l 1
 352.80859375 372.330078125 327.809570312 383 299 383 c 0
 267 383 239 370 219 348 c 1
 219 16 l 1
 50 16 l 1
 50 532 l 1
EndSplineSet
EndChar

StartChar: s
Encoding: 115 115 82
Width: 508
VWidth: 0
Flags: HW
LayerCount: 2
Fore
SplineSet
68.615234375 57 m 1
 135.615234375 169 l 1
 141.615234375 163 148.615234375 160 157.615234375 157 c 0
 210.615234375 133 254.615234375 141 280.615234375 172 c 0
 309.615234375 206 258.615234375 212 204.615234375 221 c 1
 76.615234375 272 5.615234375 355 80.615234375 444 c 0
 143.615234375 520 296.615234375 537 423.615234375 483 c 0
 430.615234375 480 438.615234375 478 445.615234375 472 c 1
 378.615234375 342 l 1
 372.615234375 346 365.615234375 351 356.615234375 354 c 0
 303.615234375 376 281.615234375 369 255.615234375 338 c 0
 225.615234375 303 222.615234375 296 286.615234375 285 c 1
 405.615234375 235 508.615234375 174 432.615234375 85 c 0
 370.615234375 9 217.615234375 -11 90.615234375 44 c 0
 83.615234375 46 76.615234375 51 68.615234375 57 c 1
EndSplineSet
EndChar

StartChar: t
Encoding: 116 116 83
Width: 514
VWidth: 0
Flags: HW
HStem: 7 151<328.285 459.024> 374 152<50 146.274 312 409> 751 20G<145 312>
VStem: 146.274 165.726<178.881 374 526 771>
LayerCount: 2
Fore
SplineSet
464 16 m 1
 441 10 418 7 393 7 c 0
 275 7 179 85 148 194 c 1
 147.064453125 374 l 1
 50 374 l 1
 50 526 l 1
 146.2734375 526 l 1
 145 771 l 1
 312 771 l 1
 312 526 l 1
 409 526 l 1
 409 374 l 1
 312 374 l 1
 312 195 l 1
 332 172 360 158 393 158 c 0
 420 158 445 168 464 184 c 1
 464 16 l 1
EndSplineSet
EndChar

StartChar: u
Encoding: 117 117 84
Width: 598
VWidth: 0
Flags: HW
HStem: 16 151<234.841 364.565> 514 20G<51 218 379 548>
VStem: 54 164<187.881 534> 379 169<18 28 184.134 534>
LayerCount: 2
Fore
SplineSet
548 12 m 1
 379 12 l 1
 379 22 l 1
 353 14 327 10 299 10 c 0
 181 10 85 88 54 197 c 1
 51 528 l 1
 218 528 l 1
 218 198 l 1
 238 175 266 161 299 161 c 0
 331 161 359 174 379 196 c 1
 379 528 l 1
 548 528 l 1
 548 12 l 1
EndSplineSet
EndChar

StartChar: v
Encoding: 118 118 85
Width: 652
VWidth: 0
Flags: HW
HStem: 501 20G<50 208.757 443.243 602>
LayerCount: 2
Fore
SplineSet
50 521 m 1
 202 521 l 1
 326 154 l 1
 450 521 l 1
 602 521 l 1
 402 10 l 1
 250 10 l 1
 50 521 l 1
EndSplineSet
EndChar

StartChar: w
Encoding: 119 119 86
Width: 1044
VWidth: 0
Flags: HW
HStem: 501 20G<50 204.757 439.243 604.54 835.243 994>
LayerCount: 2
Fore
SplineSet
446 521 m 1
 598 521 l 1
 718 154 l 1
 842 521 l 1
 994 521 l 1
 794 10 l 1
 646 10 l 1
 522 326.8203125 l 1
 398 10 l 1
 250 10 l 1
 50 521 l 1
 198 521 l 1
 322 154 l 1
 446 521 l 1
EndSplineSet
EndChar

StartChar: x
Encoding: 120 120 87
Width: 724
VWidth: 0
Flags: HW
HStem: 9 20G<68.4269 229 481.563 674> 503 20G<67.4369 236 480.573 673>
LayerCount: 2
Fore
SplineSet
50 523 m 1
 236 521 l 1
 365.491210938 369.926757812 l 1
 498 522 l 1
 673 521 l 1
 452.584960938 268.317382812 l 1
 674 10 l 1
 499 8 l 1
 362.291015625 164.8046875 l 1
 229 12 l 1
 51 9 l 1
 274.5 265.5 l 1
 50 523 l 1
EndSplineSet
EndChar

StartChar: y
Encoding: 121 121 88
Width: 652
VWidth: 0
Flags: HW
HStem: 501 20G<50 227.757 450 627.185>
LayerCount: 2
Fore
SplineSet
50 521 m 1
 221 521 l 1
 345 154 l 1
 450 521 l 1
 635 524 l 1
 356 -190 l 1
 208 -194 l 1
 277.328125 10 l 1
 277 10 l 1
 50 521 l 1
EndSplineSet
EndChar

StartChar: z
Encoding: 122 122 89
Width: 512
VWidth: 0
Flags: HW
HStem: 20 152<301 503> 376 152<50 293>
LayerCount: 2
Fore
SplineSet
50 20 m 1
 50 172 l 1
 293 376 l 1
 50 376 l 1
 50 528 l 1
 503 528 l 1
 503 376 l 1
 301 172 l 1
 503 172 l 1
 503 20 l 1
 50 20 l 1
EndSplineSet
EndChar

StartChar: braceleft
Encoding: 123 123 90
Width: 419
VWidth: 0
Flags: HW
HStem: -82 121<378.218 450.506> 694 121<378.745 450.506>
VStem: 289 84<44.1962 238 495 684.933>
LayerCount: 2
Fore
SplineSet
451 -75 m 1
 440 -80 427 -82 414 -82 c 0
 354 -82 305 -19 289 68 c 1
 288 238 l 1
 179 368 l 1
 288 495 l 1
 289 665 l 1
 305 752 354 815 414 815 c 0
 427 815 440 813 451 808 c 1
 451 673 l 1
 441 686 428 694 414 694 c 0
 397 694 383 682 373 664 c 1
 374 480 l 1
 292 379 l 1
 373 238 l 1
 373 68 l 1
 383 50 397 39 414 39 c 0
 428 39 441 47 451 60 c 1
 451 -75 l 1
EndSplineSet
EndChar

StartChar: bar
Encoding: 124 124 91
Width: 252
VWidth: 0
Flags: HW
VStem: 65 122<-89 881>
LayerCount: 2
Fore
SplineSet
65 881 m 1
 187 881 l 1
 187 -89 l 1
 65 -89 l 1
 65 881 l 1
EndSplineSet
EndChar

StartChar: braceright
Encoding: 125 125 92
Width: 419
VWidth: 0
Flags: HW
HStem: -82 121<179.494 251.782> 694 121<179.494 251.255>
VStem: 257 84<44.1962 238 495 684.933>
LayerCount: 2
Fore
SplineSet
179 -75 m 1
 179 60 l 1
 189 47 202 39 216 39 c 0
 233 39 247 50 257 68 c 1
 257 238 l 1
 338 379 l 1
 256 480 l 1
 257 664 l 1
 247 682 233 694 216 694 c 0
 202 694 189 686 179 673 c 1
 179 808 l 1
 190 813 203 815 216 815 c 0
 276 815 325 752 341 665 c 1
 342 495 l 1
 451 368 l 1
 342 238 l 1
 341 68 l 1
 325 -19 276 -82 216 -82 c 0
 203 -82 190 -80 179 -75 c 1
EndSplineSet
EndChar

StartChar: asciitilde
Encoding: 126 126 93
Width: 644
VWidth: 0
Flags: HW
HStem: 354 152.581<255.052 477.98> 410 152<101.251 233.491>
LayerCount: 2
Fore
SplineSet
549 587 m 1
 549 435 l 2
 548.596679688 433.500976562 492.831054688 354 421 354 c 0
 373 354 369 354 321 354 c 0
 257 354 232 410 168 410 c 0
 117 410 50 354 50 354 c 1
 50 506 l 1
 50 506 114 562 164 562 c 0
 230 562 258 507 324 507 c 0
 368 507 369 507 413 506.581054688 c 0
 482 507 549 587 549 587 c 1
EndSplineSet
EndChar

StartChar: .notdef
Encoding: 0 0 94
Width: 1000
Flags: HW
HStem: 10 66<293 685> 215.75 71<421 497> 331.75 117.5<421 477.005> 555.75 75.5<421 476.239> 742 62<293 685>
VStem: 243 50<76 742> 421 76<215.75 286.75 331.75 404.448> 487.5 75.5<459.629 544.632> 685 48<76 742>
LayerCount: 2
Fore
SplineSet
258 804 m 2
 718 804 l 2
 726 804 733 797 733 789 c 2
 733 25 l 2
 733 17 726 10 718 10 c 2
 258 10 l 2
 250 10 243 17 243 25 c 2
 243 789 l 2
 243 797 250 804 258 804 c 2
308 742 m 2
 300 742 293 735 293 727 c 2
 293 91 l 2
 293 83 300 76 308 76 c 2
 670 76 l 2
 678 76 685 83 685 91 c 2
 685 727 l 2
 685 735 678 742 670 742 c 2
 308 742 l 2
421 630.75 m 1
 425.5 631.25 429.5 631.25 434 631.25 c 0
 505.5 631.25 563 573.75 563 502.75 c 0
 563 454.165039062 536.450195312 412.044921875 497 390.037109375 c 1
 497 331.75 l 1
 421 331.75 l 1
 421 374.25 l 1
 421 436.75 l 1
 421 450.75 l 1
 425 449.75 429.5 449.25 434 449.25 c 0
 464 449.25 487.5 472.75 487.5 502.75 c 0
 487.5 532.25 464 555.75 434 555.75 c 0
 429.5 555.75 425 555.25 421 554.25 c 1
 421 630.75 l 1
421 215.75 m 1
 421 286.75 l 1
 497 286.75 l 1
 497 215.75 l 1
 421 215.75 l 1
EndSplineSet
EndChar

StartChar: u09a4
Encoding: 2468 2468 95
Width: 726
VWidth: 75
Flags: HW
HStem: 14.7002 133.6<305.264 468.805> 523.479 120.821<395.987 467.023> 681 132<0 726>
VStem: 92.4004 111.399<250.829 338.876> 570.2 133.399<250.829 424.049>
LayerCount: 2
Fore
SplineSet
389.780273438 523.478515625 m 1
 389.780273438 523.478515625 395.987304688 644.29296875 395.987304688 644.29296875 c 2
 396.657226562 644.297851562 397.328125 644.299804688 398 644.299804688 c 0
 566.799804688 644.299804688 703.599609375 503.5 703.599609375 329.900390625 c 0
 703.599609375 155.5 566.799804688 14.7001953125 398 14.7001953125 c 0
 229.200195312 14.7001953125 92.400390625 155.5 92.400390625 329.900390625 c 0
 92.400390625 330.77734375 203.86328125 340.658203125 203.870117188 341.533203125 c 1
 203.823242188 339.794921875 203.799804688 338.049804688 203.799804688 336.299804688 c 0
 203.799804688 232.299804688 285.400390625 148.299804688 387 148.299804688 c 0
 488.599609375 148.299804688 570.200195312 232.299804688 570.200195312 336.299804688 c 0
 570.200195312 438.556640625 490.084960938 521.962890625 389.780273438 523.478515625 c 1
726 813 m 5
 726 681 l 5
 0 681 l 5
 0 813 l 5
 726 813 l 5
EndSplineSet
EndChar

StartChar: uni09AC
Encoding: 2476 2476 96
Width: 723
VWidth: 0
Flags: HW
HStem: 681 132<0 524 670 723> 681 106<524 670>
VStem: 524 146<11 83.5 235.5 483.5 635.5 787> 524 57.5<83.5 235.5 483.5 483.5>
LayerCount: 2
Fore
SplineSet
723 813 m 1
 723 681 l 1
 670 681 l 1
 670 11 l 1
 524 11 l 1
 524 12.798828125 l 1
 70.5 283.5 l 1
 70.5 435.5 l 1
 524 612.995117188 l 1
 524 681 l 1
 0 681 l 1
 0 813 l 1
 723 813 l 1
524 164.814453125 m 1
 524 464.072265625 l 1
 214.5 359.5 l 1
 524 164.814453125 l 1
EndSplineSet
EndChar

StartChar: exclamdown
Encoding: 161 161 99
Width: 252
VWidth: 0
Flags: HW
HStem: 8 21G<50 202> 502 20G<50 202> 640 142<50 202>
VStem: 50 152<8 522 640 782>
LayerCount: 2
Fore
SplineSet
202 782 m 1
 202 640 l 1
 50 640 l 1
 50 782 l 1
 202 782 l 1
202 522 m 1
 202 8 l 1
 50 8 l 1
 50 522 l 1
 202 522 l 1
EndSplineSet
EndChar

StartChar: sterling
Encoding: 163 163 103
Width: 772
VWidth: 0
Flags: HW
HStem: 7 169.5<2.5 597.285> 369 152<50 146.882 312 409> 620 151<328.841 458.555>
VStem: 145 167<7 369 521 599.119> 615.5 151<192.508 322.889>
LayerCount: 2
Fore
SplineSet
464 762 m 1
 464 594 l 1
 445 610 420 620 393 620 c 0
 360 620 332 606 312 583 c 1
 312 521 l 1
 409 521 l 1
 409 369 l 1
 312 369 l 1
 312 176.5 l 1
 578.5 176.5 l 1
 603.166992188 197.833007812 615.5 224.833007812 615.5 257.5 c 0
 615.5 284.166992188 606.833007812 307.833007812 589.5 328.5 c 1
 757.5 328.5 l 1
 763.5 305.833007812 766.5 282.166992188 766.5 257.5 c 0
 766.5 199.5 749.166992188 148.166992188 714.5 103.5 c 0
 679.833007812 58.8330078125 634.833007812 28.5 579.5 12.5 c 1
 312 11.109375 l 1
 312 7 l 1
 145 7 l 1
 145.016601562 10.2412109375 l 1
 2.5 9.5 l 1
 2.5 176.5 l 1
 145.880859375 176.5 l 1
 146.881835938 369 l 1
 50 369 l 1
 50 521 l 1
 147.672851562 521 l 1
 148 584 l 1
 179 693 275 771 393 771 c 0
 418 771 441 768 464 762 c 1
EndSplineSet
EndChar

StartChar: uni098F
Encoding: 2447 2447 104
Width: 697
VWidth: 0
Flags: HW
HStem: 620 151<310.445 440.159>
VStem: 2.5 151<192.508 322.889>
LayerCount: 2
Fore
SplineSet
11.5 328.5 m 1
 179.5 328.5 l 1
 162.166992188 307.833007812 153.5 284.166992188 153.5 257.5 c 0
 153.5 224.833007812 165.833007812 197.833007812 190.5 176.5 c 1
 457 176.5 l 1
 457 583 l 1
 437 606 409 620 376 620 c 0
 349 620 324 610 305 594 c 1
 305 762 l 1
 328 768 351 771 376 771 c 0
 494 771 590 693 621 584 c 1
 624 7 l 5
 476.245117188 5.912109375 337.399414062 13.732421875 189.5 12.5 c 5
 134.166992188 28.5 89.1669921875 58.8330078125 54.5 103.5 c 0
 19.8330078125 148.166992188 2.5 199.5 2.5 257.5 c 0
 2.5 282.166992188 5.5 305.833007812 11.5 328.5 c 1
EndSplineSet
EndChar

StartChar: uni0985
Encoding: 2437 2437 105
Width: 946
VWidth: 0
Flags: HW
HStem: 8 21G<751 791.187> 14.7002 125.6<314.372 481.628> 515.479 128.821<400.78 481.669> 681 132<0 773 925 946> 681 105<773 925>
VStem: 92.4004 122.399<243.067 332.113> 581.2 122.399<283.807 416.338> 773 152<115 786>
LayerCount: 2
Fore
SplineSet
400.780273438 515.478515625 m 1
 400.780273438 515.478515625 395.987304688 644.29296875 395.987304688 644.29296875 c 1
 396.657226562 644.297851562 397.328125 644.299804688 398 644.299804688 c 0
 566.799804688 644.299804688 703.599609375 503.5 703.599609375 329.900390625 c 0
 703.599609375 317.25 702.879882812 304.776367188 701.48046875 292.51953125 c 1
 773 221 l 1
 773 681 l 1
 0 681 l 1
 0 813 l 1
 946 813 l 1
 946 681 l 1
 925 681 l 1
 925 10 l 1
 773.018554688 10 l 1
 771 8 l 1
 640.749023438 138.250976562 l 1
 584.901367188 63.0810546875 496.948242188 14.7001953125 398 14.7001953125 c 0
 229.200195312 14.7001953125 92.400390625 155.5 92.400390625 329.900390625 c 0
 92.400390625 330.77734375 214.86328125 332.658203125 214.870117188 333.533203125 c 1
 214.823242188 331.794921875 214.799804688 330.049804688 214.799804688 328.299804688 c 0
 214.799804688 224.299804688 296.400390625 140.299804688 398 140.299804688 c 0
 499.599609375 140.299804688 581.200195312 224.299804688 581.200195312 328.299804688 c 0
 581.200195312 430.556640625 501.084960938 513.962890625 400.780273438 515.478515625 c 1
EndSplineSet
EndChar

StartChar: uni09BE
Encoding: 2494 2494 106
Width: 436
VWidth: 0
Flags: HW
HStem: 8 21G<234 386> 681 132<273 434>
VStem: 234 200<681 813> 234 152<8 497 813 857> 273 113<681 813>
LayerCount: 2
Fore
SplineSet
234 857 m 1
 386 857 l 1
 386 813 l 1
 434 813 l 1
 434 681 l 1
 386 681 l 1
 386 8 l 1
 234 8 l 1
 234 498.981445312 l 1
 232 497 l 1
 -73 795 l 1
 128 792 l 1
 234 698 l 1
 234 857 l 1
EndSplineSet
EndChar

StartChar: uni0986
Encoding: 2438 2438 107
Width: 1261
VWidth: 0
Flags: HW
HStem: 8 21G<751 791.187> 14.7002 125.6<314.372 481.628> 515.479 128.821<400.78 481.669> 681 129<0 754 773 946 1100 1261> 681 105<773 925>
VStem: 92.4004 122.399<243.067 332.113> 581.2 122.399<283.807 416.338> 773 173<681 786> 1061 200<681 813> 1061 152<8 497 813 860> 1100 113<681 813>
LayerCount: 2
Fore
SplineSet
1061 860 m 1
 1213 860 l 1
 1213 813 l 1
 1261 813 l 1
 1261 681 l 1
 1213 681 l 1
 1213 8 l 1
 1061 8 l 1
 1061 498.981445312 l 1
 1059 497 l 1
 925 634.514648438 l 1
 925 10 l 1
 773.018554688 10 l 1
 771 8 l 1
 640.749023438 138.250976562 l 1
 584.901367188 63.0810546875 496.948242188 14.7001953125 398 14.7001953125 c 0
 229.200195312 14.7001953125 92.400390625 155.5 92.400390625 329.900390625 c 0
 92.400390625 330.77734375 214.86328125 332.658203125 214.870117188 333.533203125 c 1
 214.823242188 331.794921875 214.799804688 330.049804688 214.799804688 328.299804688 c 0
 214.799804688 224.299804688 296.400390625 140.299804688 398 140.299804688 c 0
 499.599609375 140.299804688 581.200195312 224.299804688 581.200195312 328.299804688 c 0
 581.200195312 430.556640625 501.084960938 513.962890625 400.780273438 515.478515625 c 1
 400.780273438 515.478515625 395.987304688 644.29296875 395.987304688 644.29296875 c 1
 396.657226562 644.297851562 397.328125 644.299804688 398 644.299804688 c 0
 566.799804688 644.299804688 703.599609375 503.5 703.599609375 329.900390625 c 0
 703.599609375 317.25 702.879882812 304.776367188 701.48046875 292.51953125 c 1
 773 221 l 1
 773 681 l 1
 0 681 l 1
 0 810 l 1
 754 810 l 1
 946 810 l 1
 955 810 l 1
 1061 707 l 1
 1061 860 l 1
EndSplineSet
EndChar

StartChar: uni09B9
Encoding: 2489 2489 108
Width: 689
VWidth: 0
Flags: HW
HStem: 9 21G<407 593> 681 132<0 689>
LayerCount: 2
Fore
SplineSet
689 813 m 1
 689 681 l 1
 0 681 l 1
 0 813 l 1
 689 813 l 1
236.141601562 482.20703125 m 1
 236.141601562 482.20703125 128.799804688 588.45703125 128.026367188 587.68359375 c 1
 230.65625 690.313476562 392.620117188 692.33203125 495.080078125 589.872070312 c 0
 596.706054688 488.24609375 594.452148438 326.5078125 492.18359375 223.525390625 c 0
 466.661132812 197.825195312 439.724609375 179.067382812 412.2578125 166.3515625 c 1
 593 9 l 1
 434 9 l 1
 225.735351562 163.26953125 l 1
 190.404296875 177.595703125 157.993164062 199.703125 130.920898438 227.127929688 c 1
 233.453125 329.66015625 l 1
 233.686523438 329.422851562 233.921875 329.186523438 234.158203125 328.950195312 c 0
 276.666992188 286.440429688 340.711914062 287.127929688 386.141601562 331.051757812 c 0
 429.873046875 376.353515625 430.990234375 440.416015625 388.306640625 483.099609375 c 0
 345.163085938 526.244140625 281.517578125 525.487304688 236.141601562 482.20703125 c 1
EndSplineSet
EndChar

StartChar: uni0987
Encoding: 2439 2439 109
Width: 689
VWidth: 0
Flags: HW
HStem: 9 21G<407 593> 681 132<0 307.581 543.755 689>
LayerCount: 2
Fore
SplineSet
689 813 m 1
 689 681 l 1
 0 681 l 1
 0 813 l 1
 333.489257812 813 l 1
 327.990234375 838.393554688 317.922851562 864.420898438 299.7890625 882.776367188 c 0
 268.380859375 913.592773438 267.673828125 914.299804688 236.560546875 945.412109375 c 0
 189.891601562 992.081054688 131.202148438 972.989257812 84.5322265625 1019.65820312 c 0
 49.177734375 1055.01367188 43.5205078125 1139.8671875 43.5205078125 1139.8671875 c 1
 131.909179688 1228.25488281 l 1
 131.909179688 1228.25488281 139.6875 1141.28125 175.749023438 1105.21875 c 0
 221.00390625 1059.96386719 278.280273438 1081.88378906 323.53515625 1036.62890625 c 0
 357.475585938 1002.68847656 360.3046875 999.859375 394.245117188 965.918945312 c 0
 444.2734375 915.890625 424.794921875 818.1796875 427.479492188 818.1328125 c 1
 422.346679688 813 l 1
 689 813 l 1
236.141601562 482.20703125 m 1
 236.141601562 482.20703125 128.799804688 588.45703125 128.026367188 587.68359375 c 1
 230.65625 690.313476562 392.620117188 692.33203125 495.080078125 589.872070312 c 0
 596.706054688 488.24609375 594.452148438 326.5078125 492.18359375 223.525390625 c 0
 466.661132812 197.825195312 439.724609375 179.067382812 412.2578125 166.3515625 c 1
 593 9 l 1
 434 9 l 1
 225.735351562 163.26953125 l 1
 190.404296875 177.595703125 157.993164062 199.703125 130.920898438 227.127929688 c 1
 233.453125 329.66015625 l 1
 233.686523438 329.422851562 233.921875 329.186523438 234.158203125 328.950195312 c 0
 276.666992188 286.440429688 340.711914062 287.127929688 386.141601562 331.051757812 c 0
 429.873046875 376.353515625 430.990234375 440.416015625 388.306640625 483.099609375 c 0
 345.163085938 526.244140625 281.517578125 525.487304688 236.141601562 482.20703125 c 1
EndSplineSet
EndChar

StartChar: uni09A1
Encoding: 2465 2465 110
Width: 616
VWidth: 0
Flags: HW
HStem: 13.0016 151.016<243.473 373.671> 376 151.998<309 441> 681 132<0 309 441 616> 681 80<309 441>
VStem: 309 132<527.998 761>
LayerCount: 2
Fore
SplineSet
616 813 m 1
 616 681 l 1
 441 681 l 1
 441 493.791992188 l 1
 519.610351562 449.66015625 572.310546875 366.931640625 570 270 c 0
 566.541015625 124.885742188 452.287109375 12.7998046875 308.90625 13.001953125 c 0
 139.0390625 13.240234375 55.1650390625 141.7890625 56.0009765625 271 c 1
 201.00390625 271 l 1
 201.000976562 270.666992188 201 270.333984375 201 270 c 0
 201 209.8828125 246.772460938 165.08203125 309.955078125 164.017578125 c 0
 372.911132812 165.126953125 419 209.63671875 419 270 c 0
 419 326.657226562 379.734375 369.046875 323.932617188 376 c 1
 309 376 l 1
 309 527.624023438 l 2
 308.96875 527.87109375 308.9375 527.998046875 308.905273438 527.998046875 c 1
 308.9375 527.998046875 308.96875 527.998046875 309 527.998046875 c 1
 309 681 l 1
 0 681 l 1
 0 813 l 1
 616 813 l 1
EndSplineSet
EndChar

StartChar: uni0989
Encoding: 2441 2441 111
Width: 612
VWidth: 0
Flags: HW
HStem: 13.002 151.016<238.473 368.671> 376 151.998<304 436> 681 132<-5 436 543.755 611>
LayerCount: 2
Fore
SplineSet
611 813 m 1
 611 681 l 1
 436 681 l 1
 436 493.791992188 l 1
 514.611328125 449.66015625 567.310546875 366.931640625 565 270 c 0
 561.541015625 124.885742188 447.287109375 12.7998046875 303.90625 13.001953125 c 0
 134.0390625 13.240234375 50.1650390625 141.7890625 51.0009765625 271 c 1
 196.00390625 271 l 1
 196.000976562 270.666992188 196 270.333984375 196 270 c 0
 196 209.8828125 241.772460938 165.08203125 304.955078125 164.017578125 c 0
 367.911132812 165.126953125 414 209.63671875 414 270 c 0
 414 326.657226562 374.735351562 369.046875 318.932617188 376 c 1
 304 376 l 1
 304 527.622070312 l 2
 303.96875 527.870117188 303.9375 527.998046875 303.905273438 527.998046875 c 1
 303.936523438 527.998046875 303.96875 527.998046875 304 527.998046875 c 1
 304 681 l 1
 -5 681 l 1
 -5 813 l 1
 294.169921875 813 l 1
 288.783203125 839.090820312 278.6640625 866.108398438 260 885 c 0
 228.591796875 915.81640625 227.884765625 916.5234375 196.771484375 947.635742188 c 0
 150.102539062 994.3046875 91.4130859375 975.212890625 44.7431640625 1021.88183594 c 0
 9.388671875 1057.23730469 3.7314453125 1142.09082031 3.7314453125 1142.09082031 c 1
 92.1201171875 1230.47851562 l 1
 92.1201171875 1230.47851562 99.8984375 1143.50488281 135.959960938 1107.44238281 c 0
 181.21484375 1062.1875 238.491210938 1084.10742188 283.74609375 1038.85253906 c 0
 317.686523438 1004.91210938 320.515625 1002.08300781 354.456054688 968.142578125 c 0
 404.484375 918.114257812 385.005859375 820.403320312 387.690429688 820.356445312 c 1
 380.333984375 813 l 1
 611 813 l 1
EndSplineSet
EndChar

StartChar: uni09A2
Encoding: 2466 2466 112
Width: 642
VWidth: 0
Flags: HW
HStem: 681 132<0 50 217 639> 681 90<50 217>
VStem: 53 164<182.77 771> 452 164<182.95 383>
LayerCount: 2
Fore
SplineSet
616 194 m 1
 547.931640625 -45.4130859375 122.236328125 -49.4453125 53 194 c 1
 50.4677734375 681 l 1
 0 681 l 1
 0 813 l 1
 639 813 l 1
 639 681 l 1
 217 681 l 1
 217 195 l 1
 255.237304688 151.02734375 414.430664062 149.916992188 452 195 c 1
 452 383 l 1
 619 383 l 1
 616 194 l 1
EndSplineSet
EndChar

StartChar: uni099F
Encoding: 2463 2463 113
Width: 642
VWidth: 0
Flags: HW
HStem: 681 132<0 50 543.755 639> 681 90<50 217>
VStem: 53 164<182.77 771> 452 164<182.95 383>
LayerCount: 2
Fore
SplineSet
616 194 m 1
 547.931640625 -45.4130859375 122.236328125 -49.4453125 53 194 c 1
 50.4677734375 681 l 1
 0 681 l 1
 0 813 l 1
 251.8359375 813 l 1
 236.87109375 827.96484375 l 2
 191.616210938 873.219726562 213.536132812 930.49609375 168.28125 975.750976562 c 0
 132.21875 1011.8125 45.2451171875 1019.59082031 45.2451171875 1019.59082031 c 1
 133.6328125 1107.97949219 l 1
 133.6328125 1107.97949219 218.486328125 1102.32226562 253.841796875 1066.96777344 c 0
 300.510742188 1020.29785156 281.418945312 961.608398438 328.087890625 914.939453125 c 0
 359.200195312 883.826171875 359.907226562 883.119140625 390.723632812 851.7109375 c 0
 417.475585938 825.282226562 460.520507812 815.987304688 494.153320312 813 c 2
 639 813 l 1
 639 681 l 1
 217 681 l 1
 217 195 l 1
 255.237304688 151.02734375 414.430664062 149.916992188 452 195 c 1
 452 383 l 1
 619 383 l 1
 616 194 l 1
EndSplineSet
EndChar

StartChar: uni0995
Encoding: 2453 2453 114
Width: 1095
VWidth: 0
Flags: HW
HStem: 361.5 151<716.566 845.029> 681 132<0 524 670 1088> 681 106<524 670>
VStem: 523.5 58<83.5 228.5 483.5 483.5> 524 146<11 83.5 228.5 254.5 635.5 787> 887.5 151<228.5 319.029>
LayerCount: 2
Fore
SplineSet
1098 813 m 1
 1098 681 l 1
 670 681 l 1
 670 487.599609375 l 1
 703.46875 503.573242188 740.936523438 512.5 780.5 512.5 c 0
 923.5 512.5 1038.5 397.5 1038.5 254.5 c 0
 1038.5 245.7265625 1038.06054688 237.053710938 1037.20410156 228.5 c 1
 884.364257812 228.5 l 1
 886.415039062 236.826171875 887.5 245.536132812 887.5 254.5 c 0
 887.5 314.5 840.5 361.5 780.5 361.5 c 0
 721.5 361.5 674.5 314.5 674.5 254.5 c 0
 674.5 245.536132812 675.584960938 236.826171875 677.631835938 228.5 c 1
 670 228.5 l 1
 670 11 l 1
 527 11 l 1
 70.5 283.5 l 1
 70.5 435.5 l 1
 524 612.995117188 l 1
 524 681 l 1
 0 681 l 1
 0 813 l 1
 1098 813 l 1
524.961914062 165.461914062 m 1
 524.961914062 165.461914062 524.0078125 462 524 464.072265625 c 1
 214.5 359.5 l 1
 524.961914062 165.461914062 l 1
EndSplineSet
EndChar

StartChar: uni0993
Encoding: 2451 2451 115
Width: 616
VWidth: 0
Flags: HW
HStem: 13 151.017<247.114 376.368> 686 6<225.316 227.624>
VStem: 50 151<208.344 374.102> 419 151<205.94 334.826 510.937 643.001>
LayerCount: 2
Fore
SplineSet
287 692 m 0
 280.208007812 691.634765625 231.076171875 687.51953125 225 686 c 1
 227.624023438 686.109375 204.358398438 770.163085938 207 770 c 0
 218.190429688 769.309570312 279.141601562 810.811523438 331 818 c 0
 474.5234375 837.895507812 572.978515625 727.309570312 570 575 c 0
 568.88671875 518.077148438 551.513671875 465.473632812 520.147460938 422.892578125 c 1
 551.513671875 380.16796875 570 327.333984375 570 270 c 0
 570 128 455 13 312 13 c 0
 310.956054688 13 309.92578125 13.001953125 308.90625 13.001953125 c 0
 308.603515625 13.001953125 308.301757812 13 308 13 c 0
 306.815429688 13 305.631835938 13.0078125 304.451171875 13.0234375 c 0
 299.662109375 13.0693359375 295.004882812 13.205078125 290.133789062 13.6025390625 c 0
 155.541992188 22.708984375 50 133.96484375 50 270 c 0
 50 325.204101562 67.138671875 376.235351562 96.41015625 418.088867188 c 1
 108 422 l 1
 286.961914062 372.549804688 201 414.8828125 201 270 c 0
 201 209.87890625 246.760742188 165.08203125 309.955078125 164.017578125 c 0
 372.901367188 165.126953125 419 209.640625 419 270 c 0
 419 322.4375 383.1015625 364.9453125 334 374.828125 c 1
 334 373.864257812 l 1
 309.955078125 469.017578125 l 1
 318.23046875 469.163085938 326.280273438 470.234375 334 472.131835938 c 1
 334 471.169921875 l 1
 383.1015625 481.0390625 419 523.436523438 419 575 c 0
 419 653.3203125 365.104492188 696.1953125 287 692 c 0
EndSplineSet
EndChar

StartChar: uni09B0
Encoding: 2480 2480 116
Width: 723
VWidth: 0
Flags: HW
HStem: 8 142<161 313> 681 132<0 524 670 723> 681 106<524 670>
VStem: 161 152<8 150> 524 146<11 83.5 235.5 483.5 635.5 787> 524 57.5<83.5 235.5 483.5 483.5>
LayerCount: 2
Fore
SplineSet
723 813 m 1
 723 681 l 1
 670 681 l 1
 670 11 l 1
 523 11 l 1
 523 12.798828125 l 1
 70.5 283.5 l 1
 70.5 435.5 l 1
 524 612.995117188 l 1
 524 681 l 1
 0 681 l 1
 0 813 l 1
 723 813 l 1
94 8 m 1
 94 150 l 1
 246 150 l 1
 246 8 l 1
 94 8 l 1
523 164.815429688 m 1
 523 464.072265625 l 1
 214.5 359.5 l 1
 523 164.815429688 l 1
EndSplineSet
EndChar

StartChar: mu
Encoding: 181 181 119
Width: 598
VWidth: 0
Flags: HW
HStem: 16 151<234.435 364.159> 514 20G<51 220 381 548>
VStem: 51 169<-179 28 184.134 534> 381 164<187.881 534>
LayerCount: 2
Fore
SplineSet
51 -179 m 1
 51 534 l 1
 220 534 l 1
 220 202 l 1
 240 180 268 167 300 167 c 0
 333 167 361 181 381 204 c 1
 381 534 l 1
 548 534 l 1
 545 203 l 1
 514 94 418 16 300 16 c 0
 272 16 246 20 220 28 c 1
 220 -179 l 1
 51 -179 l 1
EndSplineSet
EndChar

StartChar: guillemotleft
Encoding: 171 171 120
Width: 1282
VWidth: 0
Flags: HW
LayerCount: 2
Fore
SplineSet
594 673 m 1
 594 521 l 1
 187.895507812 347.71875 l 1
 594 168 l 1
 594 16 l 1
 50 260 l 1
 50 261 l 1
 50 412 l 1
 50 413 l 1
 594 673 l 1
1194 673 m 1
 1194 521 l 1
 787.895507812 347.71875 l 1
 1194 168 l 1
 1194 16 l 1
 650 260 l 1
 650 261 l 1
 650 412 l 1
 650 413 l 1
 1194 673 l 1
EndSplineSet
EndChar

StartChar: guillemotright
Encoding: 187 187 121
Width: 1282
VWidth: 0
Flags: HW
LayerCount: 2
Fore
SplineSet
650 673 m 1
 1194 413 l 1
 1194 412 l 1
 1194 261 l 1
 1194 260 l 1
 650 16 l 1
 650 168 l 1
 1056.10449219 347.71875 l 1
 650 521 l 1
 650 673 l 1
50 673 m 1
 594 413 l 1
 594 412 l 1
 594 261 l 1
 594 260 l 1
 50 16 l 1
 50 168 l 1
 456.104492188 347.71875 l 1
 50 521 l 1
 50 673 l 1
EndSplineSet
EndChar

StartChar: cent
Encoding: 162 162 122
Width: 384
VWidth: 0
Flags: HW
HStem: 13 151<287.13 334> 377 151<287.13 334>
VStem: 50 151<206.066 334.529> 238 47<-89 710>
LayerCount: 2
Fore
SplineSet
334 14.2958984375 m 1
 325.446289062 13.4384765625 316.7734375 13 308 13 c 0
 300.24609375 13 292.575195312 13.337890625 285 14 c 1
 285 -89 l 1
 238 -89 l 1
 238 22.517578125 l 1
 129.259765625 52.8349609375 50 152.11328125 50 270 c 0
 50 388.716796875 129.259765625 488.13671875 238 518.477539062 c 1
 238 710 l 1
 285 710 l 1
 285 527 l 1
 292.575195312 527.662109375 300.24609375 528 308 528 c 0
 316.7734375 528 325.446289062 527.560546875 334 526.704101562 c 1
 334 373.864257812 l 1
 325.673828125 375.915039062 316.963867188 377 308 377 c 0
 300.081054688 377 292.387695312 376.181640625 285 374.622070312 c 1
 285 166.375976562 l 1
 292.387695312 164.818359375 300.081054688 164 308 164 c 0
 316.963867188 164 325.673828125 165.084960938 334 167.131835938 c 1
 334 14.2958984375 l 1
238 351.549804688 m 1
 215.219726562 332.071289062 201 303.001953125 201 270 c 0
 201 237.547851562 215.219726562 208.7265625 238 189.359375 c 1
 238 351.549804688 l 1
EndSplineSet
EndChar

StartChar: yen
Encoding: 165 165 123
Width: 612
VWidth: 0
Flags: HW
HStem: 206 62<36 580> 344 62<36 580>
VStem: 229 152<11 460>
LayerCount: 2
Fore
SplineSet
229 461 m 1
 229.365234375 461 l 1
 30 775 l 1
 182 775 l 1
 306 604 l 1
 430 775 l 1
 582 775 l 1
 382 460 l 1
 381 460 l 1
 381 406 l 1
 580 406 l 1
 580 344 l 1
 381 344 l 1
 381 268 l 1
 580 268 l 1
 580 206 l 1
 381 206 l 1
 381 11 l 1
 229 11 l 1
 229 206 l 1
 36 206 l 1
 36 268 l 1
 229 268 l 1
 229 344 l 1
 36 344 l 1
 36 406 l 1
 229 406 l 1
 229 461 l 1
EndSplineSet
EndChar

StartChar: questiondown
Encoding: 191 191 124
Width: 384
VWidth: 0
Flags: HW
HStem: 8 151<243.471 334> 697 142<182 334>
VStem: 50 151<201.066 328.017> 182 152<477.009 607 697 839>
LayerCount: 2
Fore
SplineSet
334 9 m 1
 325 8 317 8 308 8 c 0
 165 8 50 123 50 265 c 0
 50 362.168945312 103.098632812 446.41015625 182 490.426757812 c 1
 182 607 l 1
 334 607 l 1
 334 522 l 1
 334 397 l 1
 334 369 l 1
 326 371 317 372 308 372 c 0
 248 372 201 325 201 265 c 0
 201 206 248 159 308 159 c 0
 317 159 326 160 334 162 c 1
 334 9 l 1
334 839 m 1
 334 697 l 1
 182 697 l 1
 182 839 l 1
 334 839 l 1
EndSplineSet
EndChar

StartChar: plusminus
Encoding: 177 177 125
Width: 644
VWidth: 0
Flags: HW
HStem: -20 152<50 594> 354 152<50 594>
VStem: 246 152<159 702>
LayerCount: 2
Fore
SplineSet
246 702 m 1
 398 702 l 1
 398 506 l 1
 594 506 l 1
 594 354 l 1
 398 354 l 1
 398 159 l 1
 246 159 l 1
 246 354 l 1
 50 354 l 1
 50 506 l 1
 246 506 l 1
 246 702 l 1
594 132 m 1
 594 -20 l 1
 50 -20 l 1
 50 132 l 1
 594 132 l 1
EndSplineSet
EndChar

StartChar: gravecomb
Encoding: 768 768 127
Width: 0
VWidth: 0
GlyphClass: 4
Flags: HW
HStem: 526 289
VStem: -145 290
LayerCount: 2
Fore
SplineSet
37 526 m 1
 -145 708 l 1
 -37 815 l 1
 145 633 l 1
 37 526 l 1
EndSplineSet
EndChar

StartChar: acutecomb
Encoding: 769 769 128
Width: 0
VWidth: 0
GlyphClass: 4
Flags: HW
HStem: 526 289
VStem: -145 290
LayerCount: 2
Fore
SplineSet
-37 526 m 1
 -145 633 l 1
 37 815 l 1
 145 708 l 1
 -37 526 l 1
EndSplineSet
EndChar

StartChar: uni0302
Encoding: 770 770 129
Width: 0
VWidth: 0
GlyphClass: 4
Flags: HW
HStem: 776.5 167<-29 -24.5 24.5 47.5>
VStem: -100.5 201
LayerCount: 2
Fore
SplineSet
-100.5 776.5 m 1
 -29 943.5 l 1
 -28.5 943.5 l 1
 47 943.5 l 1
 47.5 943.5 l 1
 100.5 776.5 l 1
 24.5 776.5 l 1
 3.5 883.5 l 1
 -24.5 776.5 l 1
 -100.5 776.5 l 1
EndSplineSet
EndChar

StartChar: tildecomb
Encoding: 771 771 130
Width: 0
VWidth: 0
GlyphClass: 4
Flags: HW
HStem: 812.25 76.291<-40.2727 104.864> 840.25 76<-116.384 -14.504>
VStem: -124.75 249.5<764.486 812.25>
LayerCount: 2
Fore
SplineSet
124.75 928.75 m 1
 124.75 852.75 l 2
 124.548828125 852 96.666015625 812.25 60.75 812.25 c 0
 36.75 812.25 34.75 812.25 10.75 812.25 c 0
 -21.25 812.25 -33.75 840.25 -65.75 840.25 c 0
 -91.25 840.25 -124.75 812.25 -124.75 812.25 c 1
 -124.75 888.25 l 1
 -124.75 888.25 -92.75 916.25 -67.75 916.25 c 0
 -34.75 916.25 -20.75 888.75 12.25 888.75 c 0
 34.25 888.75 34.75 888.75 56.75 888.541015625 c 0
 91.25 888.75 124.75 928.75 124.75 928.75 c 1
EndSplineSet
EndChar

StartChar: uni0306
Encoding: 774 774 131
Width: 0
VWidth: 0
GlyphClass: 4
Flags: HW
HStem: 817.75 52<-90.3917 88.2935>
VStem: -197.25 14.5<975.212 1031.98> 183.75 12.5<979.659 1037.14>
LayerCount: 2
Fore
SplineSet
128.5 941.5 m 1
 128.5 937.5 128.5 932.5 128.5 928.5 c 0
 128.5 856.5 71.5 799.5 0.5 799.5 c 0
 -71.5 799.5 -128.5 856.5 -128.5 928.5 c 0
 -128.5 932.5 -128.5 937.5 -128.5 941.5 c 1
 -51.5 941.5 l 1
 -52.5 937.5 -53.5 932.5 -53.5 928.5 c 0
 -53.5 898.5 -29.5 874.5 0.5 874.5 c 0
 30.5 874.5 53.5 898.5 53.5 928.5 c 0
 53.5 932.5 52.5 937.5 51.5 941.5 c 1
 128.5 941.5 l 1
EndSplineSet
EndChar

StartChar: uni0304
Encoding: 772 772 132
Width: 0
VWidth: 0
GlyphClass: 4
Flags: HW
HStem: 792 76<-136 136>
VStem: -136 272<792 868>
LayerCount: 2
Fore
SplineSet
136 868 m 1
 136 792 l 1
 -136 792 l 1
 -136 868 l 1
 136 868 l 1
EndSplineSet
EndChar

StartChar: dieresis
Encoding: 168 168 133
Width: 452
VWidth: 0
Flags: HW
HStem: 8 142<50 202 250 402>
VStem: 50 152<8 150> 250 152<8 150>
LayerCount: 2
Fore
SplineSet
50 8 m 1
 50 150 l 1
 202 150 l 1
 202 8 l 1
 50 8 l 1
250 8 m 1
 250 150 l 1
 402 150 l 1
 402 8 l 1
 250 8 l 1
EndSplineSet
EndChar

StartChar: uni0308
Encoding: 776 776 135
Width: 0
VWidth: 0
GlyphClass: 4
Flags: HW
HStem: 508 142<-176 -24 24 176>
VStem: -176 152<508 650> 24 152<508 650>
LayerCount: 2
Fore
SplineSet
-176 508 m 1
 -176 650 l 1
 -24 650 l 1
 -24 508 l 1
 -176 508 l 1
24 508 m 1
 24 650 l 1
 176 650 l 1
 176 508 l 1
 24 508 l 1
EndSplineSet
EndChar

StartChar: uni0307
Encoding: 775 775 136
Width: 0
VWidth: 0
GlyphClass: 4
Flags: HW
HStem: 508 142<-76 76>
VStem: -76 152<508 650>
LayerCount: 2
Fore
SplineSet
-76 508 m 1
 -76 650 l 1
 76 650 l 1
 76 508 l 1
 -76 508 l 1
EndSplineSet
EndChar

StartChar: hookabovecomb
Encoding: 777 777 137
Width: 0
VWidth: 0
GlyphClass: 4
Flags: HW
HStem: 442 77<-71 -13.343> 624 75<-71 -16.3337>
VStem: -4 75<528.071 612.495>
LayerCount: 2
Fore
SplineSet
-71 442 m 1
 -71 519 l 1
 -67 518 -62 517 -58 517 c 0
 -28 517 -4 540 -4 570 c 0
 -4 600 -28 624 -58 624 c 0
 -62 624 -67 623 -71 622 c 1
 -71 699 l 1
 -67 699 -62 699 -58 699 c 0
 14 699 71 642 71 570 c 0
 71 499 14 442 -58 442 c 0
 -62 442 -67 442 -71 442 c 1
EndSplineSet
EndChar

StartChar: uni030A
Encoding: 778 778 138
Width: 0
VWidth: 0
GlyphClass: 4
Flags: HW
HStem: 442 75<-11.8125 11.8125> 624 75<-11.8125 11.8125>
VStem: -130 76<527.334 613.111> 54 76<527.933 612.698>
LayerCount: 2
Fore
SplineSet
0 624 m 0
 -4 624 -8 623 -12 622 c 1
 -12 623 l 1
 -37 618 -54 596 -54 570 c 0
 -54 544 -37 523 -12 518 c 1
 -12 519 l 1
 -8 518 -4 517 0 517 c 0
 4 517 8 518 12 519 c 1
 12 518 l 1
 37 523 54 544 54 570 c 0
 54 596 37 618 12 623 c 1
 12 622 l 1
 8 623 4 624 0 624 c 0
-1 442 m 0
 -2 442 -2 442 -3 442 c 0
 -5 442 -8 442 -10 442 c 0
 -77 447 -130 502 -130 570 c 0
 -130 638 -77 694 -10 699 c 0
 -8 699 -5 699 -3 699 c 0
 -2 699 -2 699 -1 699 c 0
 0 699 0 699 1 699 c 0
 73 699 130 642 130 570 c 0
 130 499 73 442 1 442 c 0
 0 442 0 442 -1 442 c 0
EndSplineSet
EndChar

StartChar: uni030B
Encoding: 779 779 139
Width: 0
VWidth: 0
GlyphClass: 4
Flags: HW
HStem: 524 289
LayerCount: 2
Fore
SplineSet
-180 526 m 1
 -288 633 l 1
 -106 815 l 1
 2 708 l 1
 -180 526 l 1
106 524 m 1
 -2 631 l 1
 180 813 l 1
 288 706 l 1
 106 524 l 1
EndSplineSet
EndChar

StartChar: uni030C
Encoding: 780 780 140
Width: 0
VWidth: 0
GlyphClass: 4
Flags: HW
HStem: 776 168<-29 -24 24 48>
VStem: -100 200
LayerCount: 2
Fore
SplineSet
-100 944 m 1
 -24 944 l 1
 4 836 l 1
 24 944 l 1
 100 944 l 1
 48 776 l 1
 47 776 l 1
 -28 776 l 1
 -29 776 l 1
 -100 944 l 1
EndSplineSet
EndChar

StartChar: uni030F
Encoding: 783 783 141
Width: 0
VWidth: 0
GlyphClass: 4
Flags: HW
HStem: 524 289
LayerCount: 2
Fore
SplineSet
180 526 m 1
 -2 708 l 1
 106 815 l 1
 288 633 l 1
 180 526 l 1
-106 524 m 1
 -288 706 l 1
 -180 813 l 1
 2 631 l 1
 -106 524 l 1
EndSplineSet
EndChar

StartChar: dotbelowcomb
Encoding: 803 803 142
Width: 0
VWidth: 0
GlyphClass: 4
Flags: HW
HStem: 8 142<-76 76>
VStem: -76 152<8 150>
LayerCount: 2
Fore
SplineSet
-76 8 m 1
 -76 150 l 1
 76 150 l 1
 76 8 l 1
 -76 8 l 1
EndSplineSet
EndChar

StartChar: uni0328
Encoding: 808 808 143
Width: 0
VWidth: 0
GlyphClass: 4
Flags: HW
HStem: -58 75<16.3337 71> 124 75<16.3337 71>
VStem: -71 75<28.0713 112.495>
LayerCount: 2
Fore
SplineSet
71 -58 m 1
 67 -58 62 -58 58 -58 c 0
 -14 -58 -71 -1 -71 70 c 0
 -71 142 -14 199 58 199 c 0
 62 199 67 199 71 199 c 1
 71 122 l 1
 67 123 62 124 58 124 c 0
 28 124 4 100 4 70 c 0
 4 40 28 17 58 17 c 0
 62 17 67 18 71 19 c 1
 71 -58 l 1
EndSplineSet
EndChar

StartChar: uni0327
Encoding: 807 807 144
Width: 0
VWidth: 0
GlyphClass: 4
Flags: HW
HStem: -58 77<-71 -13.343> 124 75<-71 -16.3337>
VStem: -4 75<28.0713 112.495>
LayerCount: 2
Fore
SplineSet
-71 -58 m 1
 -71 19 l 1
 -67 18 -62 17 -58 17 c 0
 -28 17 -4 40 -4 70 c 0
 -4 100 -28 124 -58 124 c 0
 -62 124 -67 123 -71 122 c 1
 -71 199 l 1
 -67 199 -62 199 -58 199 c 0
 14 199 71 142 71 70 c 0
 71 -1 14 -58 -58 -58 c 0
 -62 -58 -67 -58 -71 -58 c 1
EndSplineSet
EndChar

StartChar: dotlessi
Encoding: 305 305 145
Width: 252
VWidth: 0
Flags: HW
HStem: 8 21G<50 202> 502 20G<50 202>
VStem: 50 152<8 522>
LayerCount: 2
Fore
SplineSet
50 522 m 1
 202 522 l 1
 202 8 l 1
 50 8 l 1
 50 522 l 1
EndSplineSet
EndChar

StartChar: uni0313
Encoding: 787 787 292
Width: 0
VWidth: 400
GlyphClass: 4
Flags: HW
HStem: 276 274<-33.2324 19.1818>
VStem: -76 152<408 550>
LayerCount: 2
Fore
SplineSet
-76 408 m 1
 -76 550 l 1
 76 550 l 1
 76 408 l 1
 16 276 l 1
 -42 280 l 1
 -33.232421875 408 l 1
 -76 408 l 1
EndSplineSet
EndChar

StartChar: uni0312
Encoding: 786 786 293
Width: 0
VWidth: 400
GlyphClass: 4
Flags: HW
HStem: 276 274<-19.1818 33.2324>
VStem: -76 152<276 418>
LayerCount: 2
Fore
SplineSet
76 418 m 1
 76 276 l 1
 -76 276 l 1
 -76 418 l 1
 -16 550 l 1
 42 546 l 1
 33.232421875 418 l 1
 76 418 l 1
EndSplineSet
EndChar

StartChar: uni0326
Encoding: 806 806 297
Width: 0
VWidth: 100
GlyphClass: 4
Flags: HW
HStem: -24 274<-33.2324 19.1818>
VStem: -76 152<108 250>
LayerCount: 2
Fore
SplineSet
-76 108 m 1
 -76 250 l 1
 76 250 l 1
 76 108 l 1
 16 -24 l 1
 -42 -20 l 1
 -33.232421875 108 l 1
 -76 108 l 1
EndSplineSet
EndChar

StartChar: multiply
Encoding: 215 215 308
Width: 724
VWidth: 200
Flags: HW
HStem: 209 20G<68.4269 229 481.563 674> 703 20G<67.4369 236 480.573 673>
LayerCount: 2
Fore
SplineSet
50 723 m 1
 236 721 l 1
 365.491210938 569.926757812 l 1
 498 722 l 1
 673 721 l 1
 452.584960938 468.317382812 l 1
 674 210 l 1
 499 208 l 1
 362.291015625 364.8046875 l 1
 229 212 l 1
 51 209 l 1
 274.5 465.5 l 1
 50 723 l 1
EndSplineSet
EndChar

StartChar: periodcentered
Encoding: 183 183 309
Width: 252
VWidth: 400
Flags: HW
HStem: 408 142<50 202>
VStem: 50 152<408 550>
LayerCount: 2
Fore
SplineSet
50 408 m 1
 50 550 l 1
 202 550 l 1
 202 408 l 1
 50 408 l 1
EndSplineSet
EndChar

StartChar: registered
Encoding: 174 174 310
Width: 864
VWidth: 0
Flags: HW
LayerCount: 2
Fore
SplineSet
666.760742188 388.5546875 m 0
 666.760742188 520.799804688 562.1953125 628.44140625 432 628.44140625 c 0
 301.8046875 628.44140625 197.239257812 520.799804688 197.239257812 388.5546875 c 0
 197.239257812 255.284179688 301.8046875 147.642578125 432 147.642578125 c 0
 562.1953125 147.642578125 666.760742188 255.284179688 666.760742188 388.5546875 c 0
710.477539062 389.865234375 m 0
 710.477539062 230.942382812 585.819335938 102.638671875 432 102.638671875 c 0
 278.180664062 102.638671875 153.522460938 230.942382812 153.522460938 389.865234375 c 0
 153.522460938 548.057617188 278.180664062 676.361328125 432 676.361328125 c 0
 585.819335938 676.361328125 710.477539062 548.057617188 710.477539062 389.865234375 c 0
395.185546875 255.545898438 m 1
 339.78125 255.545898438 l 1
 339.78125 538.3984375 l 1
 395.185546875 538.3984375 l 2
 398.1015625 538.762695312 401.017578125 538.762695312 403.932617188 538.762695312 c 0
 456.057617188 538.762695312 497.974609375 496.845703125 497.974609375 445.0859375 c 0
 497.974609375 404.137695312 472.103515625 369.48828125 435.73828125 356.512695312 c 1
 508.1796875 253.359375 l 1
 457.150390625 253.359375 l 1
 396.977539062 351.228515625 l 2
 396.37890625 351.275390625 395.783203125 351.334960938 395.185546875 351.409179688 c 1
 395.185546875 255.545898438 l 1
395.185546875 482.629882812 m 2
 395.185546875 407.178710938 l 2
 398.1015625 406.44921875 401.017578125 406.083984375 403.932617188 406.083984375 c 0
 425.802734375 406.083984375 442.935546875 423.216796875 442.935546875 445.0859375 c 0
 442.935546875 466.591796875 425.802734375 483.72265625 403.932617188 483.72265625 c 0
 401.017578125 483.72265625 398.1015625 483.358398438 395.185546875 482.629882812 c 2
EndSplineSet
EndChar

StartChar: copyright
Encoding: 169 169 311
Width: 864
VWidth: 0
Flags: HW
LayerCount: 2
Fore
SplineSet
725.451171875 388.318359375 m 0
 725.451171875 553.625 594.744140625 688.176757812 432 688.176757812 c 0
 269.255859375 688.176757812 138.548828125 553.625 138.548828125 388.318359375 c 0
 138.548828125 221.73046875 269.255859375 87.177734375 432 87.177734375 c 0
 594.744140625 87.177734375 725.451171875 221.73046875 725.451171875 388.318359375 c 0
780.096679688 389.95703125 m 0
 780.096679688 191.302734375 624.274414062 30.923828125 432 30.923828125 c 0
 239.725585938 30.923828125 83.9033203125 191.302734375 83.9033203125 389.95703125 c 0
 83.9033203125 587.697265625 239.725585938 748.076171875 432 748.076171875 c 0
 624.274414062 748.076171875 780.096679688 587.697265625 780.096679688 389.95703125 c 0
493.25 205.623046875 m 1
 487.904296875 205.086914062 482.483398438 204.8125 477 204.8125 c 0
 387.625 204.8125 315.75 276.6875 315.75 365.4375 c 0
 315.75 454.8125 387.625 526.6875 477 526.6875 c 0
 482.483398438 526.6875 487.904296875 526.413085938 493.25 525.876953125 c 1
 493.25 430.353515625 l 1
 488.045898438 431.634765625 482.6015625 432.3125 477 432.3125 c 0
 439.5 432.3125 410.125 402.9375 410.125 365.4375 c 0
 410.125 328.5625 439.5 299.1875 477 299.1875 c 0
 482.6015625 299.1875 488.045898438 299.865234375 493.25 301.145507812 c 1
 493.25 205.623046875 l 1
EndSplineSet
EndChar

StartChar: brokenbar
Encoding: 166 166 312
Width: 252
VWidth: 0
Flags: HW
HStem: 8 21G<50 202> 502 20G<50 202> 640 142<50 202>
VStem: 50 152<8 522 640 782>
LayerCount: 2
Fore
SplineSet
202 843 m 1
 202 469 l 1
 50 469 l 1
 50 843 l 1
 202 843 l 1
202 380 m 1
 202 -20 l 1
 50 -20 l 1
 50 380 l 1
 202 380 l 1
EndSplineSet
EndChar

StartChar: section
Encoding: 167 167 313
Width: 512
VWidth: 0
Flags: HW
LayerCount: 2
Fore
SplineSet
-25 118 m 1
 50 243 l 1
 56 238 62 233 72 228 c 0
 123 198 187 215 217 263 c 0
 249 319 199 367 147 376 c 1
 21 444 -63 559 21 700 c 0
 47.2392578125 743.482421875 85.703125 776.145507812 130.123046875 796.461914062 c 1
 66.1708984375 862.720703125 41.6455078125 949.369140625 101 1049 c 0
 171 1165 328 1204 453 1137 c 0
 459 1131 467 1128 474 1122 c 1
 399 997 l 1
 393 1002 387 1007 377 1012 c 0
 326 1040 262 1024 232 975 c 0
 199 920 232 839 296 828 c 1
 310.34765625 820.274414062 324.423828125 812.217773438 337.923828125 803.76953125 c 0
 349.82421875 799.388671875 361.545898438 794.139648438 373 788 c 0
 379 782 387 779 394 773 c 1
 389.928710938 766.21484375 l 1
 455.184570312 710.543945312 487.126953125 639.032226562 427 540 c 0
 395.942382812 487.336914062 347.055664062 450.4765625 291.283203125 432.063476562 c 1
 368.58984375 374.361328125 412.611328125 299.06640625 347 191 c 0
 278 74 121 35 -4 103 c 0
 -10 109 -18 112 -25 118 c 1
139.249023438 584.6796875 m 0
 142.80859375 582.120117188 146.879882812 579.559570312 152 577 c 0
 203 547 267 564 297 612 c 0
 306.247070312 628.18359375 308.647460938 643.698242188 306.12890625 657.796875 c 0
 303.456054688 659.53125 300.46875 661.265625 297 663 c 0
 246 691 182 675 152 626 c 0
 144.336914062 613.227539062 140.232421875 599.053710938 139.249023438 584.6796875 c 0
EndSplineSet
EndChar

StartChar: paragraph
Encoding: 182 182 314
Width: 776
VWidth: 0
Flags: HW
HStem: 275 151<243.471 332> 639 150<243.591 331.625>
VStem: 332 152<13 276 426.026 638.974> 50 151<468.471 596.934>
LayerCount: 2
Fore
SplineSet
332 13 m 1
 332 276 l 1
 324 275 316 275 308 275 c 0
 165 275 50 390 50 533 c 0
 50 675 165 790 308 790 c 0
 316 790 324 790 332 789 c 2
 484 789 l 1
 484 13 l 1
 332 13 l 1
550 784 m 1
 702 784 l 1
 702 8 l 1
 550 8 l 1
 550 784 l 1
EndSplineSet
EndChar

StartChar: Thorn
Encoding: 222 222 315
Width: 512
VWidth: 0
Flags: HW
HStem: -192 21G<50 202> 5 151<202 290.529> 369 150<202.375 290.409>
VStem: 50 152<-192 6 156.026 368.974> 333 151<198.471 326.934>
LayerCount: 2
Fore
SplineSet
202 571 m 1
 202 364 l 1
 210 362 218 361 226 361 c 0
 286 361 333 408 333 468 c 0
 333 527 286 574 226 574 c 0
 218 574 210 573 202 571 c 1
202 13 m 1
 50 13 l 1
 50 913 l 1
 197 913 l 1
 202 724 l 1
 210 725 218 725 226 725 c 0
 369 725 484 610 484 468 c 0
 484 325 369 210 226 210 c 0
 218 210 210 210 202 211 c 1
 202 13 l 1
EndSplineSet
EndChar

StartChar: germandbls
Encoding: 223 223 316
Width: 771
VWidth: 0
Flags: HW
LayerCount: 2
Fore
SplineSet
238.615234375 57 m 1
 305.615234375 169 l 1
 311.615234375 163 318.615234375 160 327.615234375 157 c 0
 380.615234375 133 424.615234375 141 450.615234375 172 c 0
 479.615234375 206 428.615234375 212 374.615234375 221 c 1
 246.615234375 272 175.615234375 355 250.615234375 444 c 0
 311.99609375 518.046875 356.811523438 608.086914062 481.775390625 559.022460938 c 0
 482.515625 559.0078125 483.256835938 559 484 559 c 0
 544 559 591 606 591 666 c 0
 591 730.255859375 215.541992188 742.190429688 173 693 c 1
 173 12 l 1
 6 12 l 1
 9 694 l 1
 25 749.333007812 55.3330078125 794.333007812 100 829 c 0
 239.345703125 937.1484375 742 866.984375 742 666 c 0
 742 293.000976562 540.864257812 547.412109375 425.615234375 410 c 0
 395.615234375 375 392.615234375 296 456.615234375 285 c 1
 575.615234375 235 678.615234375 174 602.615234375 85 c 0
 540.615234375 9 387.615234375 -11 260.615234375 44 c 0
 253.615234375 46 246.615234375 51 238.615234375 57 c 1
EndSplineSet
EndChar

StartChar: thorn
Encoding: 254 254 317
Width: 512
VWidth: 0
Flags: HW
HStem: -192 21G<50 202> 5 151<202 290.529> 369 150<202.375 290.409>
VStem: 50 152<-192 6 156.026 368.974> 333 151<198.471 326.934>
LayerCount: 2
Fore
SplineSet
202 369 m 1
 202 162 l 1
 210 160 218 159 226 159 c 0
 286 159 333 206 333 266 c 0
 333 325 286 372 226 372 c 0
 218 372 210 371 202 369 c 1
202 -189 m 1
 50 -189 l 1
 50 711 l 1
 197 711 l 1
 202 522 l 1
 210 523 218 523 226 523 c 0
 369 523 484 408 484 266 c 0
 484 123 369 8 226 8 c 0
 218 8 210 8 202 9 c 1
 202 -189 l 1
EndSplineSet
EndChar

StartChar: AE
Encoding: 198 198 318
Width: 1024
VWidth: 0
Flags: HW
HStem: 7 152<558 973> 343 152<558 865> 636 152<558 973>
VStem: 406 568<7 159 636 788> 406 152<159 343 495 636>
LayerCount: 2
Fore
SplineSet
865 495 m 1
 866 343 l 1
 558 343 l 1
 558 159 l 1
 973 159 l 1
 974 7 l 1
 407 7 l 1
 406.993164062 8 l 1
 406 8 l 1
 406 237 l 1
 261.038085938 237 l 1
 202 10 l 1
 50 10 l 1
 250 788 l 1
 973 788 l 1
 974 636 l 1
 558 636 l 1
 558 495 l 1
 865 495 l 1
406.827148438 377 m 1
 341.200195312 545.223632812 l 1
 297.448242188 377 l 1
 406.827148438 377 l 1
EndSplineSet
EndChar

StartChar: Eth
Encoding: 208 208 319
Width: 690
VWidth: 0
Flags: HW
HStem: -3.9789 157.014<262 347.489> 621.965 161.035<262 353.477>
VStem: 110 152<-4 -3.9789 153.035 621.965> 487 153<292.064 485.736>
LayerCount: 2
Fore
SplineSet
110 778 m 1
 159.62109375 770.911132812 208.3828125 783 258 783 c 0
 469 783 640 607 640 390 c 0
 640 173.37890625 471.157226562 -1.771484375 262 -3.978515625 c 2
 110 -4 l 1
 110 354 l 1
 50 354 l 1
 50 506 l 1
 110 506 l 1
 110 778 l 1
262 153.03515625 m 1
 387.134765625 155.211914062 487 259.368164062 487 388 c 0
 487 515.642578125 387.134765625 619.788085938 262 621.96484375 c 1
 262 506 l 1
 321 506 l 1
 321 354 l 1
 262 354 l 1
 262 153.03515625 l 1
EndSplineSet
EndChar

StartChar: Oslash
Encoding: 216 216 320
Width: 864
VWidth: 0
Flags: HW
HStem: -4 157<337.027 526.973> 622 161<337.027 526.973>
VStem: 50 153<288.712 488.774> 661 153<288.712 488.774>
LayerCount: 2
Fore
SplineSet
598.806640625 548.438476562 m 1
 374.731445312 160.348632812 l 1
 393.01953125 155.55078125 412.206054688 153 432 153 c 0
 559 153 661 258 661 388 c 0
 661 450.03125 637.415039062 506.51171875 598.806640625 548.438476562 c 1
494.91796875 613.094726562 m 1
 474.9453125 618.89453125 453.842773438 622 432 622 c 0
 305 622 203 517 203 388 c 0
 203 323.299804688 228.265625 264.791992188 269.302734375 222.33984375 c 1
 494.91796875 613.094726562 l 1
814 390 m 0
 814 172 643 -4 432 -4 c 0
 383.677734375 -4 337.452148438 5.2314453125 294.899414062 22.0830078125 c 1
 240 -73 l 1
 134 -12 l 1
 190.001953125 84.9931640625 l 1
 104.53125 157.181640625 50 266.893554688 50 390 c 0
 50 607 221 783 432 783 c 0
 483.051757812 783 531.76171875 772.697265625 576.275390625 754.002929688 c 1
 619 828 l 1
 725 767 l 1
 679.946289062 688.96875 l 1
 761.991210938 616.87890625 814 509.674804688 814 390 c 0
EndSplineSet
EndChar

StartChar: ae
Encoding: 230 230 321
Width: 905
VWidth: 0
Flags: HW
HStem: 13 151<531.073 844.239> 215.32 128.941<518.301 675.264> 377 151<530.682 660.767>
VStem: 338 517<218.188 340.811>
LayerCount: 2
Fore
SplineSet
854 270 m 0
 854 251.328125 855 233 855 218 c 1
 507.985351562 215.3203125 l 1
 526.489257812 184.45703125 556.416015625 164 596 164 c 0
 610.516601562 164 832 167 845 172 c 1
 845 16 l 1
 832 14 609.946289062 13 596 13 c 0
 563.931640625 13 533.271484375 18.783203125 505 29.357421875 c 1
 332 11 l 1
 332 19 l 1
 324 18 316 18 308 18 c 0
 165 18 50 133 50 276 c 0
 50 418 165 525 308 525 c 0
 316 525 324 525 332 524 c 2
 505 524 l 1
 596 528 l 1
 738 528 854 413 854 270 c 0
332 379 m 1
 324 381 316 382 308 382 c 0
 248 382 201 335 201 276 c 0
 201 216 248 169 308 169 c 0
 316 169 324 170 332 172 c 1
 332 379 l 1
502.680664062 306.67578125 m 1
 694.883789062 304.1015625 l 1
 670.395507812 330.966796875 635.046875 385.099609375 595.8046875 385.099609375 c 0
 557.188476562 385.099609375 526.879882812 332.025390625 502.680664062 306.67578125 c 1
EndSplineSet
EndChar

StartChar: eth
Encoding: 240 240 322
Width: 612
VWidth: 0
Flags: HW
HStem: 13 151<242.454 332> 377 151<243.471 332>
VStem: 50 151<206.066 334.529> 332 152<14 14.1035 164.011 376.989 526.896 790>
LayerCount: 2
Fore
SplineSet
135 790 m 1
 287 790 l 1
 291.977539062 785.721679688 296.989257812 781.3984375 302.025390625 777.025390625 c 1
 340 815 l 1
 427 739 l 1
 386.727539062 698.727539062 l 1
 530.248046875 554.008789062 645.58203125 352.99609375 484 14 c 1
 332 14 l 1
 332 14.103515625 l 1
 324.095703125 13.373046875 316.08984375 13 308 13 c 0
 165 13 50 128 50 270 c 0
 50 413 165 528 308 528 c 0
 316.08984375 528 324.095703125 527.626953125 332 526.896484375 c 1
 281.860351562 593.860351562 l 1
 245 557 l 1
 158 633 l 1
 212.069335938 687.069335938 l 1
 135 790 l 1
309.955078125 376.982421875 m 0
 301.641601562 376.842773438 293.393554688 375.848632812 286 374 c 1
 286 374.828125 l 1
 236.8984375 364.9453125 201 322.4375 201 270 c 0
 201 218.436523438 236.8984375 176.0390625 286 166.169921875 c 1
 286 167 l 1
 293.393554688 165.151367188 301.641601562 164.157226562 309.955078125 164.017578125 c 0
 318.23046875 164.163085938 326.280273438 165.234375 334 167.131835938 c 1
 334 166.169921875 l 1
 383.1015625 176.0390625 419 218.436523438 419 270 c 0
 419 322.4375 383.1015625 364.9453125 334 374.828125 c 1
 334 373.864257812 l 1
 326.280273438 375.765625 318.23046875 376.836914062 309.955078125 376.982421875 c 0
EndSplineSet
EndChar

StartChar: divide
Encoding: 247 247 323
Width: 644
VWidth: 0
Flags: HW
HStem: 8 142<50 202> 408 142<50 202>
VStem: 50 152<8 150 408 550>
LayerCount: 2
Fore
SplineSet
250 161 m 1
 250 303 l 1
 402 303 l 1
 402 161 l 1
 250 161 l 1
250 561 m 1
 250 703 l 1
 402 703 l 1
 402 561 l 1
 250 561 l 1
594 506 m 1
 594 354 l 1
 50 354 l 1
 50 506 l 1
 594 506 l 1
EndSplineSet
EndChar

StartChar: oslash
Encoding: 248 248 324
Width: 616
VWidth: 0
Flags: HW
HStem: 13 21G<307.408 308.151 311.478 383.5> 508 20G<307.408 308.151 311.478 383.5>
VStem: 50 151<207.14 333.449> 419 151<205.844 334.753>
LayerCount: 2
Fore
SplineSet
323.872070312 165.151367188 m 1
 327.303710938 165.653320312 330.682617188 166.31640625 334 167.131835938 c 1
 334 166.169921875 l 1
 383.1015625 176.0390625 419 218.436523438 419 270 c 0
 419 285.224609375 415.973632812 299.612304688 410.477539062 312.607421875 c 1
 323.872070312 165.151367188 l 1
306.393554688 376.870117188 m 1
 299.299804688 376.541015625 292.3359375 375.583984375 286 374 c 1
 286 374.828125 l 1
 236.8984375 364.9453125 201 322.4375 201 270 c 0
 201 251.526367188 205.607421875 234.229492188 213.780273438 219.182617188 c 1
 306.393554688 376.870117188 l 1
50 270 m 0
 50 410.959960938 161.197265625 528 308 528 c 0
 308.301757812 528 308.603515625 527.999023438 308.905273438 527.998046875 c 0
 309.92578125 528 310.956054688 528 312 528 c 0
 338.643554688 528 364.315429688 524.0078125 388.452148438 516.5859375 c 1
 458 635 l 1
 564 574 l 1
 493.41796875 453.82421875 l 1
 540.752929688 407.109375 570 342.115234375 570 270 c 0
 570 128 455 13 312 13 c 0
 310.956054688 13 309.92578125 13.001953125 308.90625 13.001953125 c 0
 308.603515625 13.001953125 308.301757812 13 308 13 c 0
 282.426757812 13 261.399414062 16.169921875 239.807617188 22.0205078125 c 1
 184 -73 l 1
 78 -12 l 1
 132.735351562 81.1943359375 l 1
 81.7939453125 128.135742188 50 195.3359375 50 270 c 0
EndSplineSet
EndChar

StartChar: dcaron
Encoding: 271 271 326
Width: 710
VWidth: 0
Flags: HW
HStem: 13 151<242.454 332> 377 151<243.471 332>
VStem: 50 151<206.066 334.529> 332 152<14 14.1035 164.011 376.989 526.896 790>
LayerCount: 2
Fore
SplineSet
332 166.66015625 m 1
 332 374.336914062 l 1
 324.282226562 376.081054688 316.249023438 377 308 377 c 0
 248 377 201 330 201 270 c 0
 201 211 248 164 308 164 c 0
 316.249023438 164 324.282226562 164.918945312 332 166.66015625 c 1
332 790 m 1
 484 790 l 1
 484 14 l 1
 332 14 l 1
 332 14.103515625 l 1
 324.095703125 13.373046875 316.08984375 13 308 13 c 0
 165 13 50 128 50 270 c 0
 50 413 165 528 308 528 c 0
 316.08984375 528 324.095703125 527.626953125 332 526.896484375 c 1
 332 790 l 1
516 542 m 1
 516 799 l 1
 668 799 l 1
 623 542 l 1
 516 542 l 1
EndSplineSet
EndChar

StartChar: dcroat
Encoding: 273 273 327
Width: 585
VWidth: 0
Flags: HW
HStem: 13 151<242.454 332> 377 151<243.471 332>
VStem: 50 151<206.066 334.529> 332 152<14 14.1035 164.011 376.989 526.896 790>
LayerCount: 2
Fore
SplineSet
332 166.66015625 m 1
 332 374.336914062 l 1
 324.282226562 376.081054688 316.249023438 377 308 377 c 0
 248 377 201 330 201 270 c 0
 201 211 248 164 308 164 c 0
 316.249023438 164 324.282226562 164.918945312 332 166.66015625 c 1
332 790 m 1
 484 790 l 1
 484 749 l 1
 535 749 l 1
 535 597 l 1
 484 597 l 1
 484 14 l 1
 332 14 l 1
 332 14.103515625 l 1
 324.095703125 13.373046875 316.08984375 13 308 13 c 0
 165 13 50 128 50 270 c 0
 50 413 165 528 308 528 c 0
 316.08984375 528 324.095703125 527.626953125 332 526.896484375 c 1
 332 597 l 1
 264 597 l 1
 264 749 l 1
 332 749 l 1
 332 790 l 1
EndSplineSet
EndChar

StartChar: Hbar
Encoding: 294 294 328
Width: 652
VWidth: 0
Flags: HW
HStem: 8 21G<50 202 450 602> 343 152<202 450> 764 20G<50 202 450 602>
VStem: 50 152<8 343 495 784> 450 152<8 343 495 784>
LayerCount: 2
Fore
SplineSet
202 571 m 1
 202 495 l 1
 450 495 l 1
 450 571 l 1
 202 571 l 1
450 784 m 1
 602 784 l 1
 602 723 l 1
 647 723 l 1
 647 571 l 1
 602 571 l 1
 602 8 l 1
 450 8 l 1
 450 343 l 1
 202 343 l 1
 202 8 l 1
 50 8 l 1
 50 571 l 1
 0 571 l 1
 0 723 l 1
 50 723 l 1
 50 784 l 1
 202 784 l 1
 202 723 l 1
 450 723 l 1
 450 784 l 1
EndSplineSet
EndChar

StartChar: hbar
Encoding: 295 295 329
Width: 658
VWidth: 0
Flags: HW
HStem: 654 152<61 605>
LayerCount: 2
Fore
SplineSet
338 741 m 1
 338 589 l 1
 280 589 l 1
 280 522 l 1
 306 530 332 534 360 534 c 0
 478 534 574 456 605 347 c 1
 608 16 l 1
 441 16 l 1
 441 346 l 1
 421 369 393 383 360 383 c 0
 328 383 300 370 280 348 c 1
 280 16 l 1
 111 16 l 1
 111 589 l 1
 50 589 l 1
 50 741 l 1
 111 741 l 1
 111 778 l 1
 280 778 l 1
 280 741 l 1
 338 741 l 1
EndSplineSet
EndChar

StartChar: lcaron
Encoding: 318 318 332
Width: 419
VWidth: 0
Flags: HW
HStem: 7 151<233.008 363.885> 751 20G<50 217>
VStem: 53 164<176.215 771>
LayerCount: 2
Fore
SplineSet
369 16 m 1
 346.333007812 10 322.666992188 7 298 7 c 0
 240 7 188.666992188 24.3330078125 144 59 c 0
 99.3330078125 93.6669921875 69 138.666992188 53 194 c 1
 50 771 l 1
 217 771 l 1
 217 195 l 1
 238.333007812 170.333007812 265.333007812 158 298 158 c 0
 324.666992188 158 348.333007812 166.666992188 369 184 c 1
 369 16 l 1
260 514 m 1
 260 771 l 1
 412 771 l 1
 367 514 l 1
 260 514 l 1
EndSplineSet
EndChar

StartChar: Lslash
Encoding: 321 321 333
Width: 718
VWidth: 0
Flags: HW
HStem: 7 152<202 667> 764 20G<50 202>
VStem: 50 152<159 784>
LayerCount: 2
Fore
SplineSet
50 784 m 1
 202 784 l 1
 202 159 l 1
 667 159 l 1
 668 7 l 1
 51 7 l 1
 50.9931640625 8 l 1
 50 8 l 1
 50 784 l 1
EndSplineSet
EndChar

StartChar: Lcaron
Encoding: 317 317 334
Width: 718
VWidth: 0
Flags: HW
HStem: 7 152<202 667> 764 20G<50 202>
VStem: 50 152<159 784>
LayerCount: 2
Fore
SplineSet
50 784 m 1
 202 784 l 1
 202 159 l 1
 667 159 l 1
 668 7 l 1
 51 7 l 1
 50.9931640625 8 l 1
 50 8 l 1
 50 784 l 1
252 530 m 1
 252 787 l 1
 404 787 l 1
 359 530 l 1
 252 530 l 1
EndSplineSet
EndChar

StartChar: lslash
Encoding: 322 322 335
Width: 419
VWidth: 0
Flags: HW
HStem: 7 151<233.008 363.885> 751 20G<50 217>
VStem: 53 164<176.215 771>
LayerCount: 2
Fore
SplineSet
369 16 m 1
 346.333007812 10 322.666992188 7 298 7 c 0
 240 7 188.666992188 24.3330078125 144 59 c 0
 99.3330078125 93.6669921875 69 138.666992188 53 194 c 1
 50 771 l 1
 217 771 l 1
 217 195 l 1
 238.333007812 170.333007812 265.333007812 158 298 158 c 0
 324.666992188 158 348.333007812 166.666992188 369 184 c 1
 369 16 l 1
EndSplineSet
EndChar

StartChar: OE
Encoding: 338 338 336
Width: 1068
VWidth: 0
Flags: HW
HStem: 7 152<602 1017> 343 152<602 909> 636 152<602 1017>
VStem: 450 568<7 159 636 788> 450 152<159 343 495 636>
LayerCount: 2
Fore
SplineSet
432 622 m 0
 305 622 203 517 203 388 c 0
 203 258 305 153 432 153 c 0
 438.059570312 153 444.0625 153.239257812 450 153.708007812 c 1
 450 621.291992188 l 1
 444.0625 621.760742188 438.059570312 622 432 622 c 0
909 495 m 1
 910 343 l 1
 602 343 l 1
 602 159 l 1
 1017 159 l 1
 1018 7 l 1
 505 7 l 1
 505 3.169921875 l 1
 481.37109375 -1.5361328125 456.965820312 -4 432 -4 c 0
 221 -4 50 172 50 390 c 0
 50 607 221 783 432 783 c 0
 438.034179688 783 444.03515625 782.856445312 450 782.571289062 c 1
 450 784 l 1
 450 788 l 1
 1017 788 l 1
 1018 636 l 1
 602 636 l 1
 602 495 l 1
 909 495 l 1
EndSplineSet
EndChar

StartChar: oe
Encoding: 339 339 337
Width: 1000
VWidth: 0
Flags: HW
LayerCount: 2
Fore
SplineSet
308.90625 13.001953125 m 0
 308.603515625 13.001953125 308.301757812 13 308 13 c 0
 306.815429688 13 305.631835938 13.0078125 304.451171875 13.0234375 c 0
 299.662109375 13.0693359375 295.004882812 13.205078125 290.133789062 13.6025390625 c 0
 155.541992188 22.708984375 50 133.96484375 50 270 c 0
 50 406.991210938 155.5390625 518.286132812 290.12890625 527.397460938 c 0
 295.001953125 527.794921875 299.66015625 527.930664062 304.451171875 527.9765625 c 0
 305.631835938 527.9921875 306.815429688 528 308 528 c 0
 308.301757812 528 308.603515625 527.999023438 308.905273438 527.998046875 c 0
 309.92578125 528 310.956054688 528 312 528 c 0
 386.818359375 528 453.971679688 496.51953125 501 446.018554688 c 1
 548.028320312 496.51953125 615.181640625 528 690 528 c 0
 832 528 948 413 948 270 c 0
 948 251.328125 949 233 949 218 c 1
 597.985351562 215.3203125 l 1
 616.489257812 184.45703125 650.416015625 164 690 164 c 0
 704.516601562 164 926 167 939 172 c 1
 939 16 l 1
 926 14 703.946289062 13 690 13 c 0
 615.181640625 13 548.028320312 44.48046875 501 94.837890625 c 1
 453.971679688 44.48046875 386.818359375 13 312 13 c 0
 310.956054688 13 309.92578125 13.001953125 308.90625 13.001953125 c 0
592.680664062 306.67578125 m 1
 788.883789062 304.1015625 l 1
 764.395507812 330.966796875 729.046875 385.099609375 689.8046875 385.099609375 c 0
 651.188476562 385.099609375 616.879882812 332.025390625 592.680664062 306.67578125 c 1
309.955078125 376.982421875 m 0
 301.641601562 376.842773438 293.393554688 375.848632812 286 374 c 1
 286 374.828125 l 1
 236.8984375 364.9453125 201 322.4375 201 270 c 0
 201 218.436523438 236.8984375 176.0390625 286 166.169921875 c 1
 286 167 l 1
 293.393554688 165.151367188 301.641601562 164.157226562 309.955078125 164.017578125 c 0
 318.23046875 164.163085938 326.280273438 165.234375 334 167.131835938 c 1
 334 166.169921875 l 1
 383.1015625 176.0390625 419 218.436523438 419 270 c 0
 419 322.4375 383.1015625 364.9453125 334 374.828125 c 1
 334 373.864257812 l 1
 326.280273438 375.765625 318.23046875 376.836914062 309.955078125 376.982421875 c 0
EndSplineSet
EndChar

StartChar: tcaron
Encoding: 357 357 338
Width: 630
VWidth: 0
Flags: HW
HStem: 7 151<328.285 459.024> 374 152<50 146.274 312 409> 751 20G<145 312>
VStem: 146.274 165.726<178.881 374 526 771>
LayerCount: 2
Fore
SplineSet
464 16 m 1
 441 10 418 7 393 7 c 0
 275 7 179 85 148 194 c 1
 147.064453125 374 l 1
 50 374 l 1
 50 526 l 1
 146.2734375 526 l 1
 145 771 l 1
 312 771 l 1
 312 526 l 1
 409 526 l 1
 409 374 l 1
 312 374 l 1
 312 195 l 1
 332 172 360 158 393 158 c 0
 420 158 445 168 464 184 c 1
 464 16 l 1
441 514 m 1
 441 771 l 1
 593 771 l 1
 548 514 l 1
 441 514 l 1
EndSplineSet
EndChar

StartChar: uni0237
Encoding: 567 567 343
Width: 419
VWidth: 0
Flags: HW
HStem: -194 151<55.4451 185.159> 507 20G<202 369> 640 142<214 366>
VStem: 202 164<-22.1189 527> 214 152<640 782>
LayerCount: 2
Fore
SplineSet
50 -185 m 1
 50 -17 l 1
 69 -33 94 -43 121 -43 c 0
 154 -43 182 -29 202 -6 c 1
 202 527 l 1
 369 527 l 1
 366 -7 l 1
 335 -116 239 -194 121 -194 c 0
 96 -194 73 -191 50 -185 c 1
EndSplineSet
EndChar

StartChar: uni1E9E
Encoding: 7838 7838 359
Width: 771
VWidth: 0
Flags: HW
LayerCount: 2
Fore
SplineSet
238.615234375 57 m 1
 305.615234375 169 l 1
 311.615234375 163 318.615234375 160 327.615234375 157 c 0
 380.615234375 133 424.615234375 141 450.615234375 172 c 0
 479.615234375 206 428.615234375 212 374.615234375 221 c 1
 246.615234375 272 175.615234375 450 250.615234375 539 c 0
 311.99609375 613.046875 356.811523438 703.086914062 481.775390625 654.022460938 c 0
 482.515625 654.0078125 483.256835938 654 484 654 c 0
 544 654 591 606 591 666 c 0
 591 730.255859375 215.541992188 742.190429688 173 693 c 1
 173 12 l 1
 6 12 l 1
 9 694 l 1
 25 749.333007812 55.3330078125 794.333007812 100 829 c 0
 239.345703125 937.1484375 742 866.984375 742 666 c 0
 742 293.000976562 540.864257812 642.412109375 425.615234375 505 c 0
 395.615234375 470 392.615234375 391 456.615234375 380 c 1
 575.615234375 330 678.615234375 174 602.615234375 85 c 0
 540.615234375 9 387.615234375 -11 260.615234375 44 c 0
 253.615234375 46 246.615234375 51 238.615234375 57 c 1
EndSplineSet
EndChar

StartChar: uni0982
Encoding: 2434 2434 365
Width: 445
VWidth: 0
Flags: HW
HStem: 92 75<498.188 521.812> 274 75<498.188 521.812> 493 75<193.188 216.812> 675 75<193.188 216.812>
VStem: 75 76<578.334 664.111> 259 76<578.933 663.698> 380 76<177.334 263.111> 564 76<177.933 262.698>
LayerCount: 2
Fore
SplineSet
158 437 m 5
 391 79 l 5
 285 18 l 5
 52 376 l 5
 158 437 l 5
205 675 m 0
 201 675 197 674 193 673 c 1
 193 674 l 1
 168 669 151 647 151 621 c 0
 151 595 168 574 193 569 c 1
 193 570 l 1
 197 569 201 568 205 568 c 0
 209 568 213 569 217 570 c 1
 217 569 l 1
 242 574 259 595 259 621 c 0
 259 647 242 669 217 674 c 1
 217 673 l 1
 213 674 209 675 205 675 c 0
204 493 m 0
 203 493 203 493 202 493 c 0
 200 493 197 493 195 493 c 0
 128 498 75 553 75 621 c 0
 75 689 128 745 195 750 c 0
 197 750 200 750 202 750 c 0
 203 750 203 750 204 750 c 0
 205 750 205 750 206 750 c 0
 278 750 335 693 335 621 c 0
 335 550 278 493 206 493 c 0
 205 493 205 493 204 493 c 0
EndSplineSet
EndChar

StartChar: uni0983
Encoding: 2435 2435 366
Width: 445
VWidth: 0
Flags: HW
LayerCount: 2
Fore
SplineSet
205 675 m 4
 201 675 197 674 193 673 c 5
 193 674 l 5
 168 669 151 647 151 621 c 4
 151 595 168 574 193 569 c 5
 193 570 l 5
 197 569 201 568 205 568 c 4
 209 568 213 569 217 570 c 5
 217 569 l 5
 242 574 259 595 259 621 c 4
 259 647 242 669 217 674 c 5
 217 673 l 5
 213 674 209 675 205 675 c 4
204 493 m 4
 203 493 203 493 202 493 c 4
 200 493 197 493 195 493 c 4
 128 498 75 553 75 621 c 4
 75 689 128 745 195 750 c 4
 197 750 200 750 202 750 c 4
 203 750 203 750 204 750 c 4
 205 750 205 750 206 750 c 4
 278 750 335 693 335 621 c 4
 335 550 278 493 206 493 c 4
 205 493 205 493 204 493 c 4
205 275 m 0
 201 275 197 274 193 273 c 1
 193 274 l 1
 168 269 151 247 151 221 c 0
 151 195 168 174 193 169 c 1
 193 170 l 1
 197 169 201 168 205 168 c 0
 209 168 213 169 217 170 c 1
 217 169 l 1
 242 174 259 195 259 221 c 0
 259 247 242 269 217 274 c 1
 217 273 l 1
 213 274 209 275 205 275 c 0
204 93 m 0
 203 93 203 93 202 93 c 0
 200 93 197 93 195 93 c 0
 128 98 75 153 75 221 c 0
 75 289 128 345 195 350 c 4
 197 350 200 350 202 350 c 4
 203 350 203 350 204 350 c 4
 205 350 205 350 206 350 c 4
 278 350 335 293 335 221 c 0
 335 150 278 93 206 93 c 0
 205 93 205 93 204 93 c 0
EndSplineSet
EndChar

StartChar: uni098A
Encoding: 2442 2442 367
Width: 612
VWidth: 0
Flags: HW
HStem: 13.002 151.016<238.473 368.671> 376 151.998<304 436> 681 132<-5 436 543.755 611>
LayerCount: 2
Fore
SplineSet
611 813 m 1
 611 681 l 1
 436 681 l 1
 436 493.791992188 l 1
 514.611328125 449.66015625 567.310546875 366.931640625 565 270 c 0
 561.541015625 124.885742188 447.287109375 12.7998046875 303.90625 13.001953125 c 0
 134.0390625 13.240234375 50.1650390625 141.7890625 51.0009765625 271 c 1
 196.00390625 271 l 1
 196.000976562 270.666992188 196 270.333984375 196 270 c 0
 196 209.8828125 241.772460938 165.08203125 304.955078125 164.017578125 c 0
 367.911132812 165.126953125 414 209.63671875 414 270 c 0
 414 326.657226562 374.735351562 369.046875 318.932617188 376 c 1
 304 376 l 1
 304 527.622070312 l 2
 303.96875 527.870117188 303.9375 527.998046875 303.905273438 527.998046875 c 1
 303.936523438 527.998046875 303.96875 527.998046875 304 527.998046875 c 1
 304 681 l 1
 -5 681 l 1
 -5 813 l 1
 294.169921875 813 l 1
 288.783203125 839.090820312 278.6640625 866.108398438 260 885 c 0
 228.591796875 915.81640625 227.884765625 916.5234375 196.771484375 947.635742188 c 0
 150.102539062 994.3046875 91.4130859375 975.212890625 44.7431640625 1021.88183594 c 0
 9.388671875 1057.23730469 3.7314453125 1142.09082031 3.7314453125 1142.09082031 c 1
 92.1201171875 1230.47851562 l 1
 92.1201171875 1230.47851562 99.8984375 1143.50488281 135.959960938 1107.44238281 c 0
 181.21484375 1062.1875 238.491210938 1084.10742188 283.74609375 1038.85253906 c 0
 317.686523438 1004.91210938 320.515625 1002.08300781 354.456054688 968.142578125 c 0
 404.484375 918.114257812 385.005859375 820.403320312 387.690429688 820.356445312 c 1
 380.333984375 813 l 1
 611 813 l 1
EndSplineSet
EndChar

StartChar: uni0990
Encoding: 2448 2448 368
Width: 956
VWidth: 0
Flags: HW
HStem: 620 151<310.445 440.159>
VStem: 2.5 151<192.508 322.889>
LayerCount: 2
Fore
SplineSet
305 762 m 1
 328 768 351 771 376 771 c 0
 494 771 590 693 621 584 c 1
 621.704101562 448.546875 l 1
 651.97265625 437.771484375 699.5234375 423.37109375 736 424 c 0
 758 424 770 442 775 463 c 0
 800.106445312 572.842773438 738.099609375 693.875976562 662.560546875 769.412109375 c 0
 615.891601562 816.081054688 557.202148438 796.989257812 510.532226562 843.658203125 c 0
 475.177734375 879.013671875 469.520507812 963.8671875 469.520507812 963.8671875 c 1
 557.909179688 1052.25488281 l 1
 557.909179688 1052.25488281 565.6875 965.28125 601.749023438 929.21875 c 0
 647.00390625 883.963867188 704.280273438 905.883789062 749.53515625 860.62890625 c 0
 783.475585938 826.688476562 786.3046875 823.859375 820.245117188 789.918945312 c 0
 870.1328125 740.03125 983.61328125 417.951171875 847 352 c 0
 802 331 773 322 724 322 c 0
 692.086914062 322 650.744140625 332.477539062 622.262695312 341.048828125 c 1
 624 7 l 5
 476.245117188 5.912109375 337.399414062 13.732421875 189.5 12.5 c 5
 134.166992188 28.5 89.1669921875 58.8330078125 54.5 103.5 c 0
 19.8330078125 148.166992188 2.5 199.5 2.5 257.5 c 0
 2.5 282.166992188 5.5 305.833007812 11.5 328.5 c 1
 179.5 328.5 l 1
 162.166992188 307.833007812 153.5 284.166992188 153.5 257.5 c 0
 153.5 224.833007812 165.833007812 197.833007812 190.5 176.5 c 1
 457 176.5 l 1
 457 583 l 1
 437 606 409 620 376 620 c 0
 349 620 324 610 305 594 c 1
 305 762 l 1
EndSplineSet
EndChar

StartChar: uni0994
Encoding: 2452 2452 369
Width: 616
VWidth: 0
Flags: HW
HStem: 13.002 151.016<238.473 368.671> 376 151.998<304 436> 681 132<-5 436 543.755 611>
LayerCount: 2
Fore
SplineSet
287 692 m 0
 280.208007812 691.634765625 231.076171875 687.51953125 225 686 c 1
 227.624023438 686.109375 204.358398438 770.163085938 207 770 c 0
 218.190429688 769.309570312 279.141601562 810.811523438 331 818 c 0
 474.5234375 837.895507812 572.978515625 727.309570312 570 575 c 0
 569.127929688 530.397460938 558.272460938 488.447265625 538.524414062 451.892578125 c 1
 567.556640625 441.0625 621.578125 423.302734375 662 424 c 0
 684 424 696 442 701 463 c 0
 726.106445312 572.842773438 664.099609375 693.875976562 588.560546875 769.412109375 c 0
 541.891601562 816.081054688 483.202148438 796.989257812 436.532226562 843.658203125 c 0
 401.177734375 879.013671875 395.520507812 963.8671875 395.520507812 963.8671875 c 1
 483.909179688 1052.25488281 l 1
 483.909179688 1052.25488281 491.6875 965.28125 527.749023438 929.21875 c 0
 573.00390625 883.963867188 630.280273438 905.883789062 675.53515625 860.62890625 c 0
 709.475585938 826.688476562 712.3046875 823.859375 746.245117188 789.918945312 c 0
 796.1328125 740.03125 909.61328125 417.951171875 773 352 c 0
 728 331 699 322 650 322 c 0
 622.655273438 322 588.38671875 329.692382812 561.21875 337.287109375 c 1
 566.947265625 315.852539062 570 293.297851562 570 270 c 0
 570 128 455 13 312 13 c 0
 310.956054688 13 309.92578125 13.001953125 308.90625 13.001953125 c 0
 308.603515625 13.001953125 308.301757812 13 308 13 c 0
 306.815429688 13 305.631835938 13.0078125 304.451171875 13.0234375 c 0
 299.662109375 13.0693359375 295.004882812 13.205078125 290.133789062 13.6025390625 c 0
 155.541992188 22.708984375 50 133.96484375 50 270 c 0
 50 325.204101562 67.138671875 376.235351562 96.41015625 418.088867188 c 1
 92.798828125 417.602539062 108 422 108 422 c 1
 286.961914062 372.549804688 201 414.8828125 201 270 c 0
 201 209.87890625 246.760742188 165.08203125 309.955078125 164.017578125 c 0
 372.901367188 165.126953125 419 209.640625 419 270 c 0
 419 322.4375 383.1015625 364.9453125 334 374.828125 c 1
 334 373.864257812 l 1
 309.955078125 469.017578125 l 1
 318.23046875 469.163085938 326.280273438 470.234375 334 472.131835938 c 1
 334 471.169921875 l 1
 383.1015625 481.0390625 419 523.436523438 419 575 c 0
 419 653.3203125 365.104492188 696.1953125 287 692 c 0
EndSplineSet
EndChar

StartChar: uni099E
Encoding: 2462 2462 370
Width: 821
VWidth: 0
Flags: HW
HStem: 620 151<310.445 440.159>
VStem: 2.5 151<192.508 322.889>
LayerCount: 2
Fore
SplineSet
11.5 328.5 m 1
 179.5 328.5 l 1
 162.166992188 307.833007812 153.5 284.166992188 153.5 257.5 c 0
 153.5 224.833007812 165.833007812 197.833007812 190.5 176.5 c 1
 457 176.5 l 1
 457 583 l 1
 437 606 409 620 376 620 c 0
 349 620 324 610 305 594 c 1
 305 762 l 1
 328 768 351 771 376 771 c 0
 487.87890625 771 579.981445312 700.881835938 615.657226562 600.705078125 c 1
 628 606.860351562 644.509765625 614.671875 659.5 616.75 c 0
 731.26171875 626.698242188 780.489257812 571.404296875 779 495.25 c 0
 778.443359375 466.7890625 769.756835938 440.486328125 754.07421875 419.196289062 c 1
 769.756835938 397.833984375 779 371.416992188 779 342.75 c 0
 779 271.75 721.5 214.25 650 214.25 c 0
 649.478515625 214.25 648.962890625 214.250976562 648.453125 214.250976562 c 0
 648.301757812 214.250976562 648.151367188 214.25 648 214.25 c 0
 647.407226562 214.25 646.81640625 214.25390625 646.225585938 214.26171875 c 0
 643.831054688 214.28515625 641.502929688 214.352539062 639.067382812 214.55078125 c 0
 633.578125 214.921875 628.185546875 215.633789062 622.91015625 216.6640625 c 1
 624 7 l 1
 457 7 l 1
 457 10.3017578125 l 1
 189.5 12.5 l 1
 134.166992188 28.5 89.1669921875 58.8330078125 54.5 103.5 c 0
 19.8330078125 148.166992188 2.5 199.5 2.5 257.5 c 0
 2.5 282.166992188 5.5 305.833007812 11.5 328.5 c 1
622.497070312 296.150390625 m 1
 630.201171875 292.196289062 639.168945312 289.923828125 648.977539062 289.758789062 c 0
 680.450195312 290.313476562 703.5 312.5703125 703.5 342.75 c 0
 703.5 368.96875 685.55078125 390.22265625 661 395.1640625 c 1
 661 394.682617188 l 1
 648.977539062 442.258789062 l 1
 653.115234375 442.33203125 657.140625 442.8671875 661 443.81640625 c 1
 661 443.334960938 l 1
 685.55078125 448.26953125 703.5 469.46875 703.5 495.25 c 0
 703.5 534.41015625 676.551757812 555.84765625 637.5 553.75 c 0
 635.744140625 553.655273438 628.334960938 553.060546875 621.1640625 552.40234375 c 1
 622.497070312 296.150390625 l 1
EndSplineSet
EndChar

StartChar: uni099D
Encoding: 2461 2461 371
Width: 944
VWidth: 0
Flags: HW
HStem: 681 132<0 524 670 723> 681 106<524 670>
VStem: 524 146<11 83.5 235.5 483.5 635.5 787> 524 57.5<83.5 235.5 483.5 483.5>
LayerCount: 2
Fore
SplineSet
670 681 m 1
 670 294.02734375 l 1
 673 297 l 1
 749 221 l 1
 749 681 l 1
 670 681 l 1
944 813 m 1
 944 681 l 1
 901 681 l 1
 901 10 l 1
 749.018554688 10 l 1
 747 8 l 1
 670 85 l 1
 670 11 l 1
 525.5 11 l 1
 525.5 10.5 l 1
 70.5 283.5 l 1
 70.5 435.5 l 1
 524 612.995117188 l 1
 524 681 l 1
 0 681 l 1
 0 813 l 1
 944 813 l 1
524 163.450195312 m 1
 524 464.072265625 l 1
 214.5 359.5 l 1
 524 163.450195312 l 1
EndSplineSet
EndChar

StartChar: uni099C
Encoding: 2460 2460 372
Width: 616
VWidth: 0
Flags: HW
HStem: 13.0016 151.016<243.473 373.671> 376 151.998<309 441> 681 132<0 309 441 616> 681 80<309 441>
VStem: 309 132<527.998 761>
LayerCount: 2
Fore
SplineSet
616 813 m 1
 616 681 l 1
 441 681 l 1
 441 493.791992188 l 1
 519.610351562 449.66015625 572.310546875 366.931640625 570 270 c 0
 566.541015625 124.885742188 452.287109375 12.7998046875 308.90625 13.001953125 c 0
 139.0390625 13.240234375 55.1650390625 141.7890625 56.0009765625 271 c 1
 201.00390625 271 l 1
 201.000976562 270.666992188 201 270.333984375 201 270 c 0
 201 209.8828125 246.772460938 165.08203125 309.955078125 164.017578125 c 0
 372.911132812 165.126953125 419 209.63671875 419 270 c 0
 419 326.657226562 379.734375 369.046875 323.932617188 376 c 1
 309 376 l 1
 309 527.624023438 l 2
 308.96875 527.87109375 308.9375 527.998046875 308.905273438 527.998046875 c 1
 308.9375 527.998046875 308.96875 527.998046875 309 527.998046875 c 1
 309 681 l 1
 0 681 l 1
 0 813 l 1
 616 813 l 1
EndSplineSet
EndChar

StartChar: uni09A3
Encoding: 2467 2467 373
Width: 613
VWidth: 0
Flags: HW
LayerCount: 2
Fore
SplineSet
411.5 860 m 1
 563.5 860 l 1
 563.5 813 l 1
 611.5 813 l 1
 611.5 681 l 1
 563.5 681 l 1
 563.5 532.630859375 l 2
 564.491210938 523.39453125 565 514.008789062 565 504.5 c 0
 565 495.7265625 564.560546875 487.053710938 563.704101562 478.5 c 1
 563.5 478.5 l 1
 563.5 8 l 1
 411.5 8 l 1
 411.5 478.5 l 1
 410.864257812 478.5 l 1
 411.087890625 479.407226562 411.299804688 480.318359375 411.5 481.235351562 c 2
 411.5 528.0703125 l 1
 401.03515625 576.364257812 358.876953125 611.5 307 611.5 c 0
 248 611.5 201 564.5 201 504.5 c 0
 201 495.536132812 202.084960938 486.826171875 204.131835938 478.5 c 1
 51.2958984375 478.5 l 1
 50.4384765625 487.053710938 50 495.7265625 50 504.5 c 0
 50 647.5 165 762.5 307 762.5 c 0
 344.245117188 762.5 379.590820312 754.698242188 411.5 740.633789062 c 1
 411.5 860 l 1
EndSplineSet
EndChar

StartChar: uni0964
Encoding: 2404 2404 374
Width: 252
VWidth: 0
Flags: HW
HStem: 8 21G<50 202> 502 20G<50 202> 640 142<50 202>
VStem: 50 152<8 522 640 782>
LayerCount: 2
Fore
SplineSet
202 380 m 1
 202 -20 l 1
 50 -20 l 1
 50 380 l 1
 202 380 l 1
EndSplineSet
EndChar

StartChar: uni0981
Encoding: 2433 2433 376
Width: 0
Flags: HW
LayerCount: 2
Fore
SplineSet
-61 668 m 1
 -61 782 l 1
 61 782 l 1
 61 668 l 1
 -61 668 l 1
193 629 m 1
 193 623 193 616 193 610 c 0
 193 502 107 416 1 416 c 0
 -107 416 -193 502 -193 610 c 0
 -193 616 -193 623 -193 629 c 1
 -77 629 l 1
 -79 623 -80 616 -80 610 c 0
 -80 565 -44 529 1 529 c 0
 46 529 80 565 80 610 c 0
 80 616 79 623 77 629 c 1
 193 629 l 1
EndSplineSet
EndChar

StartChar: uni09AD
Encoding: 2477 2477 377
Width: 726
VWidth: 75
Flags: HW
HStem: 14.7002 133.6<305.264 468.805> 523.479 120.821<395.987 467.023> 681 132<0 726>
VStem: 92.4004 111.399<250.829 338.876> 570.2 133.399<250.829 424.049>
LayerCount: 2
Fore
SplineSet
726 813 m 1
 726 681 l 1
 0 681 l 1
 0 813 l 1
 726 813 l 1
395.098632812 627 m 1
 395.987304688 644.29296875 l 2
 396.657226562 644.297851562 397.328125 644.299804688 398 644.299804688 c 0
 433.107421875 644.299804688 466.830078125 638.208984375 498.2265625 627 c 1
 509 627 l 1
 509 622.916992188 l 1
 622.907226562 577.208984375 703.599609375 463.228515625 703.599609375 329.900390625 c 0
 703.599609375 155.5 566.799804688 14.7001953125 398 14.7001953125 c 0
 229.200195312 14.7001953125 92.400390625 155.5 92.400390625 329.900390625 c 0
 92.400390625 330.77734375 203.86328125 340.658203125 203.870117188 341.533203125 c 1
 203.823242188 339.794921875 203.799804688 338.049804688 203.799804688 336.299804688 c 0
 203.799804688 232.299804688 285.400390625 148.299804688 387 148.299804688 c 0
 488.599609375 148.299804688 570.200195312 232.299804688 570.200195312 336.299804688 c 0
 570.200195312 406.395507812 532.5546875 467.6328125 476.567382812 499.708007812 c 1
 442.103515625 447.833007812 383.486328125 414 317 414 c 0
 209 414 123 500 123 608 c 0
 123 614 123 621 123 627 c 1
 239 627 l 1
 237 621 236 614 236 608 c 0
 236 563 272 527 317 527 c 0
 354.05859375 527 383.65625 551.4140625 392.94921875 585.1640625 c 1
 394.754882812 620.306640625 l 2
 394.296875 622.604492188 393.711914062 624.865234375 393 627 c 1
 395.098632812 627 l 1
EndSplineSet
EndChar

StartChar: uni09A7
Encoding: 2471 2471 378
Width: 752
Flags: HW
LayerCount: 2
Fore
SplineSet
702.5 813 m 1
 702.5 681 l 1
 649.5 681 l 1
 649.5 11 l 1
 503.5 11 l 1
 503.5 12.798828125 l 1
 50 283.5 l 1
 50 435.5 l 1
 188.990234375 489.899414062 l 1
 159.646484375 523.573242188 142 567.484375 142 615.5 c 0
 142 723.5 228 809.5 336 809.5 c 0
 342 809.5 349 809.5 355 809.5 c 1
 355 693.5 l 1
 349 695.5 342 696.5 336 696.5 c 0
 291 696.5 255 660.5 255 615.5 c 0
 255 577.858398438 280.189453125 547.913085938 314.765625 539.126953125 c 1
 503.5 612.995117188 l 1
 503.5 787 l 1
 504.5 787 l 1
 504.5 813 l 1
 702.5 813 l 1
503.5 164.814453125 m 1
 503.5 464.072265625 l 1
 194 359.5 l 1
 503.5 164.814453125 l 1
EndSplineSet
EndChar

StartChar: uni09A8
Encoding: 2472 2472 379
Width: 661
VWidth: 0
Flags: HW
LayerCount: 2
Fore
SplineSet
661 813 m 1
 661 681 l 1
 616 681 l 1
 616 132.997070312 l 2
 619.60546875 115.749023438 621.5 97.8544921875 621.5 79.5 c 0
 621.5 70.7265625 621.060546875 62.0537109375 620.204101562 53.5 c 1
 616 53.5 l 1
 616 8 l 1
 464 8 l 1
 464 116.954101562 l 1
 449.125 157.953125 410.260742188 186.5 363.5 186.5 c 0
 304.5 186.5 257.5 139.5 257.5 79.5 c 0
 257.5 70.5361328125 258.584960938 61.826171875 260.631835938 53.5 c 1
 107.795898438 53.5 l 1
 106.938476562 62.0537109375 106.5 70.7265625 106.5 79.5 c 0
 106.5 222.5 221.5 337.5 363.5 337.5 c 0
 399.1953125 337.5 433.146484375 330.333984375 464 317.356445312 c 1
 464 681 l 1
 0 681 l 1
 0 813 l 1
 464 813 l 1
 616 813 l 1
 661 813 l 1
EndSplineSet
EndChar

StartChar: uni09B6
Encoding: 2486 2486 380
Width: 642
Flags: HW
LayerCount: 2
Fore
SplineSet
0 715.5 m 1
 6 715.5 13 715.5 19 715.5 c 0
 118.685546875 715.5 199.627929688 642.232421875 211.5 547.596679688 c 1
 223.372070312 642.232421875 304.314453125 715.5 404 715.5 c 0
 410 715.5 417 715.5 423 715.5 c 1
 423 710.87109375 l 1
 442.5 694.265625 l 1
 442.5 857 l 1
 594.5 857 l 1
 594.5 813 l 1
 642.5 813 l 1
 642.5 681 l 1
 594.5 681 l 1
 594.5 8 l 1
 442.5 8 l 1
 442.5 584.649414062 l 1
 423 604.294921875 l 1
 423 599.5 l 1
 417 601.5 410 602.5 404 602.5 c 0
 359 602.5 323 568.5 323 523.5 c 0
 323 478.5 359 442.5 404 442.5 c 0
 410 442.5 417 443.5 423 445.5 c 1
 423 329.5 l 1
 417 329.5 410 329.5 404 329.5 c 0
 304.314453125 329.5 223.372070312 402.767578125 211.5 498.9765625 c 1
 199.627929688 402.767578125 118.685546875 329.5 19 329.5 c 0
 13 329.5 6 329.5 0 329.5 c 1
 0 445.5 l 1
 6 443.5 13 442.5 19 442.5 c 0
 64 442.5 100 478.5 100 523.5 c 0
 100 568.5 64 602.5 19 602.5 c 0
 13 602.5 6 601.5 0 599.5 c 1
 0 715.5 l 1
EndSplineSet
EndChar

StartChar: uni0988
Encoding: 2440 2440 381
Width: 1077
VWidth: 0
Flags: HW
HStem: 9 21G<407 593> 681 132<0 307.581 543.755 689>
LayerCount: 2
Fore
SplineSet
236.141601562 482.20703125 m 1
 236.141601562 482.20703125 128.799804688 588.45703125 128.026367188 587.68359375 c 1
 230.65625 690.313476562 392.620117188 692.33203125 495.080078125 589.872070312 c 0
 526.888671875 558.063476562 548.51953125 520.3671875 560.09375 480.42578125 c 1
 638.814453125 544.576171875 l 1
 648.905273438 560.615234375 660.97265625 575.818359375 675.026367188 589.872070312 c 0
 702.493164062 617.338867188 734.235351562 637.296875 767.96484375 649.822265625 c 1
 778 658 l 1
 776.53515625 652.831054688 l 1
 866.62890625 682.658203125 969.28125 660.482421875 1042.08007812 587.68359375 c 1
 1041.30664062 588.45703125 933.96484375 482.20703125 933.96484375 482.20703125 c 1
 888.588867188 525.487304688 824.943359375 526.244140625 781.799804688 483.099609375 c 0
 739.116210938 440.416015625 740.233398438 376.353515625 783.96484375 331.051757812 c 0
 829.39453125 287.127929688 893.439453125 286.440429688 935.948242188 328.950195312 c 0
 936.184570312 329.186523438 936.419921875 329.422851562 936.653320312 329.66015625 c 1
 1039.18554688 227.127929688 l 1
 948.411132812 135.170898438 797.618164062 102.995117188 677.922851562 223.525390625 c 0
 641.263671875 260.440429688 617.456054688 304.904296875 606.677734375 351.443359375 c 1
 534 275 l 1
 532.737304688 275.57421875 l 1
 521.665039062 257.095703125 508.141601562 239.594726562 492.18359375 223.525390625 c 0
 372.48828125 102.995117188 221.6953125 135.170898438 130.920898438 227.127929688 c 1
 233.453125 329.66015625 l 1
 233.686523438 329.422851562 233.921875 329.186523438 234.158203125 328.950195312 c 0
 276.666992188 286.440429688 340.711914062 287.127929688 386.141601562 331.051757812 c 0
 388.659179688 333.66015625 391.036132812 336.331054688 393.271484375 339.055664062 c 1
 389 341 l 1
 402.678710938 352.146484375 l 1
 429.252929688 394.749023438 424.708007812 446.698242188 388.306640625 483.099609375 c 0
 345.163085938 526.244140625 281.517578125 525.487304688 236.141601562 482.20703125 c 1
1077 813 m 1
 1077 681 l 1
 0 681 l 1
 0 813 l 1
 538.489257812 813 l 1
 532.990234375 838.393554688 522.922851562 864.420898438 504.7890625 882.776367188 c 0
 473.380859375 913.592773438 472.673828125 914.299804688 441.560546875 945.412109375 c 0
 394.891601562 992.081054688 336.202148438 972.989257812 289.532226562 1019.65820312 c 0
 254.177734375 1055.01367188 248.520507812 1139.8671875 248.520507812 1139.8671875 c 1
 336.909179688 1228.25488281 l 1
 336.909179688 1228.25488281 344.6875 1141.28125 380.749023438 1105.21875 c 0
 426.00390625 1059.96386719 483.280273438 1081.88378906 528.53515625 1036.62890625 c 0
 562.475585938 1002.68847656 565.3046875 999.859375 599.245117188 965.918945312 c 0
 649.2734375 915.890625 629.794921875 818.1796875 632.479492188 818.1328125 c 1
 627.346679688 813 l 1
 1077 813 l 1
EndSplineSet
EndChar

StartChar: uni0996
Encoding: 2454 2454 382
Width: 752
Flags: HW
LayerCount: 2
Fore
SplineSet
724.5 813 m 1
 724.5 681 l 1
 649.5 681 l 1
 649.5 11 l 1
 503.5 11 l 1
 503.5 787 l 1
 526.5 787 l 1
 526.5 813 l 1
 724.5 813 l 1
319.5 724 m 1
 451.5 724 l 1
 335.5 454 l 1
 334.689453125 455.12109375 l 1
 194 283.5 l 1
 503 169.5 l 1
 503 12.5 l 1
 50 189.5 l 1
 50 341.5 l 1
 296.440429688 571.51171875 l 1
 306.703125 639.375976562 l 1
 280.443359375 563.631835938 209.208007812 510 125.5 510 c 0
 17.5 510 -68.5 596 -68.5 704 c 0
 -68.5 710 -68.5 717 -68.5 723 c 1
 47.5 723 l 1
 45.5 717 44.5 710 44.5 704 c 0
 44.5 659 80.5 623 125.5 623 c 0
 170.5 623 204.5 659 204.5 704 c 0
 204.5 710 203.5 717 201.5 723 c 1
 317.5 723 l 1
 317.5 710.774414062 l 1
 319.5 724 l 1
EndSplineSet
EndChar

StartChar: uni098B
Encoding: 2443 2443 383
Width: 1344
Flags: HW
LayerCount: 2
Fore
SplineSet
922 787 m 1
 1068 787 l 1
 1068 295.5 l 1
 1142.5 221 l 1
 1142.5 786 l 1
 1144.5 786 l 1
 1144.5 805 l 1
 1344.5 805 l 1
 1344.5 673 l 1
 1294.5 673 l 1
 1294.5 10 l 1
 1142.51855469 10 l 1
 1140.5 8 l 1
 1068 80.5 l 1
 1068 11 l 1
 922 11 l 1
 921 11 l 1
 921 11.3935546875 l 1
 468.5 189.5 l 1
 468.5 341.5 l 1
 714.940429688 571.51171875 l 1
 725.203125 639.375976562 l 1
 698.943359375 563.631835938 627.708007812 510 544 510 c 0
 482.708984375 510 428.502929688 537.698242188 393.081054688 581.395507812 c 1
 357.87109375 537.698242188 304.15625 510 244 510 c 0
 136 510 50 596 50 704 c 0
 50 710 50 717 50 723 c 1
 166 723 l 1
 164 717 163 710 163 704 c 0
 163 659 199 623 244 623 c 0
 289 623 323 659 323 704 c 0
 323 710 322 717 320 723 c 1
 350 723 l 1
 436 723 l 1
 466 723 l 1
 464 717 463 710 463 704 c 0
 463 659 499 623 544 623 c 0
 589 623 623 659 623 704 c 0
 623 710 622 717 620 723 c 1
 736 723 l 1
 736 710.774414062 l 1
 738 724 l 1
 922 724 l 1
 922 787 l 1
921 169.684570312 m 1
 921 719.262695312 l 1
 754 454 l 1
 753.189453125 455.12109375 l 1
 612.5 283.5 l 1
 921 169.684570312 l 1
EndSplineSet
EndChar

StartChar: uni09B2
Encoding: 2482 2482 384
Width: 943
VWidth: 0
Flags: HW
LayerCount: 2
Fore
SplineSet
943 813 m 1
 943 681 l 1
 895 681 l 1
 895 56.6669921875 l 2
 895.2265625 55.609375 895.309570312 54.5537109375 895.204101562 53.5 c 2
 895 53.5 l 1
 895 8 l 1
 743 8 l 1
 743 53.5 l 1
 742.364257812 53.5 l 1
 742.587890625 54.4072265625 742.799804688 55.318359375 743 56.2353515625 c 2
 743 103.0703125 l 1
 732.53515625 151.364257812 690.376953125 186.5 638.5 186.5 c 0
 587.051757812 186.5 544.728515625 150.76171875 534.736328125 101.829101562 c 0
 535.572265625 93.3369140625 536 84.720703125 536 76 c 0
 536 69.0615234375 535.725585938 62.1865234375 535.186523438 55.3837890625 c 0
 535.329101562 54.75390625 535.477539062 54.1259765625 535.631835938 53.5 c 1
 535.030273438 53.5 l 2
 534.9296875 52.3310546875 534.8203125 51.1640625 534.704101562 50 c 2
 381.864257812 50 l 1
 382.184570312 51.2998046875 382.48046875 52.6083984375 382.75390625 53.9267578125 c 0
 381.923828125 62.341796875 381.5 70.8720703125 381.5 79.5 c 0
 381.5 86.625 381.755859375 93.6796875 382.258789062 100.654296875 c 0
 371.40234375 148.389648438 329.487304688 183 278 183 c 0
 219 183 172 136 172 76 c 0
 172 67.0361328125 173.084960938 58.326171875 175.131835938 50 c 1
 22.2958984375 50 l 1
 21.4384765625 58.5537109375 21 67.2265625 21 76 c 0
 21 219 136 334 278 334 c 0
 346.041015625 334 407.7421875 307.96484375 453.733398438 265.265625 c 1
 497.030273438 310.038085938 557.108398438 337.5 626.5 337.5 c 0
 668.48046875 337.5 708.046875 327.588867188 743 309.96875 c 1
 743 681 l 1
 0 681 l 1
 0 813 l 1
 743 813 l 1
 895 813 l 1
 943 813 l 1
EndSplineSet
EndChar

StartChar: uni09AF
Encoding: 2479 2479 385
Width: 841
VWidth: 0
Flags: HW
HStem: 20 152<235.1 580.7> 620 152<34.3 378.3>
LayerCount: 2
Fore
SplineSet
76.755859375 190.198242188 m 1
 108.228515625 337.01953125 l 1
 379.267578125 497.461914062 l 1
 118.098632812 681 l 1
 0 681 l 1
 0 813 l 1
 644 813 l 1
 796 813 l 1
 841 813 l 1
 841 681 l 1
 796 681 l 1
 796 8 l 1
 644 8 l 1
 644 10.1826171875 l 1
 76.755859375 190.198242188 l 1
644 166.658203125 m 1
 644 681 l 1
 357.166015625 681 l 1
 540.244140625 578.801757812 l 1
 508.771484375 431.98046875 l 1
 302.186523438 272.055664062 l 1
 644 166.658203125 l 1
EndSplineSet
EndChar

StartChar: uni09AB
Encoding: 2475 2475 386
Width: 1167
VWidth: 0
Flags: HW
HStem: 20 152<235.1 580.7> 620 152<34.3 378.3>
LayerCount: 2
Fore
SplineSet
76.755859375 190.198242188 m 1
 108.228515625 337.01953125 l 1
 379.267578125 497.461914062 l 1
 118.098632812 681 l 1
 0 681 l 1
 0 813 l 1
 1167 813 l 1
 1167 681 l 1
 357.166015625 681 l 1
 540.244140625 578.801757812 l 1
 508.771484375 431.98046875 l 1
 302.186523438 272.055664062 l 1
 644 166.658203125 l 1
 644 333 l 1
 644.51171875 333 l 1
 645.842773438 474.837890625 760.328125 588.5 901.5 588.5 c 0
 1044.5 588.5 1159.5 473.5 1159.5 330.5 c 0
 1159.5 321.7265625 1159.06054688 313.053710938 1158.20410156 304.5 c 1
 1005.36425781 304.5 l 1
 1007.41503906 312.826171875 1008.5 321.536132812 1008.5 330.5 c 0
 1008.5 390.5 961.5 437.5 901.5 437.5 c 0
 843.322265625 437.5 796.811523438 391.80078125 795.52734375 333 c 1
 796 333 l 1
 796 320.0078125 l 2
 796.506835938 314.716796875 797.393554688 309.538085938 798.631835938 304.5 c 1
 796 304.5 l 1
 796 8 l 1
 644 8 l 1
 644 10.1826171875 l 1
 76.755859375 190.198242188 l 1
EndSplineSet
EndChar

StartChar: uni0997
Encoding: 2455 2455 387
Width: 690
VWidth: 0
Flags: HW
LayerCount: 2
Fore
SplineSet
68.615234375 393 m 1
 135.615234375 505 l 1
 141.615234375 499 148.615234375 496 157.615234375 493 c 0
 210.615234375 469 254.615234375 477 280.615234375 508 c 0
 309.615234375 542 258.615234375 548 204.615234375 557 c 1
 76.615234375 608 5.615234375 691 80.615234375 780 c 0
 143.615234375 856 296.615234375 873 423.615234375 819 c 0
 427.018554688 817.541992188 456.892578125 803.083984375 487.5 787.921875 c 1
 487.5 860 l 1
 639.5 860 l 1
 639.5 813 l 1
 687.5 813 l 1
 687.5 681 l 1
 639.5 681 l 1
 639.5 8 l 1
 487.5 8 l 1
 487.5 623.240234375 l 1
 470.359375 632.84765625 365.095703125 687.172851562 356.615234375 690 c 0
 303.615234375 712 281.615234375 705 255.615234375 674 c 0
 225.615234375 639 222.615234375 632 286.615234375 621 c 1
 405.615234375 571 508.615234375 510 432.615234375 421 c 0
 370.615234375 345 217.615234375 325 90.615234375 380 c 0
 83.615234375 382 76.615234375 387 68.615234375 393 c 1
EndSplineSet
EndChar

StartChar: uni098C
Encoding: 2444 2444 388
Width: 779
VWidth: 0
Flags: HW
HStem: 626 157<51.091 217.973> -4 161<51.091 217.973>
VStem: 352 153<292.8 487.701>
LayerCount: 2
Fore
SplineSet
98.1552734375 113.778320312 m 1
 97.2978515625 122.33203125 96.859375 131.004882812 96.859375 139.778320312 c 0
 96.859375 282.778320312 211.859375 397.779296875 353.859375 397.779296875 c 0
 448.783203125 397.779296875 531.369140625 347.10546875 576.170898438 271.20703125 c 1
 594.932617188 347.665039062 573.635742188 432.482421875 513.10546875 493.012695312 c 0
 421.181640625 584.936523438 274.810546875 587.05859375 185.0078125 497.255859375 c 0
 166.9375 479.185546875 152.58984375 458.826171875 141.946289062 437.079101562 c 1
 27.443359375 551.583007812 l 1
 40.8232421875 571.619140625 56.337890625 590.618164062 73.9921875 608.271484375 c 0
 223.19140625 757.470703125 468.557617188 753.935546875 622.70703125 599.786132812 c 0
 776.1484375 446.34375 779.684570312 200.977539062 630.485351562 51.7783203125 c 0
 612.831054688 34.125 593.83203125 18.6103515625 573.797851562 5.228515625 c 1
 465.248046875 113.778320312 l 1
 457.724609375 113.778320312 l 1
 458.227539062 115.819335938 458.671875 117.883789062 459.056640625 119.969726562 c 2
 456.470703125 122.555664062 l 1
 457.567382812 123.092773438 458.66015625 123.639648438 459.75 124.1953125 c 0
 460.481445312 129.283203125 460.860351562 134.486328125 460.859375 139.778320312 c 0
 460.860351562 199.778320312 413.859375 246.779296875 353.859375 246.778320312 c 0
 294.859375 246.779296875 247.859375 199.778320312 247.860351562 139.778320312 c 0
 247.859375 130.814453125 248.9453125 122.104492188 250.991210938 113.778320312 c 1
 98.1552734375 113.778320312 l 1
EndSplineSet
EndChar

StartChar: uni09EF
Encoding: 2543 2543 389
Width: 779
VWidth: 0
Flags: HW
HStem: 626 157<51.091 217.973> -4 161<51.091 217.973>
VStem: 352 153<292.8 487.701>
LayerCount: 2
Fore
SplineSet
98.1552734375 113.778320312 m 1
 97.2978515625 122.33203125 96.859375 131.004882812 96.859375 139.778320312 c 0
 96.859375 282.778320312 211.859375 397.779296875 353.859375 397.779296875 c 0
 448.783203125 397.779296875 531.369140625 347.10546875 576.170898438 271.20703125 c 1
 594.932617188 347.665039062 573.635742188 432.482421875 513.10546875 493.012695312 c 0
 421.181640625 584.936523438 274.810546875 587.05859375 185.0078125 497.255859375 c 0
 166.9375 479.185546875 152.58984375 458.826171875 141.946289062 437.079101562 c 1
 27.443359375 551.583007812 l 1
 40.8232421875 571.619140625 56.337890625 590.618164062 73.9921875 608.271484375 c 0
 223.19140625 757.470703125 468.557617188 753.935546875 622.70703125 599.786132812 c 0
 776.1484375 446.34375 779.684570312 200.977539062 630.485351562 51.7783203125 c 0
 612.831054688 34.125 593.83203125 18.6103515625 573.797851562 5.228515625 c 1
 465.248046875 113.778320312 l 1
 457.724609375 113.778320312 l 1
 458.227539062 115.819335938 458.671875 117.883789062 459.056640625 119.969726562 c 2
 456.470703125 122.555664062 l 1
 457.567382812 123.092773438 458.66015625 123.639648438 459.75 124.1953125 c 0
 460.481445312 129.283203125 460.860351562 134.486328125 460.859375 139.778320312 c 0
 460.860351562 199.778320312 413.859375 246.779296875 353.859375 246.778320312 c 0
 294.859375 246.779296875 247.859375 199.778320312 247.860351562 139.778320312 c 0
 247.859375 130.814453125 248.9453125 122.104492188 250.991210938 113.778320312 c 1
 98.1552734375 113.778320312 l 1
EndSplineSet
EndChar

StartChar: uni09EC
Encoding: 2540 2540 390
Width: 616
VWidth: 0
Flags: HW
HStem: 13.0016 151.016<243.473 373.671> 376 151.998<309 441> 681 132<0 309 441 616> 681 80<309 441>
VStem: 309 132<527.998 761>
LayerCount: 2
Fore
SplineSet
309 761 m 1
 441 761 l 1
 441 493.791992188 l 1
 519.610351562 449.66015625 572.310546875 366.931640625 570 270 c 0
 566.541015625 124.885742188 452.287109375 12.7998046875 308.90625 13.001953125 c 0
 139.0390625 13.240234375 55.1650390625 141.7890625 56.0009765625 271 c 1
 201.00390625 271 l 1
 201.000976562 270.666992188 201 270.333984375 201 270 c 0
 201 209.8828125 246.772460938 165.08203125 309.955078125 164.017578125 c 0
 372.911132812 165.126953125 419 209.63671875 419 270 c 0
 419 326.657226562 379.734375 369.046875 323.932617188 376 c 1
 309 376 l 1
 309 527.624023438 l 2
 308.96875 527.87109375 308.9375 527.998046875 308.905273438 527.998046875 c 1
 308.9375 527.998046875 308.96875 527.998046875 309 527.998046875 c 1
 309 761 l 1
EndSplineSet
EndChar

StartChar: uni09ED
Encoding: 2541 2541 391
Width: 534
VWidth: 0
Flags: HW
HStem: 275 151<243.471 332> 639 150<243.591 331.625>
VStem: 332 152<13 276 426.026 638.974> 50 151<468.471 596.934>
LayerCount: 2
Fore
SplineSet
332 636 m 1
 324 638 316 639 308 639 c 0
 248 639 201 592 201 533 c 0
 201 473 248 426 308 426 c 0
 316 426 324 427 332 429 c 1
 332 636 l 1
332 13 m 1
 332 276 l 1
 324 275 316 275 308 275 c 0
 165 275 50 390 50 533 c 0
 50 675 165 790 308 790 c 0
 316 790 403 797 445 762 c 0
 483 730 484 641 484 641 c 1
 484 13 l 1
 332 13 l 1
EndSplineSet
EndChar

StartChar: uni09EE
Encoding: 2542 2542 392
Width: 692
VWidth: 0
Flags: HW
HStem: 377.571 151<202 290.529> 14.5714 150<202.375 290.409>
VStem: 50 152<527.571 790.571 164.597 377.545> 333 151<206.637 335.1>
LayerCount: 2
Fore
SplineSet
202 790.571289062 m 1
 202 527.571289062 l 1
 210 528.571289062 218 528.571289062 226 528.571289062 c 0
 235.734375 528.571289062 245.338867188 528.038085938 254.787109375 527 c 2
 639 527 l 1
 639 375 l 1
 462.165039062 375 l 1
 476.209960938 343.109375 484 307.7890625 484 270.571289062 c 0
 484 128.571289062 369 13.5712890625 226 13.5712890625 c 0
 218 13.5712890625 131 6.5712890625 89 41.5712890625 c 0
 51 73.5712890625 50 162.571289062 50 162.571289062 c 1
 50 790.571289062 l 1
 202 790.571289062 l 1
202 167.571289062 m 1
 210 165.571289062 218 164.571289062 226 164.571289062 c 0
 286 164.571289062 333 211.571289062 333 270.571289062 c 0
 333 322.331054688 298.0234375 364.416992188 249.896484375 375 c 1
 203.78125 375 l 2
 203.1875 374.862304688 202.59375 374.719726562 202 374.571289062 c 2
 202 167.571289062 l 1
EndSplineSet
EndChar

StartChar: uni09EB
Encoding: 2539 2539 393
Width: 779
VWidth: 0
Flags: HW
HStem: 626 157<549.596 716.478> -4 161<549.596 716.478>
VStem: 262.569 153<292.8 487.701>
LayerCount: 2
Fore
SplineSet
355.770507812 394.469726562 m 2
 355.11328125 395.197265625 l 1
 353.998046875 392.770507812 353.796875 391.798828125 355.770507812 394.469726562 c 2
736.516601562 489.231445312 m 1
 660.09765625 356.872070312 l 1
 653.911132812 362.805664062 646.911132812 368.102539062 639.147460938 372.583007812 c 0
 587.185546875 402.583984375 522.982421875 385.381835938 493.482421875 334.28515625 c 0
 463.481445312 282.32421875 480.685546875 218.119140625 532.647460938 188.12109375 c 0
 537.229492188 185.474609375 541.924804688 183.200195312 546.697265625 181.290039062 c 0
 547.723632812 181.956054688 548.743164062 182.627929688 549.756835938 183.309570312 c 1
 550.702148438 179.77734375 l 2
 552.702148438 179.067382812 554.712890625 178.418945312 556.731445312 177.834960938 c 1
 552.96875 171.319335938 l 1
 592.702148438 23.037109375 l 1
 571.09375 12.37890625 548.16015625 3.6826171875 524.044921875 -2.78125 c 0
 320.234375 -57.3896484375 109.508789062 68.3544921875 53.3447265625 277.9609375 c 0
 -3.0771484375 488.53125 116.543945312 702.79296875 320.353515625 757.403320312 c 0
 344.46875 763.866210938 368.680664062 767.802734375 392.721679688 769.372070312 c 1
 434.633789062 612.95703125 l 1
 418.18359375 614.084960938 401.4296875 613.403320312 384.618164062 610.763671875 c 1
 490.943359375 488.297851562 l 1
 555.856445312 506.979492188 651.125976562 540.02734375 714.646484375 503.353515625 c 0
 722.24609375 498.966796875 729.537109375 494.25 736.516601562 489.231445312 c 1
354.965820312 395.359375 m 1
 239.19140625 523.487304688 l 1
 197.331054688 467.865234375 180.83984375 393.290039062 200.615234375 319.491210938 c 0
 222.76953125 236.805664062 285.575195312 175.953125 361.170898438 153.971679688 c 1
 320.352539062 226.275390625 315.6875 316.424804688 354.965820312 395.359375 c 1
EndSplineSet
EndChar

StartChar: uni09B7
Encoding: 2487 2487 394
Width: 841
VWidth: 0
Flags: HW
HStem: 20 152<235.1 580.7> 620 152<34.3 378.3>
LayerCount: 2
Fore
SplineSet
644 681 m 1
 357.166015625 681 l 1
 644 538.982421875 l 1
 644 681 l 1
644 166.658203125 m 1
 644 391.504882812 l 1
 511.956054688 446.836914062 l 1
 302.186523438 272.055664062 l 1
 644 166.658203125 l 1
76.755859375 190.198242188 m 1
 108.228515625 337.01953125 l 1
 379.267578125 497.461914062 l 1
 118.098632812 681 l 1
 0 681 l 1
 0 813 l 1
 841 813 l 1
 841 681 l 1
 796 681 l 1
 796 8 l 1
 644 8 l 1
 644 10.1826171875 l 1
 76.755859375 190.198242188 l 1
EndSplineSet
EndChar

StartChar: uni09A5
Encoding: 2469 2469 395
Width: 723
VWidth: 0
Flags: HW
HStem: 13 151<243.471 334> 377 151<243.471 334>
VStem: 50 151<206.066 334.529>
LayerCount: 2
Fore
SplineSet
174.400390625 776.462890625 m 1
 181.243164062 777.149414062 186.181640625 777.52734375 193.200195312 777.5 c 0
 307.951171875 777.052734375 460.767578125 708.090820312 467.599609375 588.900390625 c 0
 476.655273438 430.920898438 281.840820312 357.525390625 180 293 c 1
 524 176.745117188 l 1
 524 681 l 1
 524 787 l 1
 524 813 l 1
 723 813 l 1
 723 681 l 1
 670 681 l 1
 670 11 l 1
 524 11 l 1
 524 26.0556640625 l 1
 88 207 l 1
 88 359 l 1
 88 359 229 456 311 528 c 0
 332 546 348.799804688 588.900390625 348.799804688 588.900390625 c 1
 348.799804688 636.099609375 243.200195312 656.700195312 195.200195312 656.700195312 c 0
 188.029296875 656.700195312 181.060546875 655.83203125 174.400390625 654.194335938 c 1
 174.400390625 776.462890625 l 1
EndSplineSet
EndChar

StartChar: uni0980
Encoding: 2432 2432 396
Width: 534
VWidth: 0
Flags: HW
HStem: 275 151<243.471 332> 639 150<243.591 331.625>
VStem: 332 152<13 276 426.026 638.974> 50 151<468.471 596.934>
LayerCount: 2
Fore
SplineSet
260 353 m 1
 260 275 l 1
 117 275 50 390 50 533 c 0
 50 675 165 790 308 790 c 0
 316 790 403 797 445 762 c 0
 483 730 484 641 484 641 c 1
 484 13 l 1
 332 13 l 1
 332 276 l 1
 326.247070312 275.28125 338.752929688 398.056640625 333 398 c 1
 332 429 l 1
 332 636 l 1
 324 638 316 639 308 639 c 0
 248 639 201 592 201 533 c 0
 201 473 200 426 260 426 c 0
 261.09375 426 258.90625 352.962890625 260 353 c 1
EndSplineSet
EndChar

StartChar: uni09BC
Encoding: 2492 2492 397
Width: 0
VWidth: 0
GlyphClass: 4
Flags: HW
HStem: 8 142<-76 76>
VStem: -76 152<8 150>
LayerCount: 2
Fore
SplineSet
-460 -128 m 1
 -460 14 l 1
 -308 14 l 1
 -308 -128 l 1
 -460 -128 l 1
EndSplineSet
EndChar

StartChar: uni09BD
Encoding: 2493 2493 398
Width: 689
VWidth: 0
Flags: HW
LayerCount: 2
Fore
SplineSet
249 492.999023438 m 1
 249 477 l 1
 239.196289062 485.032226562 l 2
 238.168945312 484.111328125 237.151367188 483.169921875 236.141601562 482.20703125 c 2
 236.141601562 482.20703125 222.28125 495.926757812 204.485351562 513.469726562 c 2
 0 681 l 1
 0 813 l 1
 207.661132812 642.868164062 l 1
 302.690429688 685.614257812 416.420898438 668.53125 495.080078125 589.872070312 c 0
 596.706054688 488.24609375 594.452148438 326.5078125 492.18359375 223.525390625 c 0
 466.661132812 197.825195312 439.724609375 179.067382812 412.2578125 166.3515625 c 1
 593 9 l 1
 434 9 l 1
 225.735351562 163.26953125 l 1
 190.404296875 177.595703125 157.993164062 199.703125 130.920898438 227.127929688 c 1
 233.453125 329.66015625 l 1
 233.686523438 329.422851562 233.921875 329.186523438 234.158203125 328.950195312 c 0
 276.666992188 286.440429688 340.711914062 287.127929688 386.141601562 331.051757812 c 0
 429.873046875 376.353515625 430.990234375 440.416015625 388.306640625 483.099609375 c 0
 349.102539062 522.3046875 292.970703125 525.259765625 249 492.999023438 c 1
EndSplineSet
EndChar

StartChar: uni099A
Encoding: 2458 2458 399
Width: 530
VWidth: 0
Flags: HW
HStem: 377.571 151<202 290.529> 14.5714 150<202.375 290.409>
VStem: 50 152<527.571 790.571 164.597 377.545> 333 151<206.637 335.1>
LayerCount: 2
Fore
SplineSet
202 167.571289062 m 1
 210 165.571289062 218 164.571289062 226 164.571289062 c 0
 286 164.571289062 333 211.571289062 333 270.571289062 c 0
 333 330.571289062 286 377.571289062 226 377.571289062 c 0
 218 377.571289062 210 376.571289062 202 374.571289062 c 1
 202 167.571289062 l 1
530 813 m 1
 530 681 l 1
 202 681 l 1
 202 527.571289062 l 1
 210 528.571289062 218 528.571289062 226 528.571289062 c 0
 369 528.571289062 484 413.571289062 484 270.571289062 c 0
 484 128.571289062 369 13.5712890625 226 13.5712890625 c 0
 218 13.5712890625 131 6.5712890625 89 41.5712890625 c 0
 51 73.5712890625 50 162.571289062 50 162.571289062 c 1
 50 681 l 1
 0 681 l 1
 0 813 l 1
 530 813 l 1
EndSplineSet
EndChar

StartChar: uni09CD
Encoding: 2509 2509 400
Width: 0
VWidth: 0
Flags: HW
LayerCount: 2
Fore
SplineSet
-104 9 m 1
 40 -176 l 5
 -66 -237 l 5
 -210 -52 l 1
 -104 9 l 1
EndSplineSet
EndChar

StartChar: uni09B8
Encoding: 2488 2488 401
Width: 512
VWidth: 0
Flags: HW
LayerCount: 2
Fore
SplineSet
55 105 m 1
 130 230 l 1
 136 225 142 220 152 215 c 0
 203 185 267 202 297 250 c 0
 329 306 279 354 227 363 c 1
 102.791992188 430.033203125 19.3974609375 542.73828125 97.517578125 681 c 1
 0 681 l 1
 0 813 l 1
 776 813 l 1
 776 681 l 1
 755 681 l 1
 755 10 l 1
 603.018554688 10 l 1
 601 8 l 1
 428.500976562 180.499023438 l 1
 428.006835938 179.66796875 427.506835938 178.834960938 427 178 c 0
 358 61 201 22 76 90 c 0
 70 96 62 99 55 105 c 1
445.565429688 335.6171875 m 1
 446 338 l 1
 603 204.877929688 l 1
 603 681 l 1
 355.704101562 681 l 1
 349.729492188 676.977539062 344.71875 674.640625 342 676 c 0
 338.315429688 678.022460938 334.744140625 679.681640625 331.276367188 681 c 2
 291.71875 681 l 1
 268.456054688 670.96484375 250.250976562 643.418945312 232 613 c 0
 199 558 232 477 296 466 c 1
 360.7421875 431.138671875 419.97265625 389.541992188 445.565429688 335.6171875 c 1
EndSplineSet
EndChar

StartChar: uni09AE
Encoding: 2478 2478 402
Width: 778
VWidth: 0
Flags: HW
LayerCount: 2
Fore
SplineSet
307.43359375 456.358398438 m 1025
770 813 m 1
 770 681 l 1
 749 681 l 1
 749 10 l 1
 597.018554688 10 l 1
 595 8 l 1
 479.301757812 123.698242188 l 1
 432.826171875 56.79296875 355.244140625 13 267 13 c 0
 265.956054688 13 264.92578125 13.001953125 263.90625 13.001953125 c 0
 263.603515625 13.001953125 263.301757812 13 263 13 c 0
 261.815429688 13 260.631835938 13.0078125 259.451171875 13.0234375 c 0
 254.662109375 13.0693359375 250.004882812 13.205078125 245.133789062 13.6025390625 c 0
 110.541992188 22.708984375 5 133.96484375 5 270 c 0
 5 349.491210938 40.5361328125 420.331054688 96.6640625 467.573242188 c 1
 55.15234375 527.244140625 45.046875 599.8515625 91.4736328125 681 c 1
 -6 681 l 1
 -6 813 l 1
 770 813 l 1
264.955078125 376.982421875 m 0
 256.641601562 376.842773438 248.393554688 375.848632812 241 374 c 1
 241 374.828125 l 1
 191.8984375 364.9453125 156 322.4375 156 270 c 0
 156 218.436523438 191.8984375 176.0390625 241 166.169921875 c 1
 241 167 l 1
 248.393554688 165.151367188 256.641601562 164.157226562 264.955078125 164.017578125 c 0
 273.23046875 164.163085938 281.280273438 165.234375 289 167.131835938 c 1
 289 166.169921875 l 1
 338.1015625 176.0390625 374 218.436523438 374 270 c 0
 374 322.4375 338.1015625 364.9453125 289 374.828125 c 1
 289 373.864257812 l 1
 281.280273438 375.765625 273.23046875 376.836914062 264.955078125 376.982421875 c 0
597 204.877929688 m 1
 597 681 l 1
 349.704101562 681 l 1
 343.729492188 676.977539062 338.71875 674.640625 336 676 c 0
 332.315429688 678.022460938 328.744140625 679.681640625 325.276367188 681 c 2
 285.71875 681 l 1
 262.456054688 670.96484375 244.250976562 643.418945312 226 613 c 0
 209.8125 586.020507812 209.505859375 552.78515625 220.94921875 524.624023438 c 1
 228.890625 525.9140625 236.956054688 526.84375 245.12890625 527.397460938 c 0
 250.001953125 527.794921875 254.66015625 527.930664062 259.451171875 527.9765625 c 0
 260.631835938 527.9921875 261.815429688 528 263 528 c 0
 263.301757812 528 263.603515625 527.999023438 263.905273438 527.998046875 c 0
 264.92578125 528 265.956054688 528 267 528 c 0
 410 528 525 413 525 270 c 0
 525 268.6484375 524.989257812 267.299804688 524.96875 265.954101562 c 2
 597 204.877929688 l 1
EndSplineSet
EndChar

StartChar: uni0998
Encoding: 2456 2456 403
Width: 770
VWidth: 0
Flags: HW
LayerCount: 2
Fore
SplineSet
79.7421875 681.545898438 m 1
 -6 681 l 1
 -6 813 l 1
 770 813 l 1
 770 681 l 1
 749 681 l 1
 749 10 l 1
 359 29.3212890625 l 0
 187.732421875 29.3212890625 50 131.786132812 50 258.307617188 c 0
 50 321.702148438 78.4677734375 378.918945312 124.689453125 420.4140625 c 1
 78.4677734375 461.795898438 50 518.791015625 50 581.741210938 c 0
 50 617.5546875 60.669921875 651.396484375 79.7421875 681.545898438 c 1
597 681 m 1
 353 677.078125 l 1
 267.766601562 677.078125 201 635.200195312 201 581.741210938 c 0
 201 532.912109375 241.549804688 493.30859375 295.40234375 487.918945312 c 0
 299.576171875 488.095703125 303.775390625 488.186523438 308 488.186523438 c 0
 312.170898438 488.186523438 316.318359375 488.096679688 320.442382812 487.921875 c 0
 325.056640625 488.391601562 329.58203125 489.1171875 334 490.0859375 c 1
 334 487.030273438 l 1
 334 353.909179688 l 1
 334 350.850585938 l 1
 329.58203125 351.8203125 325.056640625 352.547851562 320.44140625 353.017578125 c 0
 316.318359375 352.841796875 312.170898438 352.75390625 308 352.75390625 c 0
 303.776367188 352.75390625 299.577148438 352.84375 295.404296875 353.020507812 c 0
 241.55078125 347.627929688 201 307.96484375 201 258.307617188 c 0
 201 205.740234375 270.40234375 163.861328125 359 163.861328125 c 5
 600 170 l 5
 597 681 l 1
EndSplineSet
EndChar

StartChar: uni0999
Encoding: 2457 2457 404
Width: 616
VWidth: 0
Flags: HW
HStem: 13.0016 151.016<243.473 373.671> 376 151.998<309 441> 681 132<0 309 441 616> 681 80<309 441>
VStem: 309 132<527.998 761>
LayerCount: 2
Fore
SplineSet
10 710 m 1
 130 806 l 1
 311.640625 700.890625 l 1
 317.836914062 762.955078125 368.28515625 812.319335938 431 817 c 0
 433 817 436 817 438 817 c 0
 439 817 439 817 440 817 c 0
 441 817 441 817 442 817 c 0
 514 817 571 760 571 688 c 0
 571 639.665039062 494.583007812 577.791992188 455 556 c 1
 403 458 l 1
 481.610351562 413.868164062 572.310546875 366.931640625 570 270 c 0
 566.541015625 124.885742188 452.287109375 12.7998046875 308.90625 13.001953125 c 0
 139.0390625 13.240234375 55.1650390625 141.7890625 56.0009765625 271 c 1
 201.00390625 271 l 1
 201.000976562 270.666992188 201 270.333984375 201 270 c 0
 201 209.8828125 246.772460938 165.08203125 309.955078125 164.017578125 c 0
 372.911132812 165.126953125 419 209.63671875 419 270 c 0
 419 326.657226562 379.734375 369.046875 323.932617188 376 c 1
 309 376 l 1
 318 527.624023438 l 2
 317.96875 527.87109375 317.9375 527.998046875 317.905273438 527.998046875 c 1
 317.9375 527.998046875 317.96875 527.998046875 318 527.998046875 c 2
 327 554 l 1
 321.180664062 576.630859375 l 1
 311.329101562 582.219726562 302.288085938 589.047851562 294.279296875 596.907226562 c 1
 10 710 l 1
441 742 m 0
 437 742 433 741 429 740 c 1
 429 741 l 1
 404 736 387 714 387 688 c 0
 387 670.083984375 395.072265625 654.54296875 408.270507812 644.973632812 c 2
 417.364257812 639.711914062 l 2
 421 638.075195312 424.891601562 636.821289062 429 636 c 1
 429 637 l 1
 433 636 437 635 441 635 c 0
 445 635 449 636 453 637 c 1
 453 636 l 1
 478 641 495 662 495 688 c 0
 495 714 478 736 453 741 c 1
 453 740 l 1
 449 741 445 742 441 742 c 0
EndSplineSet
EndChar

StartChar: uni09AA
Encoding: 2474 2474 405
Width: 619
VWidth: 0
Flags: HW
HStem: -29.1672 157<567.596 734.478> 596.833 161<567.596 734.478>
VStem: 280.569 153<266.132 461.033>
LayerCount: 2
Fore
SplineSet
224.63671875 585.595703125 m 1
 242.1640625 637.83984375 284.065429688 675.619140625 334.059570312 689.534179688 c 1
 290.935546875 713.227539062 236.286132812 714.090820312 189.953125 687.340820312 c 0
 148.598632812 663.46484375 122.9296875 623.219726562 116.84765625 580.13671875 c 1
 224.63671875 585.595703125 l 1
351.774414062 375.487304688 m 1
 346.47265625 376.354492188 341.165039062 377.4921875 335.869140625 378.911132812 c 0
 291.588867188 390.776367188 264.08984375 447.485351562 243.658203125 484.428710938 c 1
 142.545898438 477.296875 l 1
 148.809570312 468.700195312 155.913085938 460.994140625 163.681640625 454.22265625 c 1
 76.0322265625 403.618164062 l 1
 66.1005859375 414.936523438 57.140625 427.376953125 49.3388671875 440.891601562 c 0
 -16.5986328125 555.09765625 25.2265625 702.654296875 143.22265625 770.779296875 c 0
 234.034179688 823.209960938 343.524414062 812.651367188 419 752.37890625 c 1
 419 855 l 1
 571 855 l 1
 571 811 l 1
 619 811 l 1
 619 679 l 1
 571 679 l 1
 571 6 l 1
 419 6 l 1
 419 496.981445312 l 1
 417 495 l 1
 418.055664062 601.0859375 l 1
 411.157226562 597.103515625 l 1
 409.939453125 592.561523438 l 1
 408.790039062 593.1953125 407.614257812 593.796875 406.416992188 594.368164062 c 2
 404.438476562 593.224609375 l 1
 404.291992188 593.973632812 404.137695312 594.720703125 403.977539062 595.46875 c 0
 401.025390625 596.733398438 397.9453125 597.8046875 394.750976562 598.659179688 c 0
 358.528320312 608.366210938 322.55078125 587.594726562 312.844726562 551.37109375 c 0
 303.30078125 515.751953125 324.073242188 479.77734375 360.294921875 470.071289062 c 0
 365.706054688 468.620117188 371.140625 467.868164062 376.497070312 467.755859375 c 1
 351.774414062 375.487304688 l 1
225.38671875 585.633789062 m 2
 225.694335938 587.6875 225.354492188 587.16796875 224.775390625 585.603515625 c 1
 225.38671875 585.633789062 l 2
EndSplineSet
EndChar

StartChar: uni09E7
Encoding: 2535 2535 406
Width: 555
VWidth: 0
Flags: HW
HStem: 626 157<51.091 217.973> -4 161<51.091 217.973>
VStem: 352 153<292.8 487.701>
LayerCount: 2
Fore
SplineSet
123 157 m 0
 250 157 352 262 352 391 c 0
 352 521 250 626 123 626 c 0
 97.4453125 626 72.9033203125 621.749023438 50 613.897460938 c 1
 50 775.830078125 l 1
 73.62890625 780.536132812 98.0341796875 783 123 783 c 0
 334 783 505 607 505 389 c 0
 505 172 334 -4 123 -4 c 0
 98.0341796875 -4 73.62890625 -1.5361328125 50 3.16796875 c 1
 50 169.09375 l 1
 72.9033203125 161.250976562 97.4453125 157 123 157 c 0
EndSplineSet
EndChar

StartChar: uni09E8
Encoding: 2536 2536 407
Width: 783
VWidth: 0
Flags: HW
HStem: 20 152<301 733> 620 152<50 480>
LayerCount: 2
Fore
SplineSet
-29.83984375 236.225585938 m 1
 46.16015625 367.861328125 l 1
 427.34375 456.08984375 l 1
 54.5859375 672.456054688 l 1
 130.586914062 804.092773438 l 1
 661.826171875 496.2265625 l 1
 585.826171875 364.58984375 l 1
 203.77734375 276.861328125 l 1
 548.455078125 77.861328125 l 1
 472.455078125 -53.775390625 l 1
 -29.83984375 236.225585938 l 1
EndSplineSet
EndChar

StartChar: uni09A6
Encoding: 2470 2470 408
Width: 725
VWidth: 0
Flags: HW
HStem: 20 152<301 733> 620 152<50 480>
LayerCount: 2
Fore
SplineSet
662.5 592.5 m 1
 662.5 12.5 l 1
 510.5 12.5 l 1
 510.5 410.5 l 1
 243.5 123.5 l 1
 91.5 123.5 l 1
 90.591796875 681 l 1
 0 681 l 1
 0 813 l 1
 726 813 l 1
 726 681 l 1
 242.630859375 681 l 1
 243.5 306.5 l 1
 510.5 592.5 l 1
 662.5 592.5 l 1
EndSplineSet
EndChar

StartChar: uni09E9
Encoding: 2537 2537 409
Width: 726
VWidth: 75
Flags: HW
HStem: 14.7002 133.6<305.264 468.805> 523.479 120.821<395.987 467.023> 681 132<0 726>
VStem: 92.4004 111.399<250.829 338.876> 570.2 133.399<250.829 424.049>
LayerCount: 2
Fore
SplineSet
389.780273438 523.478515625 m 1
 389.780273438 523.478515625 395.987304688 644.29296875 395.987304688 644.29296875 c 2
 396.657226562 644.297851562 397.328125 644.299804688 398 644.299804688 c 0
 566.799804688 644.299804688 703.599609375 503.5 703.599609375 329.900390625 c 0
 703.599609375 155.5 566.799804688 14.7001953125 398 14.7001953125 c 0
 229.200195312 14.7001953125 92.400390625 155.5 92.400390625 329.900390625 c 0
 92.400390625 330.77734375 203.86328125 340.658203125 203.870117188 341.533203125 c 1
 203.823242188 339.794921875 203.799804688 338.049804688 203.799804688 336.299804688 c 0
 203.799804688 232.299804688 285.400390625 148.299804688 387 148.299804688 c 0
 488.599609375 148.299804688 570.200195312 232.299804688 570.200195312 336.299804688 c 0
 570.200195312 438.556640625 490.084960938 521.962890625 389.780273438 523.478515625 c 1
EndSplineSet
EndChar

StartChar: uni099B
Encoding: 2459 2459 410
Width: 726
VWidth: 75
Flags: HW
LayerCount: 2
Fore
SplineSet
726 813 m 1
 726 681 l 1
 215 681 l 1
 215 581.400390625 l 1
 221.400390625 582.200195312 227.799804688 582.200195312 234.200195312 582.200195312 c 0
 303.5859375 582.200195312 364.731445312 548.356445312 402.107421875 496.198242188 c 1
 413.2421875 497.475585938 424.616210938 498.13671875 436.1796875 498.13671875 c 0
 571.220703125 498.13671875 680.66015625 408.0234375 680.66015625 296.920898438 c 0
 680.66015625 213.858398438 620.052734375 148.09375 533.390625 119.879882812 c 1
 709.459960938 121.560546875 l 1
 709.459960938 43.736328125 l 1
 387.540039062 40.6640625 l 1
 389.459960938 191.500976562 l 1
 404.118164062 187.48046875 419.825195312 185.3046875 436.1796875 185.3046875 c 0
 517.459960938 185.3046875 582.740234375 229.3359375 582.740234375 295.896484375 c 0
 582.740234375 361.78125 517.783203125 415.4375 436.783203125 415.703125 c 1
 439.288085938 402.80078125 440.599609375 389.459960938 440.599609375 375.799804688 c 0
 440.599609375 262.200195312 348.599609375 170.200195312 234.200195312 170.200195312 c 0
 227.799804688 170.200195312 221.400390625 170.200195312 215 171 c 2
 93.400390625 171 l 1
 93.400390625 681 l 1
 0 681 l 1
 0 813 l 1
 726 813 l 1
215 293.400390625 m 1
 221.400390625 291.799804688 227.799804688 291 234.200195312 291 c 0
 282.200195312 291 319.799804688 328.599609375 319.799804688 375.799804688 c 0
 319.799804688 423.799804688 282.200195312 461.400390625 234.200195312 461.400390625 c 0
 227.799804688 461.400390625 221.400390625 460.599609375 215 459 c 1
 215 293.400390625 l 1
EndSplineSet
EndChar

StartChar: uni09A0
Encoding: 2464 2464 411
Width: 726
VWidth: 75
Flags: HW
LayerCount: 2
Fore
SplineSet
374 546 m 1030
726 813 m 1
 726 681 l 1
 614.923828125 681 l 1
 725.252929688 586.844726562 777.63671875 431.422851562 736.516601562 277.9609375 c 0
 680.352539062 68.3544921875 469.626953125 -57.3896484375 265.81640625 -2.78125 c 0
 241.701171875 3.6826171875 218.767578125 12.37890625 197.159179688 23.037109375 c 1
 236.892578125 171.319335938 l 1
 233.129882812 177.834960938 l 1
 235.1484375 178.418945312 237.159179688 179.067382812 239.159179688 179.77734375 c 2
 240.104492188 183.309570312 l 1
 241.118164062 182.627929688 242.137695312 181.956054688 243.1640625 181.290039062 c 0
 247.936523438 183.200195312 252.630859375 185.475585938 257.213867188 188.12109375 c 0
 309.17578125 218.119140625 278.616210938 613.452148438 248.615234375 665.413085938 c 0
 245.375976562 671.0234375 241.71875 676.224609375 237.706054688 681 c 1
 0 681 l 1
 0 813 l 1
 251.8359375 813 l 1
 236.87109375 827.96484375 l 2
 191.616210938 873.219726562 213.536132812 930.49609375 168.28125 975.750976562 c 0
 132.21875 1011.8125 45.2451171875 1019.59082031 45.2451171875 1019.59082031 c 1
 133.6328125 1107.97949219 l 1
 133.6328125 1107.97949219 218.486328125 1102.32226562 253.841796875 1066.96777344 c 0
 300.510742188 1020.29785156 281.418945312 961.608398438 328.087890625 914.939453125 c 0
 359.200195312 883.826171875 359.907226562 883.119140625 390.723632812 851.7109375 c 0
 417.475585938 825.282226562 460.520507812 815.987304688 494.153320312 813 c 2
 726 813 l 1
386 626 m 1
 425.278320312 547.065429688 469.508789062 226.275390625 428.690429688 153.971679688 c 1
 504.286132812 175.953125 567.08984375 236.806640625 589.24609375 319.491210938 c 0
 609.021484375 393.290039062 493.860351562 606.377929688 452 662 c 1
 386 626 l 1
EndSplineSet
EndChar

StartChar: uni09EA
Encoding: 2538 2538 412
Width: 616
VWidth: 0
Flags: HW
HStem: 376.983 92.0348<286.347 333.638>
VStem: 50 151<207.14 334.826 510.772 638.449> 419 151<205.844 334.826 510.772 639.753>
LayerCount: 2
Fore
SplineSet
309.037109375 13.201171875 m 0
 308.771484375 13.201171875 308.505859375 13.2001953125 308.240234375 13.2001953125 c 0
 307.197265625 13.2001953125 306.15625 13.2060546875 305.116210938 13.220703125 c 0
 300.90234375 13.2607421875 296.8046875 13.380859375 292.518554688 13.7294921875 c 0
 174.077148438 21.744140625 81.2001953125 119.6484375 81.2001953125 239.359375 c 0
 81.2001953125 289.814453125 139.974609375 379.916992188 162.056640625 409.995117188 c 1
 139.974609375 439.971679688 126.959960938 476.998046875 126.959960938 517.078125 c 0
 126.959960938 613.520507812 201.259765625 691.87109375 296.010742188 698.286132812 c 0
 299.44140625 698.565429688 302.720703125 698.661132812 306.092773438 698.694335938 c 0
 306.924804688 698.706054688 307.7578125 698.709960938 308.591796875 698.709960938 c 0
 308.8046875 698.709960938 309.017578125 698.709960938 309.228515625 698.708984375 c 0
 309.947265625 698.709960938 310.672851562 698.709960938 311.408203125 698.709960938 c 0
 412.080078125 698.709960938 493.040039062 617.75 493.040039062 517.078125 c 0
 493.040039062 476.998046875 480.025390625 439.971679688 457.943359375 409.995117188 c 1
 480.025390625 379.916992188 538.799804688 289.814453125 538.799804688 239.359375 c 0
 538.799804688 114.400390625 437.599609375 13.2001953125 311.759765625 13.2001953125 c 0
 310.840820312 13.2001953125 309.934570312 13.201171875 309.037109375 13.201171875 c 0
309.967773438 592.393554688 m 0
 304.115234375 592.295898438 298.309570312 591.596679688 293.103515625 590.293945312 c 1
 293.103515625 590.877929688 l 1
 258.536132812 583.920898438 233.263671875 553.994140625 233.263671875 517.078125 c 0
 233.263671875 480.778320312 258.536132812 450.930664062 293.103515625 443.982421875 c 1
 293.103515625 444.56640625 l 1
 298.309570312 443.264648438 304.115234375 442.565429688 309.967773438 442.467773438 c 0
 315.793945312 442.569335938 321.461914062 443.323242188 326.896484375 444.659179688 c 1
 326.896484375 443.982421875 l 1
 361.463867188 450.930664062 386.736328125 480.778320312 386.736328125 517.078125 c 0
 386.736328125 553.994140625 361.463867188 583.920898438 326.896484375 590.877929688 c 1
 326.896484375 590.198242188 l 1
 321.461914062 591.538085938 315.793945312 592.291992188 309.967773438 592.393554688 c 0
309.959960938 333.504882812 m 0
 302.64453125 333.381835938 295.38671875 332.505859375 288.879882812 330.879882812 c 1
 288.879882812 331.609375 l 1
 245.669921875 322.912109375 214.080078125 285.504882812 214.080078125 239.359375 c 0
 214.080078125 193.984375 245.669921875 156.673828125 288.879882812 147.990234375 c 1
 288.879882812 148.720703125 l 1
 295.38671875 147.09375 302.64453125 146.21875 309.959960938 146.094726562 c 0
 317.243164062 146.223632812 324.327148438 147.166015625 331.120117188 148.8359375 c 1
 331.120117188 147.990234375 l 1
 374.330078125 156.673828125 405.919921875 193.984375 405.919921875 239.359375 c 0
 405.919921875 285.504882812 374.330078125 322.912109375 331.120117188 331.609375 c 1
 331.120117188 330.760742188 l 1
 324.327148438 332.434570312 317.243164062 333.375976562 309.959960938 333.504882812 c 0
EndSplineSet
EndChar

StartChar: uni09E6
Encoding: 2534 2534 413
Width: 864
VWidth: 0
Flags: HW
HStem: 35.35 141.3<356.32 508.56> 598.75 144.9<356.32 508.56>
VStem: 126.5 122<292.263 485.349> 615.5 122<289.999 487.603>
LayerCount: 2
Fore
SplineSet
615.5 388.150390625 m 0
 615.5 504.25 534.5 598.75 432.5 598.75 c 0
 330.5 598.75 248.5 504.25 248.5 388.150390625 c 0
 248.5 271.150390625 330.5 176.650390625 432.5 176.650390625 c 0
 534.5 176.650390625 615.5 271.150390625 615.5 388.150390625 c 0
737.5 389.950195312 m 0
 737.5 193.75 601.5 35.349609375 432.5 35.349609375 c 0
 263.5 35.349609375 126.5 193.75 126.5 389.950195312 c 0
 126.5 585.25 263.5 743.650390625 432.5 743.650390625 c 0
 601.5 743.650390625 737.5 585.25 737.5 389.950195312 c 0
EndSplineSet
EndChar

StartChar: uni25CC
Encoding: 9676 9676 414
Width: 864
VWidth: 0
Flags: HW
HStem: -4 157<337.027 526.973> 622 161<337.027 526.973>
VStem: 50 153<288.712 488.774> 661 153<288.712 488.774>
LayerCount: 2
Fore
SplineSet
70 254 m 0
 70 303 109 342 158 342 c 0
 207 342 246 303 246 254 c 0
 246 205 207 166 158 166 c 0
 109 166 70 205 70 254 c 0
243 100 m 0
 243 149 282 188 331 188 c 0
 380 188 419 149 419 100 c 0
 419 51 380 12 331 12 c 0
 282 12 243 51 243 100 c 0
609 235 m 0
 609 284 648 323 697 323 c 0
 746 323 785 284 785 235 c 0
 785 186 746 147 697 147 c 0
 648 147 609 186 609 235 c 0
464 98 m 0
 464 147 503 186 552 186 c 0
 601 186 640 147 640 98 c 0
 640 49 601 10 552 10 c 0
 503 10 464 49 464 98 c 0
637 444 m 0
 637 493 676 532 725 532 c 0
 774 532 813 493 813 444 c 0
 813 395 774 356 725 356 c 0
 676 356 637 395 637 444 c 0
48 472 m 0
 48 521 87 560 136 560 c 0
 185 560 224 521 224 472 c 0
 224 423 185 384 136 384 c 0
 87 384 48 423 48 472 c 0
165 644 m 0
 165 693 204 732 253 732 c 0
 302 732 341 693 341 644 c 0
 341 595 302 556 253 556 c 0
 204 556 165 595 165 644 c 0
552 618 m 0
 552 667 591 706 640 706 c 0
 689 706 728 667 728 618 c 0
 728 569 689 530 640 530 c 0
 591 530 552 569 552 618 c 0
359 702 m 0
 359 751 398 790 447 790 c 0
 496 790 535 751 535 702 c 0
 535 653 496 614 447 614 c 0
 398 614 359 653 359 702 c 0
EndSplineSet
EndChar

StartChar: Euro
Encoding: 8364 8364 415
Width: 555
VWidth: 0
Flags: HW
HStem: -4 157<337.027 503.909> 622 161<337.027 503.909>
VStem: 50 153<291.299 486.2>
LayerCount: 2
Fore
SplineSet
15 368 m 2
 423 368 l 2
 431 368 438 361 438 353 c 2
 438 297 l 2
 438 289 431 282 423 282 c 2
 15 282 l 2
 7 282 0 289 0 297 c 2
 0 353 l 2
 0 361 7 368 15 368 c 2
15 543 m 6
 423 543 l 6
 431 543 438 536 438 528 c 6
 438 472 l 6
 438 464 431 457 423 457 c 6
 15 457 l 6
 7 457 0 464 0 472 c 6
 0 528 l 6
 0 536 7 543 15 543 c 6
432 622 m 0
 305 622 203 517 203 388 c 0
 203 258 305 153 432 153 c 0
 457.5546875 153 482.096679688 157.250976562 505 165.102539062 c 1
 505 3.169921875 l 1
 481.37109375 -1.5361328125 456.965820312 -4 432 -4 c 0
 221 -4 50 172 50 390 c 0
 50 607 221 783 432 783 c 0
 456.965820312 783 481.37109375 780.536132812 505 775.83203125 c 1
 505 609.90625 l 1
 482.096679688 617.749023438 457.5546875 622 432 622 c 0
EndSplineSet
EndChar

StartChar: uni20B9
Encoding: 8377 8377 416
Width: 826
VWidth: 75
Flags: HW
LayerCount: 2
Fore
SplineSet
776 813 m 1
 776 681 l 1
 437.1171875 681 l 1
 539.01953125 653.420898438 615.443359375 565.403320312 625.80078125 458 c 1
 761 458 l 2
 769 458 776 451 776 443 c 2
 776 395 l 2
 776 387 769 380 761 380 c 2
 621.603515625 380 l 1
 605.0234375 299.890625 551.556640625 233.643554688 479.596679688 199.649414062 c 1
 716.348632812 -27.0107421875 l 1
 623.010742188 -120.348632812 l 1
 247.651367188 239.010742188 l 1
 340.989257812 332.348632812 l 1
 344.788085938 328.711914062 l 1
 352.5703125 326.935546875 360.67578125 326 369 326 c 0
 409.588867188 326 444.228515625 347.508789062 462.393554688 380 c 1
 197 380 l 2
 189 380 182 387 182 395 c 2
 182 443 l 2
 182 451 189 458 197 458 c 2
 473.091796875 458 l 1
 461.978515625 504.739257812 420.227539062 539 369 539 c 0
 360.036132812 539 351.326171875 537.915039062 343 535.868164062 c 1
 343 681 l 1
 50 681 l 1
 50 813 l 1
 776 813 l 1
EndSplineSet
EndChar

StartChar: uni09F0
Encoding: 2544 2544 417
Width: 723
VWidth: 0
Flags: HW
HStem: 681 132<0 524 670 723> 681 106<524 670>
VStem: 524 146<11 83.5 235.5 483.5 635.5 787> 524 57.5<83.5 235.5 483.5 483.5>
LayerCount: 2
Fore
SplineSet
723 813 m 1
 723 681 l 1
 670 681 l 1
 670 11 l 1
 526 11 l 1
 526 10 l 1
 524.334960938 11 l 1
 524 11 l 1
 524 11.201171875 l 1
 70.5 283.5 l 1
 70.5 435.5 l 1
 524 612.995117188 l 1
 524 681 l 1
 0 681 l 1
 0 813 l 1
 723 813 l 1
524 165.254882812 m 1
 524 248.194335938 l 1
 342.198242188 402.645507812 l 1
 214.5 359.5 l 1
 524 165.254882812 l 1
524 358.447265625 m 1
 524 464.072265625 l 1
 437.383789062 434.806640625 l 1
 524 358.447265625 l 1
EndSplineSet
EndChar

StartChar: uni09F1
Encoding: 2545 2545 418
Width: 723
VWidth: 0
Flags: HW
HStem: 681 132<0 524 670 723> 681 106<524 670>
VStem: 524 146<11 83.5 235.5 483.5 635.5 787> 524 57.5<83.5 235.5 483.5 483.5>
LayerCount: 2
Fore
SplineSet
723 813 m 1
 723 681 l 1
 670 681 l 1
 670 11 l 1
 524 11 l 1
 380.336914062 109.336914062 220.356445312 191.356445312 70.5 283.5 c 1
 70.5 435.5 l 1
 524 612.995117188 l 1
 524 681 l 1
 0 681 l 1
 0 813 l 1
 723 813 l 1
44 206 m 1
 476 -34 l 1
 414 -127 l 1
 0 100 l 1
 44 206 l 1
524 169.11328125 m 1
 524 464.072265625 l 1
 214.5 359.5 l 1
 524 169.11328125 l 1
EndSplineSet
EndChar

StartChar: uni09BF
Encoding: 2495 2495 419
Width: 275
VWidth: 0
Flags: HW
LayerCount: 2
Fore
SplineSet
272 813 m 1
 272 681 l 1
 227 681 l 1
 227 8 l 1
 75 8 l 1
 75 681 l 1
 0 681 l 1
 0 813 l 1
 75 813 l 1
 76.9267578125 813 l 1
 76.3125 820.25390625 76 827.590820312 76 835 c 0
 76 978 191 1093 333 1093 c 0
 476 1093 591 978 591 835 c 0
 591 826.2265625 590.560546875 817.553710938 589.704101562 809 c 1
 436.864257812 809 l 1
 438.915039062 817.326171875 440 826.036132812 440 835 c 0
 440 895 393 942 333 942 c 0
 274 942 227 895 227 835 c 0
 227 827.4609375 227.767578125 820.102539062 229.228515625 813 c 1
 272 813 l 1
EndSplineSet
EndChar

StartChar: uni09C0
Encoding: 2496 2496 420
Width: 246
VWidth: 0
Flags: HW
LayerCount: 2
Fore
SplineSet
246 813 m 1
 246 681 l 1
 201 681 l 1
 201 8 l 1
 49 8 l 1
 49 681 l 1
 -1 681 l 1
 -1 813 l 1
 49 813 l 1
 49.5126953125 813 l 1
 51.1435546875 821.529296875 52 834.033203125 52 842 c 0
 52 902 5 949 -55 949 c 0
 -114 949 -161 902 -161 842 c 0
 -161 833.036132812 -159.915039062 824.326171875 -157.868164062 816 c 1
 -310.704101562 816 l 1
 -311.561523438 824.553710938 -312 833.2265625 -312 842 c 0
 -312 985 -197 1100 -55 1100 c 0
 88 1100 203 985 203 842 c 0
 203 834.182617188 202.651367188 821.682617188 201.969726562 813 c 1
 246 813 l 1
EndSplineSet
EndChar

StartChar: uni09C1
Encoding: 2497 2497 421
Width: 0
VWidth: 0
Flags: HW
LayerCount: 2
Fore
SplineSet
-155.935546875 -107.4140625 m 0
 -162.5859375 -107.525390625 -169.185546875 -108.321289062 -175.099609375 -109.799804688 c 1
 -175.099609375 -109.137695312 l 1
 -214.380859375 -117.043945312 -243.099609375 -151.049804688 -243.099609375 -193 c 0
 -243.099609375 -234.250976562 -214.380859375 -268.168945312 -175.099609375 -276.064453125 c 1
 -175.099609375 -275.400390625 l 1
 -169.185546875 -276.87890625 -162.5859375 -277.673828125 -155.935546875 -277.786132812 c 0
 -149.314453125 -277.669921875 -142.875 -276.8125 -136.69921875 -275.294921875 c 1
 -136.69921875 -276.064453125 l 1
 -97.41796875 -268.168945312 -68.69921875 -234.250976562 -68.69921875 -193 c 0
 -68.69921875 -151.049804688 -97.41796875 -117.043945312 -136.69921875 -109.137695312 c 1
 -136.69921875 -109.908203125 l 1
 -142.875 -108.387695312 -149.314453125 -107.530273438 -155.935546875 -107.4140625 c 0
-156.775390625 -398.598632812 m 0
 -157.017578125 -398.598632812 -157.2578125 -398.599609375 -157.5 -398.599609375 c 0
 -158.447265625 -398.599609375 -159.39453125 -398.59375 -160.33984375 -398.581054688 c 0
 -164.169921875 -398.543945312 -167.896484375 -398.436523438 -171.79296875 -398.118164062 c 0
 -279.466796875 -390.833007812 -363.900390625 -301.828125 -363.900390625 -193 c 0
 -363.900390625 -83.4072265625 -279.46875 5.62890625 -171.796875 12.91796875 c 0
 -167.8984375 13.236328125 -164.171875 13.3447265625 -160.33984375 13.380859375 c 0
 -159.39453125 13.3935546875 -158.447265625 13.400390625 -157.5 13.400390625 c 0
 -157.2578125 13.400390625 -157.017578125 13.3994140625 -156.775390625 13.3984375 c 0
 -155.958984375 13.400390625 -155.134765625 13.400390625 -154.30078125 13.400390625 c 0
 -67.8798828125 13.400390625 5.7578125 -39.1005859375 36.6083984375 -114.098632812 c 1
 363.900390625 14 l 1
 363.900390625 -107.599609375 l 1
 70.30078125 -206.799804688 l 1
 363.900390625 -306 l 1
 363.900390625 -427.599609375 l 1
 25.060546875 -294.981445312 l 1
 -10.4130859375 -356.899414062 -77.2802734375 -398.599609375 -154.30078125 -398.599609375 c 0
 -155.134765625 -398.599609375 -155.958984375 -398.598632812 -156.775390625 -398.598632812 c 0
EndSplineSet
EndChar

StartChar: uni09C2
Encoding: 2498 2498 422
Width: 0
VWidth: 0
Flags: HW
HStem: 13 151<439.817 530.346> 377 151<439.817 530.346>
VStem: 246.346 151<206.066 334.529>
LayerCount: 2
Fore
SplineSet
22.677734375 25.6162109375 m 1
 403.4609375 -167.920898438 l 1
 342.163085938 -273.748046875 l 1
 101.260742188 -151.307617188 l 1
 61.8583984375 -285.822265625 -76.9072265625 -364.293945312 -212.094726562 -328.071289062 c 0
 -350.22265625 -291.059570312 -431.540039062 -150.213867188 -394.528320312 -12.0869140625 c 0
 -392.2578125 -3.6123046875 -389.588867188 4.6513671875 -386.547851562 12.69140625 c 1
 -238.915039062 -26.8662109375 l 1
 -243.051757812 -34.3779296875 -246.353515625 -42.509765625 -248.673828125 -51.1689453125 c 0
 -264.203125 -109.124023438 -230.96875 -166.6875 -173.013671875 -182.215820312 c 0
 -116.0234375 -197.486328125 -58.4609375 -164.252929688 -42.931640625 -106.296875 c 0
 -40.611328125 -97.638671875 -39.4052734375 -88.9443359375 -39.2275390625 -80.3720703125 c 1
 -37.2783203125 -80.89453125 l 1
 -38.62109375 -80.2119140625 l 1
 22.677734375 25.6162109375 l 1
EndSplineSet
EndChar

StartChar: uni09C3
Encoding: 2499 2499 423
Width: 0
VWidth: 0
Flags: HW
LayerCount: 2
Fore
SplineSet
204.400390625 14 m 257
 204.400390625 -107.599609375 l 257
 -89.19921875 -206.799804688 l 257
 204.400390625 -306 l 257
 204.400390625 -427.599609375 l 257
 -204.400390625 -267.599609375 l 257
 -204.400390625 -146 l 257
 204.400390625 14 l 257
EndSplineSet
EndChar

StartChar: uni09C4
Encoding: 2500 2500 424
Width: 0
VWidth: 0
Flags: HW
LayerCount: 2
Fore
SplineSet
204.400390625 14 m 1
 204.400390625 -107.599609375 l 1
 157.932617188 -123.299804688 l 1
 204.400390625 -139 l 1
 204.400390625 -260.599609375 l 1
 -5.400390625 -178.486328125 l 1
 -89.19921875 -206.799804688 l 1
 204.400390625 -306 l 1
 204.400390625 -427.599609375 l 1
 -204.400390625 -267.599609375 l 1
 -204.400390625 -146 l 1
 -146.401367188 -123.299804688 l 1
 -204.400390625 -100.599609375 l 1
 -204.400390625 21 l 1
 204.400390625 181 l 1
 204.400390625 59.400390625 l 1
 -89.19921875 -39.7998046875 l 1
 -5.400390625 -68.11328125 l 1
 204.400390625 14 l 1
EndSplineSet
EndChar

StartChar: uni09C7
Encoding: 2503 2503 425
Width: 624
VWidth: 75
Flags: HW
LayerCount: 2
Fore
SplineSet
621 813 m 5
 621 681 l 5
 454.5 681 l 5
 388.799804688 671 l 4
 274.5 671 182.700195312 482.5 182.700195312 366.400390625 c 4
 182.700195312 249.400390625 274.5 154.900390625 388.799804688 154.900390625 c 4
 411.798828125 154.900390625 433.88671875 158.725585938 454.5 165.791992188 c 5
 454.5 20.052734375 l 5
 433.234375 15.8173828125 411.26953125 13.599609375 388.799804688 13.599609375 c 4
 198.900390625 13.599609375 45 172 45 368.200195312 c 4
 45 471.798828125 88.3056640625 591.463867188 157.317382812 681 c 5
 0 681 l 5
 0 813 l 5
 621 813 l 5
EndSplineSet
EndChar

StartChar: uni09C8
Encoding: 2504 2504 426
Width: 624
VWidth: 75
Flags: HW
LayerCount: 2
Fore
SplineSet
621 813 m 1
 621 681 l 1
 454.5 681 l 1
 388.799804688 671 l 1
 274.5 671 182.700195312 482.5 182.700195312 366.400390625 c 0
 182.700195312 249.400390625 274.5 154.900390625 388.799804688 154.900390625 c 0
 411.798828125 154.900390625 433.88671875 158.725585938 454.5 165.791992188 c 1
 454.5 20.052734375 l 1
 433.234375 15.8173828125 411.26953125 13.599609375 388.799804688 13.599609375 c 0
 198.900390625 13.599609375 45 172 45 368.200195312 c 0
 45 471.798828125 88.3056640625 591.463867188 157.317382812 681 c 1
 0 681 l 1
 0 813 l 1
 333.489257812 813 l 1
 327.990234375 838.393554688 317.922851562 864.420898438 299.7890625 882.776367188 c 0
 268.380859375 913.592773438 267.673828125 914.299804688 236.560546875 945.412109375 c 0
 189.891601562 992.081054688 131.202148438 972.989257812 84.5322265625 1019.65820312 c 0
 49.177734375 1055.01367188 43.5205078125 1139.8671875 43.5205078125 1139.8671875 c 1
 131.909179688 1228.25488281 l 1
 131.909179688 1228.25488281 139.6875 1141.28125 175.749023438 1105.21875 c 0
 221.00390625 1059.96386719 278.280273438 1081.88378906 323.53515625 1036.62890625 c 0
 357.475585938 1002.68847656 360.3046875 999.859375 394.245117188 965.918945312 c 0
 444.2734375 915.890625 424.794921875 818.1796875 427.479492188 818.1328125 c 1
 422.346679688 813 l 1
 621 813 l 1
EndSplineSet
EndChar

StartChar: uni09D7
Encoding: 2519 2519 427
Width: 254
VWidth: 0
Flags: HW
LayerCount: 2
Fore
SplineSet
255 813 m 1
 255 681 l 1
 210 681 l 1
 210 8 l 1
 58 8 l 1
 58 681 l 1
 0 681 l 1
 0 813 l 1
 58 813 l 1
 68.1728515625 813 l 1
 62.3720703125 827.458007812 54.4833984375 840.951171875 43.7890625 851.776367188 c 0
 12.380859375 882.592773438 11.673828125 883.299804688 -19.439453125 914.412109375 c 0
 -66.1083984375 961.081054688 -124.797851562 941.989257812 -171.467773438 988.658203125 c 0
 -206.822265625 1024.01367188 -212.479492188 1108.8671875 -212.479492188 1108.8671875 c 1
 -124.090820312 1197.25488281 l 1
 -124.090820312 1197.25488281 -116.3125 1110.28125 -80.2509765625 1074.21875 c 0
 -34.99609375 1028.96386719 22.2802734375 1050.88378906 67.53515625 1005.62890625 c 0
 101.475585938 971.688476562 104.3046875 968.859375 138.245117188 934.918945312 c 0
 172.061523438 901.102539062 174.120117188 845.5 172.732421875 813 c 1
 210 813 l 1
 255 813 l 1
EndSplineSet
EndChar

StartChar: uni09E1
Encoding: 2529 2529 433
Width: 779
VWidth: 0
Flags: HW
HStem: 626 157<51.091 217.973> -4 161<51.091 217.973>
VStem: 352 153<292.8 487.701>
LayerCount: 2
Fore
SplineSet
308.26171875 -136.48828125 m 5
 307.918945312 -133.067382812 307.744140625 -129.59765625 307.744140625 -126.088867188 c 4
 307.744140625 -68.888671875 353.744140625 -22.888671875 410.543945312 -22.888671875 c 4
 448.513671875 -22.888671875 481.547851562 -43.1572265625 499.467773438 -73.517578125 c 5
 506.973632812 -42.9345703125 498.454101562 -9.0068359375 474.2421875 15.205078125 c 4
 437.47265625 51.974609375 378.923828125 52.8232421875 343.002929688 16.90234375 c 4
 335.775390625 9.673828125 330.036132812 1.5302734375 325.778320312 -7.16796875 c 5
 279.977539062 38.6328125 l 5
 285.329101562 46.6474609375 291.53515625 54.2470703125 298.596679688 61.30859375 c 4
 358.276367188 120.98828125 456.422851562 119.57421875 518.083007812 57.9140625 c 4
 579.458984375 -3.462890625 580.874023438 -101.609375 521.194335938 -161.2890625 c 4
 514.1328125 -168.349609375 506.533203125 -174.555664062 498.51953125 -179.908203125 c 5
 455.099609375 -136.48828125 l 5
 452.08984375 -136.48828125 l 5
 452.291015625 -135.671875 452.46875 -134.846679688 452.623046875 -134.01171875 c 6
 451.587890625 -132.977539062 l 5
 452.02734375 -132.762695312 452.463867188 -132.543945312 452.900390625 -132.322265625 c 4
 453.192382812 -130.286132812 453.34375 -128.205078125 453.34375 -126.088867188 c 4
 453.34375 -102.088867188 434.543945312 -83.2880859375 410.543945312 -83.2890625 c 4
 386.943359375 -83.2880859375 368.143554688 -102.088867188 368.14453125 -126.088867188 c 4
 368.143554688 -129.673828125 368.578125 -133.158203125 369.396484375 -136.48828125 c 5
 308.26171875 -136.48828125 l 5
98.1552734375 113.778320312 m 1
 97.2978515625 122.33203125 96.859375 131.004882812 96.859375 139.778320312 c 0
 96.859375 282.778320312 211.859375 397.779296875 353.859375 397.779296875 c 0
 448.783203125 397.779296875 531.369140625 347.10546875 576.170898438 271.20703125 c 1
 594.932617188 347.665039062 573.635742188 432.482421875 513.10546875 493.012695312 c 0
 421.181640625 584.936523438 274.810546875 587.05859375 185.0078125 497.255859375 c 0
 166.9375 479.185546875 152.58984375 458.826171875 141.946289062 437.079101562 c 1
 27.443359375 551.583007812 l 1
 40.8232421875 571.619140625 56.337890625 590.618164062 73.9921875 608.271484375 c 0
 223.19140625 757.470703125 468.557617188 753.935546875 622.70703125 599.786132812 c 0
 776.1484375 446.34375 779.684570312 200.977539062 630.485351562 51.7783203125 c 0
 612.831054688 34.125 593.83203125 18.6103515625 573.797851562 5.228515625 c 1
 465.248046875 113.778320312 l 1
 457.724609375 113.778320312 l 1
 458.227539062 115.819335938 458.671875 117.883789062 459.056640625 119.969726562 c 2
 456.470703125 122.555664062 l 1
 457.567382812 123.092773438 458.66015625 123.639648438 459.75 124.1953125 c 0
 460.481445312 129.283203125 460.860351562 134.486328125 460.859375 139.778320312 c 0
 460.860351562 199.778320312 413.859375 246.779296875 353.859375 246.778320312 c 0
 294.859375 246.779296875 247.859375 199.778320312 247.860351562 139.778320312 c 0
 247.859375 130.814453125 248.9453125 122.104492188 250.991210938 113.778320312 c 1
 98.1552734375 113.778320312 l 1
EndSplineSet
EndChar

StartChar: uni09E0
Encoding: 2528 2528 434
Width: 1344
Flags: HW
LayerCount: 2
Fore
SplineSet
922 787 m 1
 1068 787 l 1
 1068 295.5 l 1
 1142.5 221 l 1
 1144.5 805 l 1
 1344.5 805 l 1
 1344.5 673 l 1
 1294.5 673 l 1
 1294.5 10 l 1
 1292 10 l 1
 1292 -79 l 1
 998.400390625 -178.200195312 l 1
 1292 -277.400390625 l 1
 1292 -399 l 1
 883.19921875 -239 l 1
 883.19921875 -117.400390625 l 1
 1208.70800781 10 l 1
 1142.51855469 10 l 1
 1140.5 8 l 1
 1068 80.5 l 1
 1068 11 l 1
 921 11 l 1
 921 12.6953125 l 1
 468.5 189.5 l 1
 468.5 341.5 l 1
 714.940429688 571.51171875 l 1
 725.203125 639.375976562 l 1
 698.943359375 563.631835938 627.708007812 510 544 510 c 0
 482.708984375 510 428.502929688 537.698242188 393.081054688 581.395507812 c 1
 357.87109375 537.698242188 304.15625 510 244 510 c 0
 136 510 50 596 50 704 c 0
 50 710 50 717 50 723 c 1
 166 723 l 1
 164 717 163 710 163 704 c 0
 163 659 199 623 244 623 c 0
 289 623 323 659 323 704 c 0
 323 710 322 717 320 723 c 1
 350 723 l 1
 436 723 l 1
 466 723 l 1
 464 717 463 710 463 704 c 0
 463 659 499 623 544 623 c 0
 589 623 623 659 623 704 c 0
 623 710 622 780 620 786 c 1
 922 787 l 1
921 169.684570312 m 1
 921 719.262695312 l 1
 754 454 l 1
 753.189453125 455.12109375 l 1
 612.5 283.5 l 1
 921 169.684570312 l 1
EndSplineSet
EndChar

StartChar: uni09E2
Encoding: 2530 2530 435
Width: 0
VWidth: 0
Flags: HW
LayerCount: 2
Fore
SplineSet
-114.251953125 -136.48828125 m 5
 -114.594726562 -133.067382812 -114.76953125 -129.59765625 -114.76953125 -126.088867188 c 4
 -114.76953125 -68.888671875 -68.76953125 -22.888671875 -11.9697265625 -22.888671875 c 4
 26 -22.888671875 59.0341796875 -43.1572265625 76.9541015625 -73.517578125 c 5
 84.4599609375 -42.9345703125 75.9404296875 -9.0068359375 51.728515625 15.205078125 c 4
 14.958984375 51.974609375 -43.58984375 52.8232421875 -79.5107421875 16.90234375 c 4
 -86.73828125 9.673828125 -92.4775390625 1.5302734375 -96.7353515625 -7.16796875 c 5
 -142.536132812 38.6328125 l 5
 -137.184570312 46.6474609375 -130.978515625 54.2470703125 -123.916992188 61.30859375 c 4
 -64.2373046875 120.98828125 33.9091796875 119.57421875 95.5693359375 57.9140625 c 4
 156.9453125 -3.462890625 158.360351562 -101.609375 98.6806640625 -161.2890625 c 4
 91.619140625 -168.349609375 84.01953125 -174.555664062 76.005859375 -179.908203125 c 5
 32.5859375 -136.48828125 l 5
 29.576171875 -136.48828125 l 5
 29.77734375 -135.671875 29.955078125 -134.846679688 30.109375 -134.01171875 c 6
 29.07421875 -132.977539062 l 5
 29.513671875 -132.762695312 29.9501953125 -132.543945312 30.38671875 -132.322265625 c 4
 30.6787109375 -130.286132812 30.830078125 -128.205078125 30.830078125 -126.088867188 c 4
 30.830078125 -102.088867188 12.0302734375 -83.2880859375 -11.9697265625 -83.2890625 c 4
 -35.5703125 -83.2880859375 -54.3701171875 -102.088867188 -54.369140625 -126.088867188 c 4
 -54.3701171875 -129.673828125 -53.935546875 -133.158203125 -53.1171875 -136.48828125 c 5
 -114.251953125 -136.48828125 l 5
EndSplineSet
EndChar

StartChar: uni09E3
Encoding: 2531 2531 436
Width: 0
VWidth: 0
Flags: HW
LayerCount: 2
Fore
SplineSet
41.7421875 -284.580078125 m 5
 41.3994140625 -281.159179688 41.224609375 -277.689453125 41.224609375 -274.180664062 c 4
 41.224609375 -216.98046875 87.224609375 -170.98046875 144.024414062 -170.98046875 c 4
 181.994140625 -170.98046875 215.028320312 -191.249023438 232.948242188 -221.609375 c 5
 240.454101562 -191.026367188 231.934570312 -157.098632812 207.72265625 -132.88671875 c 4
 170.953125 -96.1171875 112.404296875 -95.2685546875 76.4833984375 -131.189453125 c 4
 69.255859375 -138.41796875 63.5166015625 -146.561523438 59.2587890625 -155.259765625 c 5
 13.4580078125 -109.458984375 l 5
 18.8095703125 -101.444335938 25.015625 -93.8447265625 32.0771484375 -86.783203125 c 4
 91.7568359375 -27.103515625 189.903320312 -28.517578125 251.563476562 -90.177734375 c 4
 312.939453125 -151.5546875 314.354492188 -249.701171875 254.674804688 -309.380859375 c 4
 247.61328125 -316.44140625 240.013671875 -322.647460938 232 -328 c 5
 188.580078125 -284.580078125 l 5
 185.5703125 -284.580078125 l 5
 185.771484375 -283.763671875 185.94921875 -282.938476562 186.103515625 -282.103515625 c 6
 185.068359375 -281.069335938 l 5
 185.5078125 -280.854492188 185.944335938 -280.635742188 186.380859375 -280.4140625 c 4
 186.672851562 -278.377929688 186.82421875 -276.296875 186.82421875 -274.180664062 c 4
 186.82421875 -250.180664062 168.024414062 -231.379882812 144.024414062 -231.380859375 c 4
 120.423828125 -231.379882812 101.624023438 -250.180664062 101.625 -274.180664062 c 4
 101.624023438 -277.765625 102.05859375 -281.25 102.876953125 -284.580078125 c 5
 41.7421875 -284.580078125 l 5
-143.2578125 -148.580078125 m 1
 -143.600585938 -145.159179688 -143.775390625 -141.689453125 -143.775390625 -138.180664062 c 0
 -143.775390625 -80.98046875 -97.775390625 -34.98046875 -40.9755859375 -34.98046875 c 0
 -3.005859375 -34.98046875 30.0283203125 -55.2490234375 47.9482421875 -85.609375 c 1
 55.4541015625 -55.0263671875 46.9345703125 -21.0986328125 22.72265625 3.11328125 c 0
 -14.046875 39.8828125 -72.595703125 40.7314453125 -108.516601562 4.810546875 c 0
 -115.744140625 -2.41796875 -121.483398438 -10.5615234375 -125.741210938 -19.259765625 c 1
 -171.541992188 26.541015625 l 1
 -166.190429688 34.5556640625 -159.984375 42.1552734375 -152.922851562 49.216796875 c 0
 -93.2431640625 108.896484375 4.9033203125 107.482421875 66.5634765625 45.822265625 c 0
 127.939453125 -15.5546875 129.354492188 -113.701171875 69.6748046875 -173.380859375 c 0
 62.61328125 -180.44140625 55.013671875 -186.647460938 47 -192 c 1
 3.580078125 -148.580078125 l 1
 0.5703125 -148.580078125 l 1
 0.771484375 -147.763671875 0.94921875 -146.938476562 1.103515625 -146.103515625 c 2
 0.068359375 -145.069335938 l 1
 0.5078125 -144.854492188 0.9443359375 -144.635742188 1.380859375 -144.4140625 c 0
 1.6728515625 -142.377929688 1.82421875 -140.296875 1.82421875 -138.180664062 c 0
 1.82421875 -114.180664062 -16.9755859375 -95.3798828125 -40.9755859375 -95.380859375 c 0
 -64.576171875 -95.3798828125 -83.3759765625 -114.180664062 -83.375 -138.180664062 c 0
 -83.3759765625 -141.765625 -82.94140625 -145.25 -82.123046875 -148.580078125 c 1
 -143.2578125 -148.580078125 l 1
EndSplineSet
EndChar

StartChar: uni09F2
Encoding: 2546 2546 437
Width: 445
VWidth: 0
Flags: HW
LayerCount: 2
Fore
SplineSet
158 437 m 5
 391 79 l 5
 285 18 l 5
 52 376 l 5
 158 437 l 5
EndSplineSet
EndChar

StartChar: uni09F3
Encoding: 2547 2547 438
Width: 806
VWidth: 0
Flags: HW
HStem: 681 132<0 50 217 639> 681 90<50 217>
VStem: 53 164<182.77 771> 452 164<182.95 383>
LayerCount: 2
Fore
SplineSet
216 782 m 25
 216 782 247 879 230 938 c 24
 222 966 187 951 162 966 c 24
 138 980 106 1012 106 1012 c 25
 120 1104 l 25
 120 1104 205 1105 252 1084 c 24
 315 1056 370 1044 394 980 c 24
 424 900 372 762 372 762 c 25
 216 782 l 25
774 194 m 1
 705.931640625 -45.4130859375 280.236328125 -49.4453125 211 194 c 1
 208.467773438 681 l 1
 32 681 l 5
 32 813 l 5
 639 813 l 1
 639 681 l 1
 375 681 l 1
 375 195 l 1
 413.237304688 151.02734375 572.430664062 149.916992188 610 195 c 1
 610 383 l 1
 777 383 l 1
 774 194 l 1
EndSplineSet
EndChar

StartChar: uni09F4
Encoding: 2548 2548 439
Width: 445
VWidth: 0
Flags: HW
LayerCount: 2
Fore
SplineSet
290 477 m 1
 396 416 l 1
 163 58 l 1
 57 119 l 1
 290 477 l 1
EndSplineSet
EndChar

StartChar: uni09F5
Encoding: 2549 2549 440
Width: 1011
VWidth: 0
Flags: HW
HStem: 626 157<51.091 217.973> -4 161<51.091 217.973>
VStem: 352 153<292.8 487.701>
LayerCount: 2
Fore
SplineSet
136.034179688 647.158203125 m 1
 144.587890625 648.015625 153.260742188 648.454101562 162.034179688 648.454101562 c 0
 305.034179688 648.454101562 420.03515625 533.454101562 420.03515625 391.454101562 c 0
 420.03515625 296.530273438 369.361328125 213.944335938 293.462890625 169.142578125 c 1
 369.920898438 150.380859375 454.73828125 171.677734375 515.268554688 232.208007812 c 0
 818 520 l 1
 996 444 l 1
 682.203125 130.736328125 l 0
 528.760742188 -22.705078125 223.229492188 -34.375 74.0341796875 114.828125 c 0
 56.380859375 132.482421875 40.8662109375 151.481445312 27.484375 171.515625 c 1
 136.034179688 280.065429688 l 1
 136.034179688 287.588867188 l 1
 138.075195312 287.0859375 140.139648438 286.641601562 142.225585938 286.256835938 c 2
 144.811523438 288.842773438 l 1
 145.348632812 287.74609375 145.895507812 286.653320312 146.451171875 285.563476562 c 0
 151.5390625 284.83203125 156.7421875 284.454101562 162.034179688 284.454101562 c 0
 222.034179688 284.453125 269.03515625 331.454101562 269.034179688 391.454101562 c 0
 269.03515625 450.454101562 222.034179688 497.454101562 162.034179688 497.453125 c 0
 153.0703125 497.454101562 144.360351562 496.368164062 136.034179688 494.322265625 c 1
 136.034179688 647.158203125 l 1
EndSplineSet
EndChar

StartChar: uni09FA
Encoding: 2554 2554 442
Width: 400
Flags: HW
LayerCount: 2
Fore
SplineSet
139 521 m 5
 139 635 l 5
 261 635 l 5
 261 521 l 5
 139 521 l 5
393 482 m 5
 393 476 393 469 393 463 c 4
 393 355 307 269 201 269 c 4
 93 269 7 355 7 463 c 4
 7 469 7 476 7 482 c 5
 123 482 l 5
 121 476 120 469 120 463 c 4
 120 418 156 382 201 382 c 4
 246 382 280 418 280 463 c 4
 280 469 279 476 277 482 c 5
 393 482 l 5
EndSplineSet
EndChar

StartChar: uni09FC
Encoding: 2556 2556 443
Width: 400
Flags: HW
LayerCount: 2
Fore
SplineSet
226 226 m 5
 391 79 l 1
 285 18 l 1
 120 165 l 5
 226 226 l 5
139 521 m 1
 139 635 l 1
 261 635 l 1
 261 521 l 1
 139 521 l 1
393 482 m 1
 393 476 393 469 393 463 c 0
 393 355 307 269 201 269 c 0
 93 269 7 355 7 463 c 0
 7 469 7 476 7 482 c 1
 123 482 l 1
 121 476 120 469 120 463 c 0
 120 418 156 382 201 382 c 0
 246 382 280 418 280 463 c 0
 280 469 279 476 277 482 c 1
 393 482 l 1
EndSplineSet
EndChar

